Bungee_Layers-Regular.ufo
<glyph name="dollar" format="1">
  <advance width="650"/>
  <unicode hex="0024"/>
  <outline>
    <contour>
      <point x="405" y="-90" type="line" smooth="yes"/>
      <point x="430" y="-90"/>
      <point x="441" y="-79"/>
      <point x="441" y="-54" type="curve" smooth="yes"/>
      <point x="441" y="2" type="line"/>
      <point x="547" y="13"/>
      <point x="610" y="74"/>
      <point x="610" y="176" type="curve" smooth="yes"/>
      <point x="610" y="281" type="line" smooth="yes"/>
      <point x="610" y="393"/>
      <point x="548" y="433"/>
      <point x="454" y="447" type="curve" smooth="yes"/>
      <point x="305" y="467" type="line" smooth="yes"/>
      <point x="288" y="469"/>
      <point x="278" y="481"/>
      <point x="278" y="499" type="curve" smooth="yes"/>
      <point x="278" y="517"/>
      <point x="288" y="529"/>
      <point x="305" y="529" type="curve" smooth="yes"/>
      <point x="538" y="529" type="line" smooth="yes"/>
      <point x="563" y="529"/>
      <point x="574" y="540"/>
      <point x="574" y="565" type="curve" smooth="yes"/>
      <point x="574" y="684" type="line" smooth="yes"/>
      <point x="574" y="709"/>
      <point x="563" y="720"/>
      <point x="538" y="720" type="curve" smooth="yes"/>
      <point x="441" y="720" type="line"/>
      <point x="441" y="774" type="line" smooth="yes"/>
      <point x="441" y="799"/>
      <point x="430" y="810"/>
      <point x="405" y="810" type="curve" smooth="yes"/>
      <point x="260" y="810" type="line" smooth="yes"/>
      <point x="235" y="810"/>
      <point x="224" y="799"/>
      <point x="224" y="774" type="curve" smooth="yes"/>
      <point x="224" y="718" type="line"/>
      <point x="115" y="708"/>
      <point x="51" y="648"/>
      <point x="51" y="544" type="curve" smooth="yes"/>
      <point x="51" y="439" type="line" smooth="yes"/>
      <point x="51" y="327"/>
      <point x="112" y="287"/>
      <point x="206" y="273" type="curve" smooth="yes"/>
      <point x="356" y="252" type="line" smooth="yes"/>
      <point x="373" y="250"/>
      <point x="382" y="241"/>
      <point x="382" y="218" type="curve" smooth="yes"/>
      <point x="382" y="202"/>
      <point x="373" y="189"/>
      <point x="356" y="189" type="curve" smooth="yes"/>
      <point x="87" y="189" type="line" smooth="yes"/>
      <point x="62" y="189"/>
      <point x="51" y="178"/>
      <point x="51" y="153" type="curve" smooth="yes"/>
      <point x="51" y="36" type="line" smooth="yes"/>
      <point x="51" y="11"/>
      <point x="62" y="0"/>
      <point x="87" y="0" type="curve" smooth="yes"/>
      <point x="224" y="0" type="line"/>
      <point x="224" y="-54" type="line" smooth="yes"/>
      <point x="224" y="-79"/>
      <point x="235" y="-90"/>
      <point x="260" y="-90" type="curve" smooth="yes"/>
    </contour>
  </outline>
</glyph>
<glyph name="hyphen" format="1">
  <advance width="420"/>
  <unicode hex="002D"/>
  <outline>
    <contour>
      <point x="76.0" y="257" type="curve"/>
      <point x="344.0" y="257" type="line" smooth="yes"/>
      <point x="369.0" y="257"/>
      <point x="380.0" y="267"/>
      <point x="380.0" y="293" type="curve" smooth="yes"/>
      <point x="380.0" y="427" type="line" smooth="yes"/>
      <point x="380.0" y="453"/>
      <point x="369.0" y="463"/>
      <point x="344.0" y="463" type="curve" smooth="yes"/>
      <point x="76.0" y="463" type="line" smooth="yes"/>
      <point x="51.0" y="463"/>
      <point x="40.0" y="452"/>
      <point x="40.0" y="427" type="curve" smooth="yes"/>
      <point x="40.0" y="293" type="line" smooth="yes"/>
      <point x="40.0" y="267"/>
      <point x="51.0" y="257"/>
    </contour>
  </outline>
</glyph>
<glyph name="two" format="1">
  <advance width="639"/>
  <unicode hex="0032"/>
  <outline>
    <contour>
      <point x="552.0" y="0" type="line" smooth="yes"/>
      <point x="577.0" y="0"/>
      <point x="588.0" y="11"/>
      <point x="588.0" y="36" type="curve" smooth="yes"/>
      <point x="588.0" y="153" type="line" smooth="yes"/>
      <point x="588.0" y="178"/>
      <point x="577.0" y="189"/>
      <point x="552.0" y="189" type="curve"/>
      <point x="267.0" y="189" type="line"/>
      <point x="267.0" y="210" type="line" smooth="yes"/>
      <point x="267.0" y="232"/>
      <point x="273.0" y="234"/>
      <point x="293.0" y="240" type="curve" smooth="yes"/>
      <point x="429.0" y="283" type="line" smooth="yes"/>
      <point x="526.0" y="313"/>
      <point x="585.0" y="359"/>
      <point x="585.0" y="460" type="curve" smooth="yes"/>
      <point x="585.0" y="554" type="line" smooth="yes"/>
      <point x="585.0" y="662"/>
      <point x="523.0" y="720"/>
      <point x="409.0" y="720" type="curve" smooth="yes"/>
      <point x="114.0" y="720" type="line" smooth="yes"/>
      <point x="89.0" y="720"/>
      <point x="78.0" y="709"/>
      <point x="78.0" y="684" type="curve" smooth="yes"/>
      <point x="78.0" y="567" type="line" smooth="yes"/>
      <point x="78.0" y="542"/>
      <point x="89.0" y="531"/>
      <point x="114.0" y="531" type="curve" smooth="yes"/>
      <point x="331.0" y="531" type="line" smooth="yes"/>
      <point x="351.0" y="531"/>
      <point x="358.0" y="525"/>
      <point x="358.0" y="505" type="curve" smooth="yes"/>
      <point x="358.0" y="483"/>
      <point x="352.0" y="475"/>
      <point x="331.0" y="469" type="curve" smooth="yes"/>
      <point x="197.0" y="427" type="line" smooth="yes"/>
      <point x="105.0" y="399"/>
      <point x="40.0" y="363"/>
      <point x="40.0" y="208" type="curve" smooth="yes"/>
      <point x="40.0" y="36" type="line" smooth="yes"/>
      <point x="40.0" y="11"/>
      <point x="51.0" y="0"/>
      <point x="76.0" y="0" type="curve" smooth="yes"/>
    </contour>
  </outline>
</glyph>
<glyph name="three" format="1">
  <advance width="637"/>
  <unicode hex="0033"/>
  <outline>
    <contour>
      <point x="85.0" y="189" type="line" smooth="yes"/>
      <point x="60.0" y="189"/>
      <point x="49.0" y="178"/>
      <point x="49.0" y="153" type="curve" smooth="yes"/>
      <point x="49.0" y="36" type="line" smooth="yes"/>
      <point x="49.0" y="11"/>
      <point x="60.0" y="0"/>
      <point x="85.0" y="0" type="curve" smooth="yes"/>
      <point x="401.0" y="0" type="line" smooth="yes"/>
      <point x="529.0" y="0"/>
      <point x="595.0" y="63"/>
      <point x="595.0" y="166" type="curve" smooth="yes"/>
      <point x="595.0" y="266" type="line" smooth="yes"/>
      <point x="595.0" y="354"/>
      <point x="564.0" y="400"/>
      <point x="469.0" y="411" type="curve"/>
      <point x="513.0" y="430"/>
      <point x="528.0" y="468"/>
      <point x="528.0" y="519" type="curve" smooth="yes"/>
      <point x="528.0" y="577" type="line" smooth="yes"/>
      <point x="528.0" y="665"/>
      <point x="475.0" y="720"/>
      <point x="364.0" y="720" type="curve" smooth="yes"/>
      <point x="85.0" y="720" type="line" smooth="yes"/>
      <point x="60.0" y="720"/>
      <point x="49.0" y="709"/>
      <point x="49.0" y="684" type="curve" smooth="yes"/>
      <point x="49.0" y="565" type="line" smooth="yes"/>
      <point x="49.0" y="540"/>
      <point x="60.0" y="529"/>
      <point x="85.0" y="529" type="curve" smooth="yes"/>
      <point x="271.0" y="529" type="line" smooth="yes"/>
      <point x="303.0" y="529"/>
      <point x="309.0" y="515"/>
      <point x="309.0" y="499" type="curve" smooth="yes"/>
      <point x="309.0" y="484" type="line" smooth="yes"/>
      <point x="309.0" y="468"/>
      <point x="303.0" y="454"/>
      <point x="271.0" y="454" type="curve" smooth="yes"/>
      <point x="166.0" y="454" type="line" smooth="yes"/>
      <point x="141.0" y="454"/>
      <point x="130.0" y="443"/>
      <point x="130.0" y="418" type="curve" smooth="yes"/>
      <point x="130.0" y="311" type="line" smooth="yes"/>
      <point x="130.0" y="286"/>
      <point x="141.0" y="275"/>
      <point x="166.0" y="275" type="curve" smooth="yes"/>
      <point x="336.0" y="275" type="line" smooth="yes"/>
      <point x="368.0" y="275"/>
      <point x="374.0" y="262"/>
      <point x="374.0" y="246" type="curve" smooth="yes"/>
      <point x="374.0" y="219" type="line" smooth="yes"/>
      <point x="374.0" y="203"/>
      <point x="368.0" y="189"/>
      <point x="336.0" y="189" type="curve" smooth="yes"/>
    </contour>
  </outline>
</glyph>
<glyph name="at" format="1">
  <advance width="867"/>
  <unicode hex="0040"/>
  <outline>
    <contour>
      <point x="624.0" y="-91" type="line" smooth="yes"/>
      <point x="649.0" y="-91"/>
      <point x="658.0" y="-82"/>
      <point x="658.0" y="-57" type="curve" smooth="yes"/>
      <point x="658.0" y="-29" type="line" smooth="yes"/>
      <point x="658.0" y="-4"/>
      <point x="649.0" y="5"/>
      <point x="624.0" y="5" type="curve" smooth="yes"/>
      <point x="434.0" y="5" type="line" smooth="yes"/>
      <point x="214.0" y="5"/>
      <point x="160.0" y="64"/>
      <point x="160.0" y="150" type="curve" smooth="yes"/>
      <point x="160.0" y="568" type="line" smooth="yes"/>
      <point x="160.0" y="655"/>
      <point x="214.0" y="715"/>
      <point x="434.0" y="715" type="curve" smooth="yes"/>
      <point x="654.0" y="715"/>
      <point x="707.0" y="655"/>
      <point x="707.0" y="568" type="curve" smooth="yes"/>
      <point x="707.0" y="302" type="line" smooth="yes"/>
      <point x="707.0" y="249"/>
      <point x="697.0" y="211"/>
      <point x="645.0" y="211" type="curve"/>
      <point x="645.0" y="560" type="line" smooth="yes"/>
      <point x="645.0" y="578"/>
      <point x="637.0" y="586"/>
      <point x="619.0" y="586" type="curve" smooth="yes"/>
      <point x="394.0" y="586" type="line" smooth="yes"/>
      <point x="258.0" y="586"/>
      <point x="218.0" y="527"/>
      <point x="218.0" y="439" type="curve" smooth="yes"/>
      <point x="218.0" y="246" type="line" smooth="yes"/>
      <point x="218.0" y="159"/>
      <point x="258.0" y="100"/>
      <point x="394.0" y="100" type="curve" smooth="yes"/>
      <point x="583.0" y="100" type="line" smooth="yes"/>
      <point x="771.0" y="100"/>
      <point x="807.0" y="182"/>
      <point x="807.0" y="304" type="curve" smooth="yes"/>
      <point x="807.0" y="564" type="line" smooth="yes"/>
      <point x="807.0" y="711"/>
      <point x="735.0" y="811"/>
      <point x="434.0" y="811" type="curve" smooth="yes"/>
      <point x="134.0" y="811"/>
      <point x="60.0" y="711"/>
      <point x="60.0" y="564" type="curve" smooth="yes"/>
      <point x="60.0" y="154" type="line" smooth="yes"/>
      <point x="60.0" y="8"/>
      <point x="134.0" y="-91"/>
      <point x="434.0" y="-91" type="curve" smooth="yes"/>
    </contour>
    <contour>
      <point x="415.0" y="237" type="line"/>
      <point x="388.0" y="237"/>
      <point x="381.0" y="251"/>
      <point x="381.0" y="271" type="curve" smooth="yes"/>
      <point x="381.0" y="422" type="line" smooth="yes"/>
      <point x="381.0" y="440"/>
      <point x="387.0" y="458"/>
      <point x="425.0" y="458" type="curve" smooth="yes"/>
      <point x="482.0" y="458" type="line"/>
      <point x="482.0" y="237" type="line"/>
    </contour>
  </outline>
</glyph>
<glyph name="A" format="1">
  <advance width="730"/>
  <unicode hex="0041"/>
  <outline>
    <contour>
      <point x="330.0" y="510" type="line"/>
      <point x="335.0" y="522"/>
      <point x="341.0" y="527"/>
      <point x="349.0" y="527" type="curve" smooth="yes"/>
      <point x="374.0" y="527" type="line" smooth="yes"/>
      <point x="382.0" y="527"/>
      <point x="388.0" y="522"/>
      <point x="393.0" y="510" type="curve"/>
      <point x="440.0" y="358" type="line"/>
      <point x="283.0" y="358" type="line"/>
    </contour>
    <contour>
      <point x="273.0" y="36" type="curve" smooth="yes"/>
      <point x="273.0" y="176" type="line"/>
      <point x="450.0" y="176" type="line"/>
      <point x="450.0" y="36" type="line" smooth="yes"/>
      <point x="450.0" y="11"/>
      <point x="462.0" y="0"/>
      <point x="489.0" y="0" type="curve" smooth="yes"/>
      <point x="640.0" y="0" type="line" smooth="yes"/>
      <point x="665.0" y="0"/>
      <point x="676.0" y="11"/>
      <point x="676.0" y="36" type="curve" smooth="yes"/>
      <point x="676.0" y="300" type="line" smooth="yes"/>
      <point x="676.0" y="340"/>
      <point x="664.0" y="390"/>
      <point x="637.0" y="460" type="curve" smooth="yes"/>
      <point x="550.0" y="687" type="line" smooth="yes"/>
      <point x="542.0" y="710"/>
      <point x="526.0" y="720"/>
      <point x="500.0" y="720" type="curve" smooth="yes"/>
      <point x="231.0" y="720" type="line" smooth="yes"/>
      <point x="204.0" y="720"/>
      <point x="188.0" y="710"/>
      <point x="180.0" y="687" type="curve" smooth="yes"/>
      <point x="93.0" y="460" type="line" smooth="yes"/>
      <point x="66.0" y="390"/>
      <point x="54.0" y="340"/>
      <point x="54.0" y="300" type="curve" smooth="yes"/>
      <point x="54.0" y="36" type="line" smooth="yes"/>
      <point x="54.0" y="11"/>
      <point x="65.0" y="0"/>
      <point x="90.0" y="0" type="curve" smooth="yes"/>
      <point x="237.0" y="0" type="line" smooth="yes"/>
      <point x="262.0" y="0"/>
      <point x="273.0" y="11"/>
    </contour>
  </outline>
</glyph>
<glyph name="C" format="1">
  <advance width="628"/>
  <unicode hex="0043"/>
  <outline>
    <contour>
      <point x="548.0" y="0" type="line" smooth="yes"/>
      <point x="573.0" y="0"/>
      <point x="584.0" y="11"/>
      <point x="584.0" y="36" type="curve" smooth="yes"/>
      <point x="584.0" y="155" type="line" smooth="yes"/>
      <point x="584.0" y="180"/>
      <point x="573.0" y="191"/>
      <point x="548.0" y="191" type="curve" smooth="yes"/>
      <point x="347.0" y="191" type="line" smooth="yes"/>
      <point x="305.0" y="191"/>
      <point x="286.0" y="206"/>
      <point x="286.0" y="239" type="curve" smooth="yes"/>
      <point x="286.0" y="477" type="line" smooth="yes"/>
      <point x="286.0" y="511"/>
      <point x="305.0" y="527"/>
      <point x="347.0" y="527" type="curve" smooth="yes"/>
      <point x="548.0" y="527" type="line" smooth="yes"/>
      <point x="573.0" y="527"/>
      <point x="584.0" y="538"/>
      <point x="584.0" y="563" type="curve" smooth="yes"/>
      <point x="584.0" y="684" type="line" smooth="yes"/>
      <point x="584.0" y="709"/>
      <point x="573.0" y="720"/>
      <point x="548.0" y="720" type="curve" smooth="yes"/>
      <point x="304.0" y="720" type="line" smooth="yes"/>
      <point x="136.0" y="720"/>
      <point x="58.0" y="655"/>
      <point x="58.0" y="515" type="curve" smooth="yes"/>
      <point x="58.0" y="204" type="line" smooth="yes"/>
      <point x="58.0" y="65"/>
      <point x="136.0" y="0"/>
      <point x="304.0" y="0" type="curve" smooth="yes"/>
    </contour>
  </outline>
</glyph>
<glyph name="D" format="1">
  <advance width="746"/>
  <unicode hex="0044"/>
  <outline>
    <contour>
      <point x="442.0" y="0" type="line" smooth="yes"/>
      <point x="610.0" y="0"/>
      <point x="688.0" y="65"/>
      <point x="688.0" y="204" type="curve" smooth="yes"/>
      <point x="688.0" y="516" type="line" smooth="yes"/>
      <point x="688.0" y="655"/>
      <point x="610.0" y="720"/>
      <point x="442.0" y="720" type="curve" smooth="yes"/>
      <point x="105.0" y="720" type="line" smooth="yes"/>
      <point x="80.0" y="720"/>
      <point x="69.0" y="709"/>
      <point x="69.0" y="684" type="curve" smooth="yes"/>
      <point x="69.0" y="36" type="line" smooth="yes"/>
      <point x="69.0" y="11"/>
      <point x="80.0" y="0"/>
      <point x="105.0" y="0" type="curve" smooth="yes"/>
    </contour>
    <contour>
      <point x="296.0" y="529" type="line"/>
      <point x="415.0" y="529" type="line" smooth="yes"/>
      <point x="447.0" y="529"/>
      <point x="462.0" y="514"/>
      <point x="462.0" y="481" type="curve" smooth="yes"/>
      <point x="462.0" y="238" type="line" smooth="yes"/>
      <point x="462.0" y="204"/>
      <point x="447.0" y="189"/>
      <point x="415.0" y="189" type="curve" smooth="yes"/>
      <point x="296.0" y="189" type="line"/>
    </contour>
  </outline>
</glyph>
<glyph name="G" format="1">
  <advance width="708"/>
  <unicode hex="0047"/>
  <outline>
    <contour>
      <point x="619.0" y="0" type="line" smooth="yes"/>
      <point x="644.0" y="0"/>
      <point x="655.0" y="11"/>
      <point x="655.0" y="36" type="curve" smooth="yes"/>
      <point x="655.0" y="345" type="line" smooth="yes"/>
      <point x="655.0" y="370"/>
      <point x="644.0" y="381"/>
      <point x="619.0" y="381" type="curve" smooth="yes"/>
      <point x="464.0" y="381" type="line" smooth="yes"/>
      <point x="439.0" y="381"/>
      <point x="428.0" y="370"/>
      <point x="428.0" y="345" type="curve" smooth="yes"/>
      <point x="428.0" y="189" type="line"/>
      <point x="331.0" y="189" type="line" smooth="yes"/>
      <point x="300.0" y="189"/>
      <point x="285.0" y="204"/>
      <point x="285.0" y="238" type="curve" smooth="yes"/>
      <point x="285.0" y="477" type="line" smooth="yes"/>
      <point x="285.0" y="511"/>
      <point x="304.0" y="527"/>
      <point x="346.0" y="527" type="curve" smooth="yes"/>
      <point x="554.0" y="527" type="line" smooth="yes"/>
      <point x="579.0" y="527"/>
      <point x="590.0" y="538"/>
      <point x="590.0" y="563" type="curve" smooth="yes"/>
      <point x="590.0" y="684" type="line" smooth="yes"/>
      <point x="590.0" y="709"/>
      <point x="579.0" y="720"/>
      <point x="554.0" y="720" type="curve" smooth="yes"/>
      <point x="304.0" y="720" type="line" smooth="yes"/>
      <point x="136.0" y="720"/>
      <point x="58.0" y="655"/>
      <point x="58.0" y="516" type="curve" smooth="yes"/>
      <point x="58.0" y="204" type="line" smooth="yes"/>
      <point x="58.0" y="65"/>
      <point x="136.0" y="0"/>
      <point x="304.0" y="0" type="curve" smooth="yes"/>
    </contour>
  </outline>
</glyph>
<glyph name="K" format="1">
  <advance width="746"/>
  <unicode hex="004B"/>
  <outline>
    <contour>
      <point x="260.0" y="0" type="line" smooth="yes"/>
      <point x="285.0" y="0"/>
      <point x="296.0" y="11"/>
      <point x="296.0" y="36" type="curve" smooth="yes"/>
      <point x="296.0" y="265" type="line"/>
      <point x="428.0" y="265" type="line" smooth="yes"/>
      <point x="449.0" y="265"/>
      <point x="460.0" y="253"/>
      <point x="460.0" y="231" type="curve" smooth="yes"/>
      <point x="460.0" y="36" type="line" smooth="yes"/>
      <point x="460.0" y="11"/>
      <point x="471.0" y="0"/>
      <point x="496.0" y="0" type="curve" smooth="yes"/>
      <point x="650.0" y="0" type="line" smooth="yes"/>
      <point x="675.0" y="0"/>
      <point x="686.0" y="11"/>
      <point x="686.0" y="36" type="curve" smooth="yes"/>
      <point x="686.0" y="318" type="line" smooth="yes"/>
      <point x="686.0" y="398"/>
      <point x="638.0" y="450"/>
      <point x="563.0" y="454" type="curve"/>
      <point x="665.0" y="687" type="line" smooth="yes"/>
      <point x="674.0" y="708"/>
      <point x="666.0" y="720"/>
      <point x="643.0" y="720" type="curve" smooth="yes"/>
      <point x="489.0" y="720" type="line" smooth="yes"/>
      <point x="463.0" y="720"/>
      <point x="449.0" y="711"/>
      <point x="439.0" y="687" type="curve" smooth="yes"/>
      <point x="336.0" y="454" type="line"/>
      <point x="296.0" y="454" type="line"/>
      <point x="296.0" y="684" type="line" smooth="yes"/>
      <point x="296.0" y="709"/>
      <point x="285.0" y="720"/>
      <point x="260.0" y="720" type="curve" smooth="yes"/>
      <point x="105.0" y="720" type="line" smooth="yes"/>
      <point x="80.0" y="720"/>
      <point x="69.0" y="709"/>
      <point x="69.0" y="684" type="curve" smooth="yes"/>
      <point x="69.0" y="36" type="line" smooth="yes"/>
      <point x="69.0" y="11"/>
      <point x="80.0" y="0"/>
      <point x="105.0" y="0" type="curve" smooth="yes"/>
    </contour>
  </outline>
</glyph>
<glyph name="exclamdown" format="1">
  <advance width="423"/>
  <unicode hex="00A1"/>
  <outline>
    <contour>
      <point x="120.0" y="720" type="line" smooth="yes"/>
      <point x="95.0" y="720"/>
      <point x="84.0" y="709"/>
      <point x="84.0" y="684" type="curve"/>
      <point x="84.0" y="553" type="line"/>
      <point x="84.0" y="527"/>
      <point x="95.0" y="517"/>
      <point x="120.0" y="517" type="curve" smooth="yes"/>
      <point x="304.0" y="517" type="line" smooth="yes"/>
      <point x="329.0" y="517"/>
      <point x="340.0" y="527"/>
      <point x="340.0" y="553" type="curve" smooth="yes"/>
      <point x="340.0" y="684" type="line" smooth="yes"/>
      <point x="340.0" y="709"/>
      <point x="329.0" y="720"/>
      <point x="304.0" y="720" type="curve" smooth="yes"/>
    </contour>
    <contour>
      <point x="134.0" y="458" type="line" smooth="yes"/>
      <point x="109.0" y="458"/>
      <point x="98.0" y="447"/>
      <point x="97.0" y="422" type="curve" smooth="yes"/>
      <point x="82.0" y="36" type="line" smooth="yes"/>
      <point x="81.0" y="11"/>
      <point x="91.0" y="0"/>
      <point x="116.0" y="0" type="curve" smooth="yes"/>
      <point x="307.0" y="0" type="line" smooth="yes"/>
      <point x="332.0" y="0"/>
      <point x="342.0" y="11"/>
      <point x="341.0" y="36" type="curve" smooth="yes"/>
      <point x="327.0" y="422" type="line" smooth="yes"/>
      <point x="326.0" y="447"/>
      <point x="314.0" y="458"/>
      <point x="289.0" y="458" type="curve" smooth="yes"/>
    </contour>
  </outline>
</glyph>
<glyph name="currency" format="1">
  <advance width="821"/>
  <unicode hex="00A4"/>
  <outline>
    <contour>
      <point x="333.0" y="289" type="curve"/>
      <point x="333.0" y="430" type="line" smooth="yes"/>
      <point x="333.0" y="455"/>
      <point x="345.0" y="474"/>
      <point x="413.0" y="474" type="curve" smooth="yes"/>
      <point x="482.0" y="474"/>
      <point x="493.0" y="455"/>
      <point x="493.0" y="430" type="curve" smooth="yes"/>
      <point x="493.0" y="289" type="line" smooth="yes"/>
      <point x="493.0" y="263"/>
      <point x="482.0" y="244"/>
      <point x="413.0" y="244" type="curve" smooth="yes"/>
      <point x="345.0" y="244"/>
      <point x="333.0" y="263"/>
    </contour>
    <contour>
      <point x="184.0" y="8" type="curve" smooth="yes"/>
      <point x="269.0" y="93" type="line"/>
      <point x="306.0" y="82"/>
      <point x="353.0" y="76"/>
      <point x="413.0" y="76" type="curve" smooth="yes"/>
      <point x="471.0" y="76"/>
      <point x="518.0" y="82"/>
      <point x="554.0" y="92" type="curve"/>
      <point x="638.0" y="8" type="line" smooth="yes"/>
      <point x="654.0" y="-9"/>
      <point x="668.0" y="-10"/>
      <point x="686.0" y="8" type="curve" smooth="yes"/>
      <point x="762.0" y="84" type="line" smooth="yes"/>
      <point x="781.0" y="103"/>
      <point x="780.0" y="117"/>
      <point x="762.0" y="133" type="curve"/>
      <point x="672.0" y="223" type="line"/>
      <point x="673.0" y="235"/>
      <point x="674.0" y="247"/>
      <point x="674.0" y="260" type="curve"/>
      <point x="674.0" y="459" type="line" smooth="yes"/>
      <point x="674.0" y="472"/>
      <point x="673.0" y="485"/>
      <point x="672.0" y="497" type="curve"/>
      <point x="762.0" y="587" type="line"/>
      <point x="780.0" y="603"/>
      <point x="781.0" y="617"/>
      <point x="762.0" y="635" type="curve" smooth="yes"/>
      <point x="686.0" y="711" type="line" smooth="yes"/>
      <point x="668.0" y="730"/>
      <point x="654.0" y="729"/>
      <point x="638.0" y="711" type="curve"/>
      <point x="554.0" y="627" type="line"/>
      <point x="518.0" y="638"/>
      <point x="472.0" y="644"/>
      <point x="413.0" y="644" type="curve" smooth="yes"/>
      <point x="353.0" y="644"/>
      <point x="305.0" y="638"/>
      <point x="269.0" y="626" type="curve"/>
      <point x="184.0" y="711" type="line"/>
      <point x="168.0" y="729"/>
      <point x="153.0" y="729"/>
      <point x="135.0" y="711" type="curve" smooth="yes"/>
      <point x="59.0" y="635" type="line" smooth="yes"/>
      <point x="41.0" y="617"/>
      <point x="42.0" y="603"/>
      <point x="59.0" y="587" type="curve" smooth="yes"/>
      <point x="153.0" y="493" type="line"/>
      <point x="152.0" y="482"/>
      <point x="151.0" y="471"/>
      <point x="151.0" y="459" type="curve" smooth="yes"/>
      <point x="151.0" y="260" type="line" smooth="yes"/>
      <point x="151.0" y="249"/>
      <point x="152.0" y="237"/>
      <point x="153.0" y="227" type="curve"/>
      <point x="59.0" y="133" type="line" smooth="yes"/>
      <point x="42.0" y="117"/>
      <point x="42.0" y="102"/>
      <point x="59.0" y="84" type="curve" smooth="yes"/>
      <point x="135.0" y="8" type="line" smooth="yes"/>
      <point x="154.0" y="-10"/>
      <point x="168.0" y="-9"/>
    </contour>
  </outline>
</glyph>
<glyph name="twosuperior" format="1">
  <advance width="485"/>
  <unicode hex="00B2"/>
  <outline>
    <contour>
      <point x="408.0" y="202" type="line" smooth="yes"/>
      <point x="426.0" y="202"/>
      <point x="434.0" y="210"/>
      <point x="434.0" y="228" type="curve" smooth="yes"/>
      <point x="434.0" y="312" type="line" smooth="yes"/>
      <point x="434.0" y="330"/>
      <point x="426.0" y="338"/>
      <point x="408.0" y="338" type="curve"/>
      <point x="203.0" y="338" type="line"/>
      <point x="203.0" y="353" type="line" smooth="yes"/>
      <point x="203.0" y="369"/>
      <point x="207.0" y="370"/>
      <point x="222.0" y="375" type="curve" smooth="yes"/>
      <point x="320.0" y="406" type="line" smooth="yes"/>
      <point x="390.0" y="427"/>
      <point x="432.0" y="460"/>
      <point x="432.0" y="533" type="curve" smooth="yes"/>
      <point x="432.0" y="601" type="line" smooth="yes"/>
      <point x="432.0" y="678"/>
      <point x="387.0" y="720"/>
      <point x="305.0" y="720" type="curve" smooth="yes"/>
      <point x="93.0" y="720" type="line" smooth="yes"/>
      <point x="75.0" y="720"/>
      <point x="67.0" y="712"/>
      <point x="67.0" y="694" type="curve" smooth="yes"/>
      <point x="67.0" y="610" type="line" smooth="yes"/>
      <point x="67.0" y="592"/>
      <point x="75.0" y="584"/>
      <point x="93.0" y="584" type="curve" smooth="yes"/>
      <point x="249.0" y="584" type="line" smooth="yes"/>
      <point x="264.0" y="584"/>
      <point x="269.0" y="580"/>
      <point x="269.0" y="565" type="curve" smooth="yes"/>
      <point x="269.0" y="550"/>
      <point x="264.0" y="544"/>
      <point x="249.0" y="539" type="curve" smooth="yes"/>
      <point x="153.0" y="509" type="line" smooth="yes"/>
      <point x="87.0" y="489"/>
      <point x="40.0" y="463"/>
      <point x="40.0" y="352" type="curve" smooth="yes"/>
      <point x="40.0" y="228" type="line" smooth="yes"/>
      <point x="40.0" y="210"/>
      <point x="48.0" y="202"/>
      <point x="66.0" y="202" type="curve" smooth="yes"/>
    </contour>
  </outline>
</glyph>
<glyph name="threesuperior" format="1">
  <advance width="484"/>
  <unicode hex="00B3"/>
  <outline>
    <contour>
      <point x="75.0" y="338" type="line" smooth="yes"/>
      <point x="57.0" y="338"/>
      <point x="49.0" y="330"/>
      <point x="49.0" y="312" type="curve" smooth="yes"/>
      <point x="49.0" y="228" type="line" smooth="yes"/>
      <point x="49.0" y="210"/>
      <point x="57.0" y="202"/>
      <point x="75.0" y="202" type="curve" smooth="yes"/>
      <point x="303.0" y="202" type="line" smooth="yes"/>
      <point x="395.0" y="202"/>
      <point x="443.0" y="247"/>
      <point x="443.0" y="321" type="curve" smooth="yes"/>
      <point x="443.0" y="393" type="line" smooth="yes"/>
      <point x="443.0" y="457"/>
      <point x="420.0" y="490"/>
      <point x="352.0" y="498" type="curve"/>
      <point x="384.0" y="511"/>
      <point x="394.0" y="539"/>
      <point x="394.0" y="575" type="curve" smooth="yes"/>
      <point x="394.0" y="617" type="line" smooth="yes"/>
      <point x="394.0" y="681"/>
      <point x="356.0" y="720"/>
      <point x="276.0" y="720" type="curve" smooth="yes"/>
      <point x="75.0" y="720" type="line" smooth="yes"/>
      <point x="57.0" y="720"/>
      <point x="49.0" y="712"/>
      <point x="49.0" y="694" type="curve" smooth="yes"/>
      <point x="49.0" y="609" type="line" smooth="yes"/>
      <point x="49.0" y="591"/>
      <point x="57.0" y="583"/>
      <point x="75.0" y="583" type="curve" smooth="yes"/>
      <point x="209.0" y="583" type="line" smooth="yes"/>
      <point x="232.0" y="583"/>
      <point x="237.0" y="573"/>
      <point x="237.0" y="561" type="curve" smooth="yes"/>
      <point x="237.0" y="550" type="line" smooth="yes"/>
      <point x="237.0" y="539"/>
      <point x="232.0" y="529"/>
      <point x="209.0" y="529" type="curve" smooth="yes"/>
      <point x="134.0" y="529" type="line" smooth="yes"/>
      <point x="116.0" y="529"/>
      <point x="108.0" y="521"/>
      <point x="108.0" y="503" type="curve" smooth="yes"/>
      <point x="108.0" y="426" type="line" smooth="yes"/>
      <point x="108.0" y="408"/>
      <point x="116.0" y="400"/>
      <point x="134.0" y="400" type="curve" smooth="yes"/>
      <point x="256.0" y="400" type="line" smooth="yes"/>
      <point x="279.0" y="400"/>
      <point x="283.0" y="390"/>
      <point x="283.0" y="379" type="curve" smooth="yes"/>
      <point x="283.0" y="359" type="line" smooth="yes"/>
      <point x="283.0" y="348"/>
      <point x="279.0" y="338"/>
      <point x="256.0" y="338" type="curve" smooth="yes"/>
    </contour>
  </outline>
</glyph>
<glyph name="questiondown" format="1">
  <advance width="656"/>
  <unicode hex="00BF"/>
  <outline>
    <contour>
      <point x="312.0" y="720" type="line" smooth="yes"/>
      <point x="287.0" y="720"/>
      <point x="276.0" y="709"/>
      <point x="276.0" y="684" type="curve" smooth="yes"/>
      <point x="276.0" y="553" type="line" smooth="yes"/>
      <point x="276.0" y="527"/>
      <point x="287.0" y="517"/>
      <point x="312.0" y="517" type="curve" smooth="yes"/>
      <point x="495.0" y="517" type="line" smooth="yes"/>
      <point x="521.0" y="517"/>
      <point x="531.0" y="527"/>
      <point x="531.0" y="553" type="curve" smooth="yes"/>
      <point x="531.0" y="684" type="line" smooth="yes"/>
      <point x="531.0" y="709"/>
      <point x="521.0" y="720"/>
      <point x="495.0" y="720" type="curve" smooth="yes"/>
    </contour>
    <contour>
      <point x="200.0" y="447" type="line" smooth="yes"/>
      <point x="105.0" y="434"/>
      <point x="45.0" y="393"/>
      <point x="45.0" y="281" type="curve" smooth="yes"/>
      <point x="45.0" y="176" type="line" smooth="yes"/>
      <point x="45.0" y="62"/>
      <point x="122.0" y="0"/>
      <point x="252.0" y="0" type="curve" smooth="yes"/>
      <point x="575.0" y="0" type="line" smooth="yes"/>
      <point x="600.0" y="0"/>
      <point x="611.0" y="11"/>
      <point x="611.0" y="36" type="curve"/>
      <point x="611.0" y="157" type="line" smooth="yes"/>
      <point x="611.0" y="183"/>
      <point x="600.0" y="193"/>
      <point x="575.0" y="193" type="curve" smooth="yes"/>
      <point x="299.0" y="193" type="line" smooth="yes"/>
      <point x="282.0" y="193"/>
      <point x="272.0" y="202"/>
      <point x="272.0" y="221" type="curve" smooth="yes"/>
      <point x="272.0" y="241"/>
      <point x="279.0" y="249"/>
      <point x="299.0" y="252" type="curve" smooth="yes"/>
      <point x="498.0" y="280" type="line" smooth="yes"/>
      <point x="523.0" y="283"/>
      <point x="535.0" y="295"/>
      <point x="531.0" y="321" type="curve" smooth="yes"/>
      <point x="510.0" y="453" type="line" smooth="yes"/>
      <point x="506.0" y="478"/>
      <point x="496.0" y="487"/>
      <point x="471.0" y="484" type="curve" smooth="yes"/>
    </contour>
  </outline>
</glyph>
<glyph name="AE" format="1">
  <advance width="1005"/>
  <unicode hex="00C6"/>
  <outline>
    <contour>
      <point x="334.0" y="514" type="line" smooth="yes"/>
      <point x="339.0" y="527"/>
      <point x="342.0" y="531"/>
      <point x="353.0" y="531" type="curve" smooth="yes"/>
      <point x="440.0" y="531" type="line"/>
      <point x="440.0" y="358" type="line"/>
      <point x="282.0" y="358" type="line"/>
    </contour>
    <contour>
      <point x="272.0" y="36" type="curve" smooth="yes"/>
      <point x="272.0" y="176" type="line"/>
      <point x="440.0" y="176" type="line"/>
      <point x="440.0" y="36" type="line"/>
      <point x="440.0" y="11"/>
      <point x="451.0" y="0"/>
      <point x="476.0" y="0" type="curve" smooth="yes"/>
      <point x="920.0" y="0" type="line" smooth="yes"/>
      <point x="945.0" y="0"/>
      <point x="956.0" y="11"/>
      <point x="956.0" y="36" type="curve" smooth="yes"/>
      <point x="956.0" y="153" type="line" smooth="yes"/>
      <point x="956.0" y="178"/>
      <point x="945.0" y="189"/>
      <point x="920.0" y="189" type="curve" smooth="yes"/>
      <point x="667.0" y="189" type="line"/>
      <point x="667.0" y="275" type="line"/>
      <point x="839.0" y="275" type="line" smooth="yes"/>
      <point x="864.0" y="275"/>
      <point x="875.0" y="286"/>
      <point x="875.0" y="311" type="curve" smooth="yes"/>
      <point x="875.0" y="418" type="line" smooth="yes"/>
      <point x="875.0" y="444"/>
      <point x="864.0" y="454"/>
      <point x="839.0" y="454" type="curve" smooth="yes"/>
      <point x="667.0" y="454" type="line"/>
      <point x="667.0" y="531" type="line"/>
      <point x="920.0" y="531" type="line" smooth="yes"/>
      <point x="945.0" y="531"/>
      <point x="956.0" y="542"/>
      <point x="956.0" y="567" type="curve" smooth="yes"/>
      <point x="956.0" y="684" type="line" smooth="yes"/>
      <point x="956.0" y="709"/>
      <point x="945.0" y="720"/>
      <point x="920.0" y="720" type="curve" smooth="yes"/>
      <point x="232.0" y="720" type="line" smooth="yes"/>
      <point x="198.0" y="720"/>
      <point x="181.0" y="710"/>
      <point x="170.0" y="679" type="curve" smooth="yes"/>
      <point x="83.0" y="440" type="line" smooth="yes"/>
      <point x="64.0" y="390"/>
      <point x="54.0" y="349"/>
      <point x="54.0" y="290" type="curve" smooth="yes"/>
      <point x="54.0" y="36" type="line" smooth="yes"/>
      <point x="54.0" y="11"/>
      <point x="65.0" y="0"/>
      <point x="90.0" y="0" type="curve" smooth="yes"/>
      <point x="236.0" y="0" type="line" smooth="yes"/>
      <point x="261.0" y="0"/>
      <point x="272.0" y="11"/>
    </contour>
  </outline>
</glyph>
<glyph name="Ccedilla" format="1">
  <advance width="628"/>
  <unicode hex="00C7"/>
  <outline>
    <contour>
      <point x="435" y="-96" type="curve" smooth="yes"/>
      <point x="469" y="0" type="line"/>
      <point x="548" y="0" type="line" smooth="yes"/>
      <point x="573" y="0"/>
      <point x="584" y="11"/>
      <point x="584" y="36" type="curve" smooth="yes"/>
      <point x="584" y="155" type="line" smooth="yes"/>
      <point x="584" y="180"/>
      <point x="573" y="191"/>
      <point x="548" y="191" type="curve" smooth="yes"/>
      <point x="347" y="191" type="line" smooth="yes"/>
      <point x="305" y="191"/>
      <point x="286" y="206"/>
      <point x="286" y="239" type="curve" smooth="yes"/>
      <point x="286" y="477" type="line" smooth="yes"/>
      <point x="286" y="511"/>
      <point x="305" y="527"/>
      <point x="347" y="527" type="curve" smooth="yes"/>
      <point x="548" y="527" type="line" smooth="yes"/>
      <point x="573" y="527"/>
      <point x="584" y="538"/>
      <point x="584" y="563" type="curve" smooth="yes"/>
      <point x="584" y="684" type="line" smooth="yes"/>
      <point x="584" y="709"/>
      <point x="573" y="720"/>
      <point x="548" y="720" type="curve" smooth="yes"/>
      <point x="304" y="720" type="line" smooth="yes"/>
      <point x="136" y="720"/>
      <point x="58" y="655"/>
      <point x="58" y="515" type="curve" smooth="yes"/>
      <point x="58" y="204" type="line" smooth="yes"/>
      <point x="58" y="76"/>
      <point x="124" y="11"/>
      <point x="265" y="1" type="curve"/>
      <point x="233" y="-86" type="line" smooth="yes"/>
      <point x="224" y="-110"/>
      <point x="229" y="-126"/>
      <point x="263" y="-126" type="curve" smooth="yes"/>
      <point x="389" y="-126" type="line"/>
      <point x="415" y="-126"/>
      <point x="428" y="-117"/>
    </contour>
  </outline>
</glyph>
<glyph name="Eth" format="1">
  <advance width="756"/>
  <unicode hex="00D0"/>
  <outline>
    <contour>
      <point x="452.0" y="0" type="line" smooth="yes"/>
      <point x="641.0" y="0"/>
      <point x="698.0" y="83"/>
      <point x="698.0" y="204" type="curve" smooth="yes"/>
      <point x="698.0" y="516" type="line" smooth="yes"/>
      <point x="698.0" y="637"/>
      <point x="641.0" y="720"/>
      <point x="452.0" y="720" type="curve" smooth="yes"/>
      <point x="115.0" y="720" type="line" smooth="yes"/>
      <point x="90.0" y="720"/>
      <point x="79.0" y="709"/>
      <point x="79.0" y="684" type="curve"/>
      <point x="79.0" y="444" type="line"/>
      <point x="56.0" y="444" type="line" smooth="yes"/>
      <point x="31.0" y="444"/>
      <point x="20.0" y="433"/>
      <point x="20.0" y="408" type="curve" smooth="yes"/>
      <point x="20.0" y="301" type="line" smooth="yes"/>
      <point x="20.0" y="275"/>
      <point x="31.0" y="265"/>
      <point x="56.0" y="265" type="curve"/>
      <point x="79.0" y="265" type="line"/>
      <point x="79.0" y="36" type="line"/>
      <point x="79.0" y="11"/>
      <point x="90.0" y="0"/>
      <point x="115.0" y="0" type="curve" smooth="yes"/>
    </contour>
    <contour>
      <point x="303.0" y="189" type="line"/>
      <point x="303.0" y="265" type="line"/>
      <point x="344.0" y="265" type="line" smooth="yes"/>
      <point x="369.0" y="265"/>
      <point x="380.0" y="275"/>
      <point x="380.0" y="301" type="curve" smooth="yes"/>
      <point x="380.0" y="408" type="line" smooth="yes"/>
      <point x="380.0" y="434"/>
      <point x="369.0" y="444"/>
      <point x="344.0" y="444" type="curve" smooth="yes"/>
      <point x="303.0" y="444" type="line"/>
      <point x="303.0" y="529" type="line"/>
      <point x="425.0" y="529" type="line" smooth="yes"/>
      <point x="465.0" y="529"/>
      <point x="472.0" y="507"/>
      <point x="472.0" y="481" type="curve" smooth="yes"/>
      <point x="472.0" y="238" type="line" smooth="yes"/>
      <point x="472.0" y="211"/>
      <point x="465.0" y="189"/>
      <point x="425.0" y="189" type="curve" smooth="yes"/>
    </contour>
  </outline>
</glyph>
<glyph name="Thorn" format="1">
  <advance width="692"/>
  <unicode hex="00DE"/>
  <outline>
    <contour>
      <point x="260.0" y="0" type="line" smooth="yes"/>
      <point x="285.0" y="0"/>
      <point x="296.0" y="11"/>
      <point x="296.0" y="36" type="curve" smooth="yes"/>
      <point x="296.0" y="102" type="line"/>
      <point x="411.0" y="102" type="line" smooth="yes"/>
      <point x="593.0" y="102"/>
      <point x="647.0" y="181"/>
      <point x="647.0" y="297" type="curve" smooth="yes"/>
      <point x="647.0" y="425" type="line" smooth="yes"/>
      <point x="647.0" y="541"/>
      <point x="593.0" y="620"/>
      <point x="411.0" y="620" type="curve" smooth="yes"/>
      <point x="296.0" y="620" type="line"/>
      <point x="296.0" y="684" type="line" smooth="yes"/>
      <point x="296.0" y="709"/>
      <point x="285.0" y="720"/>
      <point x="260.0" y="720" type="curve" smooth="yes"/>
      <point x="105.0" y="720" type="line" smooth="yes"/>
      <point x="80.0" y="720"/>
      <point x="69.0" y="709"/>
      <point x="69.0" y="684" type="curve" smooth="yes"/>
      <point x="69.0" y="36" type="line" smooth="yes"/>
      <point x="69.0" y="11"/>
      <point x="80.0" y="0"/>
      <point x="105.0" y="0" type="curve" smooth="yes"/>
    </contour>
    <contour>
      <point x="294.0" y="433" type="line"/>
      <point x="384.0" y="433" type="line" smooth="yes"/>
      <point x="423.0" y="433"/>
      <point x="431.0" y="410"/>
      <point x="431.0" y="384" type="curve" smooth="yes"/>
      <point x="431.0" y="331" type="line" smooth="yes"/>
      <point x="431.0" y="305"/>
      <point x="423.0" y="282"/>
      <point x="384.0" y="282" type="curve" smooth="yes"/>
      <point x="294.0" y="282" type="line"/>
    </contour>
  </outline>
</glyph>
<glyph name="Aogonek" format="1">
  <advance width="730"/>
  <unicode hex="0104"/>
  <outline>
    <contour>
      <point x="330" y="510" type="line"/>
      <point x="335" y="522"/>
      <point x="341" y="527"/>
      <point x="349" y="527" type="curve" smooth="yes"/>
      <point x="374" y="527" type="line" smooth="yes"/>
      <point x="382" y="527"/>
      <point x="388" y="522"/>
      <point x="393" y="510" type="curve"/>
      <point x="440" y="358" type="line"/>
      <point x="283" y="358" type="line"/>
    </contour>
    <contour>
      <point x="676" y="-152" type="curve" smooth="yes"/>
      <point x="676" y="-80" type="line" smooth="yes"/>
      <point x="676" y="-54"/>
      <point x="668" y="-46"/>
      <point x="640" y="-46" type="curve" smooth="yes"/>
      <point x="599" y="-46" type="line"/>
      <point x="606" y="0" type="line"/>
      <point x="640" y="0" type="line" smooth="yes"/>
      <point x="665" y="0"/>
      <point x="676" y="11"/>
      <point x="676" y="36" type="curve" smooth="yes"/>
      <point x="676" y="300" type="line" smooth="yes"/>
      <point x="676" y="340"/>
      <point x="664" y="390"/>
      <point x="637" y="460" type="curve" smooth="yes"/>
      <point x="550" y="687" type="line" smooth="yes"/>
      <point x="542" y="710"/>
      <point x="526" y="720"/>
      <point x="500" y="720" type="curve" smooth="yes"/>
      <point x="231" y="720" type="line" smooth="yes"/>
      <point x="204" y="720"/>
      <point x="188" y="710"/>
      <point x="180" y="687" type="curve" smooth="yes"/>
      <point x="93" y="460" type="line" smooth="yes"/>
      <point x="66" y="390"/>
      <point x="54" y="340"/>
      <point x="54" y="300" type="curve" smooth="yes"/>
      <point x="54" y="36" type="line" smooth="yes"/>
      <point x="54" y="11"/>
      <point x="65" y="0"/>
      <point x="90" y="0" type="curve" smooth="yes"/>
      <point x="237" y="0" type="line" smooth="yes"/>
      <point x="262" y="0"/>
      <point x="273" y="11"/>
      <point x="273" y="36" type="curve" smooth="yes"/>
      <point x="273" y="176" type="line"/>
      <point x="450" y="176" type="line"/>
      <point x="450" y="56" type="line"/>
      <point x="431" y="-51" type="line" smooth="yes"/>
      <point x="417" y="-144"/>
      <point x="446" y="-186"/>
      <point x="532" y="-186" type="curve" smooth="yes"/>
      <point x="643" y="-186" type="line" smooth="yes"/>
      <point x="669" y="-186"/>
      <point x="676" y="-178"/>
    </contour>
  </outline>
</glyph>
<glyph name="Eogonek" format="1">
  <advance width="654"/>
  <unicode hex="0118"/>
  <outline>
    <contour>
      <point x="605" y="-152" type="curve" smooth="yes"/>
      <point x="605" y="-80" type="line" smooth="yes"/>
      <point x="605" y="-54"/>
      <point x="597" y="-46"/>
      <point x="569" y="-46" type="curve" smooth="yes"/>
      <point x="528" y="-46" type="line"/>
      <point x="535" y="0" type="line"/>
      <point x="569" y="0" type="line" smooth="yes"/>
      <point x="594" y="0"/>
      <point x="605" y="11"/>
      <point x="605" y="36" type="curve" smooth="yes"/>
      <point x="605" y="153" type="line" smooth="yes"/>
      <point x="605" y="178"/>
      <point x="594" y="189"/>
      <point x="569" y="189" type="curve" smooth="yes"/>
      <point x="293" y="189" type="line"/>
      <point x="293" y="275" type="line"/>
      <point x="488" y="275" type="line" smooth="yes"/>
      <point x="513" y="275"/>
      <point x="524" y="286"/>
      <point x="524" y="311" type="curve" smooth="yes"/>
      <point x="524" y="418" type="line" smooth="yes"/>
      <point x="524" y="443"/>
      <point x="513" y="454"/>
      <point x="488" y="454" type="curve" smooth="yes"/>
      <point x="293" y="454" type="line"/>
      <point x="293" y="531" type="line"/>
      <point x="569" y="531" type="line" smooth="yes"/>
      <point x="594" y="531"/>
      <point x="605" y="542"/>
      <point x="605" y="567" type="curve" smooth="yes"/>
      <point x="605" y="684" type="line" smooth="yes"/>
      <point x="605" y="709"/>
      <point x="594" y="720"/>
      <point x="569" y="720" type="curve" smooth="yes"/>
      <point x="105" y="720" type="line" smooth="yes"/>
      <point x="80" y="720"/>
      <point x="69" y="709"/>
      <point x="69" y="684" type="curve" smooth="yes"/>
      <point x="69" y="36" type="line" smooth="yes"/>
      <point x="69" y="11"/>
      <point x="80" y="0"/>
      <point x="105" y="0" type="curve" smooth="yes"/>
      <point x="369" y="0" type="line"/>
      <point x="360" y="-51" type="line" smooth="yes"/>
      <point x="346" y="-144"/>
      <point x="375" y="-186"/>
      <point x="461" y="-186" type="curve" smooth="yes"/>
      <point x="572" y="-186" type="line" smooth="yes"/>
      <point x="598" y="-186"/>
      <point x="605" y="-178"/>
    </contour>
  </outline>
</glyph>
<glyph name="Lslash" format="1">
  <advance width="705"/>
  <unicode hex="0141"/>
  <outline>
    <contour>
      <point x="624" y="0" type="line" smooth="yes"/>
      <point x="649" y="0"/>
      <point x="660" y="11"/>
      <point x="660" y="36" type="curve" smooth="yes"/>
      <point x="660" y="351" type="line" smooth="yes"/>
      <point x="660" y="376"/>
      <point x="649" y="387"/>
      <point x="624" y="387" type="curve" smooth="yes"/>
      <point x="479" y="387" type="line" smooth="yes"/>
      <point x="454" y="387"/>
      <point x="443" y="376"/>
      <point x="443" y="351" type="curve" smooth="yes"/>
      <point x="443" y="189" type="line"/>
      <point x="306" y="189" type="line"/>
      <point x="306" y="326" type="line"/>
      <point x="364" y="335" type="line" smooth="yes"/>
      <point x="389" y="339"/>
      <point x="400" y="345"/>
      <point x="400" y="371" type="curve" smooth="yes"/>
      <point x="400" y="478" type="line" smooth="yes"/>
      <point x="400" y="504"/>
      <point x="389" y="518"/>
      <point x="364" y="514" type="curve" smooth="yes"/>
      <point x="306" y="505" type="line"/>
      <point x="306" y="684" type="line" smooth="yes"/>
      <point x="306" y="709"/>
      <point x="295" y="720"/>
      <point x="270" y="720" type="curve" smooth="yes"/>
      <point x="115" y="720" type="line" smooth="yes"/>
      <point x="90" y="720"/>
      <point x="79" y="709"/>
      <point x="79" y="684" type="curve" smooth="yes"/>
      <point x="79" y="468" type="line"/>
      <point x="56" y="464" type="line" smooth="yes"/>
      <point x="31" y="460"/>
      <point x="20" y="453"/>
      <point x="20" y="428" type="curve" smooth="yes"/>
      <point x="20" y="321" type="line" smooth="yes"/>
      <point x="20" y="295"/>
      <point x="31" y="281"/>
      <point x="56" y="285" type="curve" smooth="yes"/>
      <point x="79" y="289" type="line"/>
      <point x="79" y="36" type="line" smooth="yes"/>
      <point x="79" y="11"/>
      <point x="90" y="0"/>
      <point x="115" y="0" type="curve" smooth="yes"/>
    </contour>
  </outline>
</glyph>
<glyph name="OE" format="1">
  <advance width="1015"/>
  <unicode hex="0152"/>
  <outline>
    <contour>
      <point x="440" y="189" type="line"/>
      <point x="331" y="189" type="line" smooth="yes"/>
      <point x="291" y="189"/>
      <point x="284" y="211"/>
      <point x="284" y="238" type="curve" smooth="yes"/>
      <point x="284" y="481" type="line" smooth="yes"/>
      <point x="284" y="507"/>
      <point x="291" y="529"/>
      <point x="331" y="529" type="curve" smooth="yes"/>
      <point x="440" y="529" type="line"/>
    </contour>
    <contour>
      <point x="304.0" y="0" type="curve" smooth="yes"/>
      <point x="930.0" y="0" type="line" smooth="yes"/>
      <point x="955.0" y="0"/>
      <point x="966.0" y="11"/>
      <point x="966.0" y="36" type="curve" smooth="yes"/>
      <point x="966.0" y="153" type="line" smooth="yes"/>
      <point x="966.0" y="178"/>
      <point x="955.0" y="189"/>
      <point x="930.0" y="189" type="curve" smooth="yes"/>
      <point x="667.0" y="189" type="line"/>
      <point x="667.0" y="275" type="line"/>
      <point x="849.0" y="275" type="line" smooth="yes"/>
      <point x="874.0" y="275"/>
      <point x="885.0" y="286"/>
      <point x="885.0" y="311" type="curve" smooth="yes"/>
      <point x="885.0" y="418" type="line" smooth="yes"/>
      <point x="885.0" y="444"/>
      <point x="874.0" y="454"/>
      <point x="849.0" y="454" type="curve" smooth="yes"/>
      <point x="667.0" y="454" type="line"/>
      <point x="667.0" y="531" type="line"/>
      <point x="930.0" y="531" type="line" smooth="yes"/>
      <point x="955.0" y="531"/>
      <point x="966.0" y="542"/>
      <point x="966.0" y="567" type="curve" smooth="yes"/>
      <point x="966.0" y="684" type="line" smooth="yes"/>
      <point x="966.0" y="709"/>
      <point x="955.0" y="720"/>
      <point x="930.0" y="720" type="curve" smooth="yes"/>
      <point x="304.0" y="720" type="line" smooth="yes"/>
      <point x="115.0" y="720"/>
      <point x="58.0" y="637"/>
      <point x="58.0" y="516" type="curve" smooth="yes"/>
      <point x="58.0" y="204" type="line" smooth="yes"/>
      <point x="58.0" y="83"/>
      <point x="115.0" y="0"/>
    </contour>
  </outline>
</glyph>
<glyph name="Tbar" format="1">
  <advance width="656"/>
  <unicode hex="0166"/>
  <outline>
    <contour>
      <point x="445" y="36" type="curve" smooth="yes"/>
      <point x="445" y="222" type="line"/>
      <point x="521" y="222" type="line" smooth="yes"/>
      <point x="546" y="222"/>
      <point x="557" y="233"/>
      <point x="557" y="258" type="curve" smooth="yes"/>
      <point x="557" y="365" type="line" smooth="yes"/>
      <point x="557" y="390"/>
      <point x="546" y="401"/>
      <point x="521" y="401" type="curve" smooth="yes"/>
      <point x="445" y="401" type="line"/>
      <point x="445" y="527" type="line"/>
      <point x="592" y="527" type="line" smooth="yes"/>
      <point x="617" y="527"/>
      <point x="628" y="538"/>
      <point x="628" y="563" type="curve" smooth="yes"/>
      <point x="628" y="684" type="line" smooth="yes"/>
      <point x="628" y="709"/>
      <point x="617" y="720"/>
      <point x="592" y="720" type="curve" smooth="yes"/>
      <point x="64" y="720" type="line" smooth="yes"/>
      <point x="39" y="720"/>
      <point x="28" y="709"/>
      <point x="28" y="684" type="curve" smooth="yes"/>
      <point x="28" y="563" type="line" smooth="yes"/>
      <point x="28" y="538"/>
      <point x="39" y="527"/>
      <point x="64" y="527" type="curve" smooth="yes"/>
      <point x="211" y="527" type="line"/>
      <point x="211" y="401" type="line"/>
      <point x="134" y="401" type="line" smooth="yes"/>
      <point x="109" y="401"/>
      <point x="98" y="390"/>
      <point x="98" y="365" type="curve" smooth="yes"/>
      <point x="98" y="258" type="line" smooth="yes"/>
      <point x="98" y="233"/>
      <point x="109" y="222"/>
      <point x="134" y="222" type="curve" smooth="yes"/>
      <point x="211" y="222" type="line"/>
      <point x="211" y="36" type="line" smooth="yes"/>
      <point x="211" y="11"/>
      <point x="222" y="0"/>
      <point x="247" y="0" type="curve" smooth="yes"/>
      <point x="409" y="0" type="line" smooth="yes"/>
      <point x="434" y="0"/>
      <point x="445" y="11"/>
    </contour>
  </outline>
</glyph>
<glyph name="Uhorn" format="1">
  <advance width="756"/>
  <unicode hex="01AF"/>
  <outline>
    <contour>
      <point x="373" y="-15" type="curve" smooth="yes"/>
      <point x="621" y="-15"/>
      <point x="682" y="67"/>
      <point x="682" y="189" type="curve" smooth="yes"/>
      <point x="682" y="605" type="line"/>
      <point x="731" y="630"/>
      <point x="746" y="670"/>
      <point x="746" y="721" type="curve"/>
      <point x="746" y="765" type="line" smooth="yes"/>
      <point x="746" y="790"/>
      <point x="735" y="801"/>
      <point x="710" y="801" type="curve"/>
      <point x="599" y="801" type="line" smooth="yes"/>
      <point x="576" y="801"/>
      <point x="569" y="794"/>
      <point x="569" y="770" type="curve" smooth="yes"/>
      <point x="569" y="749" type="line" smooth="yes"/>
      <point x="569" y="730"/>
      <point x="562" y="720"/>
      <point x="529" y="720" type="curve"/>
      <point x="494" y="720" type="line" smooth="yes"/>
      <point x="468" y="720"/>
      <point x="458" y="709"/>
      <point x="458" y="684" type="curve" smooth="yes"/>
      <point x="458" y="228" type="line" smooth="yes"/>
      <point x="458" y="201"/>
      <point x="446" y="181"/>
      <point x="375" y="181" type="curve" smooth="yes"/>
      <point x="305" y="181"/>
      <point x="293" y="201"/>
      <point x="293" y="228" type="curve" smooth="yes"/>
      <point x="293" y="684" type="line" smooth="yes"/>
      <point x="293" y="709"/>
      <point x="282" y="720"/>
      <point x="257" y="720" type="curve" smooth="yes"/>
      <point x="100" y="720" type="line" smooth="yes"/>
      <point x="75" y="720"/>
      <point x="64" y="709"/>
      <point x="64" y="684" type="curve" smooth="yes"/>
      <point x="64" y="189" type="line" smooth="yes"/>
      <point x="64" y="67"/>
      <point x="125" y="-15"/>
    </contour>
  </outline>
</glyph>
<glyph name="gscript" format="1">
  <advance width="715"/>
  <unicode hex="0261"/>
  <outline>
    <contour>
      <point x="50.0" y="530" type="curve"/>
      <point x="50.0" y="414" type="line" smooth="yes"/>
      <point x="50.0" y="275"/>
      <point x="126.0" y="210"/>
      <point x="294.0" y="210" type="curve" smooth="yes"/>
      <point x="439.0" y="210" type="line"/>
      <point x="439.0" y="176" type="line" smooth="yes"/>
      <point x="439.0" y="148"/>
      <point x="430.0" y="128"/>
      <point x="378.0" y="128" type="curve" smooth="yes"/>
      <point x="167.0" y="128" type="line" smooth="yes"/>
      <point x="142.0" y="128"/>
      <point x="131.0" y="117"/>
      <point x="131.0" y="92" type="curve" smooth="yes"/>
      <point x="131.0" y="-25" type="line" smooth="yes"/>
      <point x="131.0" y="-50"/>
      <point x="142.0" y="-61"/>
      <point x="167.0" y="-61" type="curve" smooth="yes"/>
      <point x="421.0" y="-61" type="line" smooth="yes"/>
      <point x="610.0" y="-61"/>
      <point x="667.0" y="22"/>
      <point x="667.0" y="143" type="curve" smooth="yes"/>
      <point x="667.0" y="530" type="line"/>
      <point x="667.0" y="652"/>
      <point x="607.0" y="735"/>
      <point x="358.0" y="735" type="curve" smooth="yes"/>
      <point x="111.0" y="735"/>
      <point x="50.0" y="652"/>
    </contour>
    <contour>
      <point x="440.0" y="496" type="curve"/>
      <point x="440.0" y="399" type="line"/>
      <point x="323.0" y="399" type="line" smooth="yes"/>
      <point x="291.0" y="399"/>
      <point x="276.0" y="414"/>
      <point x="276.0" y="448" type="curve" smooth="yes"/>
      <point x="276.0" y="494" type="line"/>
      <point x="276.0" y="520"/>
      <point x="288.0" y="540"/>
      <point x="358.0" y="540" type="curve" smooth="yes"/>
      <point x="431.0" y="540"/>
      <point x="440.0" y="522"/>
    </contour>
  </outline>
</glyph>
<glyph name="commaturnedmod" format="1">
  <advance width="500"/>
  <unicode hex="02BB"/>
  <outline>
    <contour>
      <point x="259.0" y="720" type="line" smooth="yes"/>
      <point x="183.0" y="720"/>
      <point x="134.0" y="678"/>
      <point x="134.0" y="592" type="curve" smooth="yes"/>
      <point x="134.0" y="440" type="line" smooth="yes"/>
      <point x="134.0" y="410"/>
      <point x="143.0" y="401"/>
      <point x="171.0" y="401" type="curve" smooth="yes"/>
      <point x="329.0" y="401" type="line" smooth="yes"/>
      <point x="357.0" y="401"/>
      <point x="366.0" y="410"/>
      <point x="366.0" y="440" type="curve" smooth="yes"/>
      <point x="366.0" y="549" type="line" smooth="yes"/>
      <point x="366.0" y="579"/>
      <point x="357.0" y="588"/>
      <point x="329.0" y="588" type="curve"/>
      <point x="243.0" y="588" type="line"/>
      <point x="243.0" y="601" type="line" smooth="yes"/>
      <point x="243.0" y="616"/>
      <point x="251.0" y="625"/>
      <point x="266.0" y="625" type="curve" smooth="yes"/>
      <point x="325.0" y="625" type="line" smooth="yes"/>
      <point x="346.0" y="625"/>
      <point x="355.0" y="634"/>
      <point x="355.0" y="655" type="curve" smooth="yes"/>
      <point x="355.0" y="689" type="line" smooth="yes"/>
      <point x="355.0" y="711"/>
      <point x="346.0" y="720"/>
      <point x="325.0" y="720" type="curve" smooth="yes"/>
    </contour>
  </outline>
</glyph>
<glyph name="ringhalfleft" format="1">
  <advance width="312"/>
  <unicode hex="02BF"/>
  <outline>
    <contour>
      <point x="257.0" y="383" type="line" smooth="yes"/>
      <point x="273.0" y="383"/>
      <point x="279.0" y="389"/>
      <point x="279.0" y="405" type="curve" smooth="yes"/>
      <point x="279.0" y="480" type="line" smooth="yes"/>
      <point x="279.0" y="496"/>
      <point x="273.0" y="502"/>
      <point x="257.0" y="502" type="curve" smooth="yes"/>
      <point x="208.0" y="502" type="line" smooth="yes"/>
      <point x="189.0" y="502"/>
      <point x="180.0" y="509"/>
      <point x="180.0" y="525" type="curve" smooth="yes"/>
      <point x="180.0" y="576" type="line" smooth="yes"/>
      <point x="180.0" y="592"/>
      <point x="189.0" y="599"/>
      <point x="208.0" y="599" type="curve" smooth="yes"/>
      <point x="257.0" y="599" type="line" smooth="yes"/>
      <point x="273.0" y="599"/>
      <point x="279.0" y="607"/>
      <point x="279.0" y="621" type="curve" smooth="yes"/>
      <point x="279.0" y="698" type="line" smooth="yes"/>
      <point x="279.0" y="712"/>
      <point x="273.0" y="720"/>
      <point x="257.0" y="720" type="curve" smooth="yes"/>
      <point x="148.0" y="720" type="line" smooth="yes"/>
      <point x="70.0" y="720"/>
      <point x="33.0" y="689"/>
      <point x="33.0" y="624" type="curve" smooth="yes"/>
      <point x="33.0" y="478" type="line" smooth="yes"/>
      <point x="33.0" y="413"/>
      <point x="70.0" y="383"/>
      <point x="148.0" y="383" type="curve" smooth="yes"/>
    </contour>
  </outline>
</glyph>
<glyph name="ring" format="1">
  <advance width="500"/>
  <unicode hex="02DA"/>
  <outline>
    <contour>
      <point x="467.0" y="995" type="line" smooth="yes"/>
      <point x="467.0" y="1080"/>
      <point x="424.0" y="1138"/>
      <point x="250.0" y="1138" type="curve" smooth="yes"/>
      <point x="76.0" y="1138"/>
      <point x="33.0" y="1080"/>
      <point x="33.0" y="995" type="curve" smooth="yes"/>
      <point x="33.0" y="897" type="line" smooth="yes"/>
      <point x="33.0" y="812"/>
      <point x="76.0" y="754"/>
      <point x="250.0" y="754" type="curve" smooth="yes"/>
      <point x="424.0" y="754"/>
      <point x="467.0" y="812"/>
      <point x="467.0" y="897" type="curve" smooth="yes"/>
    </contour>
    <contour>
      <point x="310.0" y="930" type="line" smooth="yes"/>
      <point x="310.0" y="901"/>
      <point x="301.0" y="887"/>
      <point x="251.0" y="887" type="curve" smooth="yes"/>
      <point x="202.0" y="887"/>
      <point x="194.0" y="901"/>
      <point x="194.0" y="930" type="curve" smooth="yes"/>
      <point x="194.0" y="965" type="line" smooth="yes"/>
      <point x="194.0" y="991"/>
      <point x="202.0" y="1005"/>
      <point x="251.0" y="1005" type="curve" smooth="yes"/>
      <point x="301.0" y="1005"/>
      <point x="310.0" y="991"/>
      <point x="310.0" y="965" type="curve" smooth="yes"/>
    </contour>
    <contour>
      <point x="250.0" y="747.0" type="move" name="_top"/>
    </contour>
    <contour>
      <point x="250.0" y="0.0" type="move" name="_bottom"/>
    </contour>
  </outline>
</glyph>
<glyph name="tilde" format="1">
  <advance width="500"/>
  <unicode hex="02DC"/>
  <outline>
    <contour>
      <point x="249.0" y="764" type="line"/>
      <point x="265.0" y="762" type="line" smooth="yes"/>
      <point x="345.0" y="750"/>
      <point x="359.0" y="748"/>
      <point x="422.0" y="767" type="curve"/>
      <point x="445.0" y="776"/>
      <point x="458.0" y="783"/>
      <point x="458.0" y="808" type="curve" smooth="yes"/>
      <point x="458.0" y="909" type="line" smooth="yes"/>
      <point x="458.0" y="934"/>
      <point x="446.0" y="942"/>
      <point x="422.0" y="935" type="curve" smooth="yes"/>
      <point x="363.0" y="917"/>
      <point x="359.0" y="914"/>
      <point x="271.0" y="927" type="curve" smooth="yes"/>
      <point x="249.0" y="930" type="line"/>
      <point x="232.0" y="932" type="line" smooth="yes"/>
      <point x="152.0" y="944"/>
      <point x="139.0" y="946"/>
      <point x="76.0" y="927" type="curve"/>
      <point x="53.0" y="918"/>
      <point x="40.0" y="911"/>
      <point x="40.0" y="886" type="curve" smooth="yes"/>
      <point x="40.0" y="785" type="line" smooth="yes"/>
      <point x="40.0" y="760"/>
      <point x="52.0" y="752"/>
      <point x="76.0" y="759" type="curve" smooth="yes"/>
      <point x="129.0" y="775"/>
      <point x="145.0" y="779"/>
      <point x="221.0" y="768" type="curve" smooth="yes"/>
    </contour>
    <contour>
      <point x="250.0" y="747.0" type="move" name="_top"/>
    </contour>
    <contour>
      <point x="250.0" y="0.0" type="move" name="_bottom"/>
    </contour>
  </outline>
</glyph>
<glyph name="guilsinglleft" format="1">
  <advance width="563"/>
  <unicode hex="2039"/>
  <outline>
    <contour>
      <point x="447.0" y="104" type="line" smooth="yes"/>
      <point x="472.0" y="99"/>
      <point x="483.0" y="109"/>
      <point x="483.0" y="135" type="curve" smooth="yes"/>
      <point x="483.0" y="262" type="line" smooth="yes"/>
      <point x="483.0" y="288"/>
      <point x="472.0" y="299"/>
      <point x="447.0" y="303" type="curve" smooth="yes"/>
      <point x="281.0" y="330" type="line" smooth="yes"/>
      <point x="267.0" y="332"/>
      <point x="264.0" y="337"/>
      <point x="264.0" y="349" type="curve" smooth="yes"/>
      <point x="264.0" y="361"/>
      <point x="267.0" y="366"/>
      <point x="281.0" y="368" type="curve" smooth="yes"/>
      <point x="447.0" y="395" type="line" smooth="yes"/>
      <point x="472.0" y="399"/>
      <point x="483.0" y="410"/>
      <point x="483.0" y="436" type="curve" smooth="yes"/>
      <point x="483.0" y="563" type="line" smooth="yes"/>
      <point x="483.0" y="589"/>
      <point x="472.0" y="599"/>
      <point x="447.0" y="594" type="curve" smooth="yes"/>
      <point x="187.0" y="541" type="line" smooth="yes"/>
      <point x="102.0" y="524"/>
      <point x="60.0" y="485"/>
      <point x="60.0" y="386" type="curve" smooth="yes"/>
      <point x="60.0" y="312" type="line" smooth="yes"/>
      <point x="60.0" y="213"/>
      <point x="102.0" y="174"/>
      <point x="187.0" y="157" type="curve" smooth="yes"/>
    </contour>
  </outline>
</glyph>
<glyph name="guilsinglright" format="1">
  <advance width="563"/>
  <unicode hex="203A"/>
  <outline>
    <contour>
      <point x="376.0" y="157" type="line"/>
      <point x="461.0" y="174"/>
      <point x="503.0" y="213"/>
      <point x="503.0" y="312" type="curve" smooth="yes"/>
      <point x="503.0" y="386" type="line" smooth="yes"/>
      <point x="503.0" y="485"/>
      <point x="461.0" y="524"/>
      <point x="376.0" y="541" type="curve" smooth="yes"/>
      <point x="116.0" y="594" type="line" smooth="yes"/>
      <point x="91.0" y="599"/>
      <point x="80.0" y="589"/>
      <point x="80.0" y="563" type="curve" smooth="yes"/>
      <point x="80.0" y="436" type="line" smooth="yes"/>
      <point x="80.0" y="410"/>
      <point x="91.0" y="399"/>
      <point x="116.0" y="395" type="curve" smooth="yes"/>
      <point x="282.0" y="368" type="line" smooth="yes"/>
      <point x="296.0" y="366"/>
      <point x="299.0" y="361"/>
      <point x="299.0" y="349" type="curve" smooth="yes"/>
      <point x="299.0" y="337"/>
      <point x="296.0" y="332"/>
      <point x="282.0" y="330" type="curve" smooth="yes"/>
      <point x="116.0" y="303" type="line" smooth="yes"/>
      <point x="91.0" y="299"/>
      <point x="80.0" y="288"/>
      <point x="80.0" y="262" type="curve" smooth="yes"/>
      <point x="80.0" y="135" type="line" smooth="yes"/>
      <point x="80.0" y="109"/>
      <point x="91.0" y="99"/>
      <point x="116.0" y="104" type="curve" smooth="yes"/>
    </contour>
  </outline>
</glyph>
<glyph name="six.sups" format="1">
  <advance width="528"/>
  <unicode hex="2076"/>
  <outline>
    <contour>
      <point x="274.0" y="191" type="curve" smooth="yes"/>
      <point x="439.0" y="191"/>
      <point x="481.0" y="249"/>
      <point x="481.0" y="337" type="curve" smooth="yes"/>
      <point x="481.0" y="406" type="line" smooth="yes"/>
      <point x="481.0" y="491"/>
      <point x="442.0" y="535"/>
      <point x="312.0" y="535" type="curve" smooth="yes"/>
      <point x="273.0" y="535"/>
      <point x="243.0" y="531"/>
      <point x="220.0" y="524" type="curve"/>
      <point x="220.0" y="540" type="line" smooth="yes"/>
      <point x="220.0" y="576"/>
      <point x="231.0" y="584"/>
      <point x="266.0" y="584" type="curve" smooth="yes"/>
      <point x="400.0" y="584" type="line" smooth="yes"/>
      <point x="418.0" y="584"/>
      <point x="426.0" y="592"/>
      <point x="426.0" y="610" type="curve" smooth="yes"/>
      <point x="426.0" y="694" type="line" smooth="yes"/>
      <point x="426.0" y="712"/>
      <point x="419.0" y="720"/>
      <point x="400.0" y="720" type="curve" smooth="yes"/>
      <point x="235.0" y="720" type="line" smooth="yes"/>
      <point x="99.0" y="720"/>
      <point x="58.0" y="661"/>
      <point x="58.0" y="573" type="curve" smooth="yes"/>
      <point x="58.0" y="337" type="line" smooth="yes"/>
      <point x="58.0" y="249"/>
      <point x="97.0" y="191"/>
    </contour>
    <contour>
      <point x="220.0" y="391" type="line" smooth="yes"/>
      <point x="220.0" y="405"/>
      <point x="227.0" y="417"/>
      <point x="269.0" y="417" type="curve" smooth="yes"/>
      <point x="312.0" y="417"/>
      <point x="318.0" y="405"/>
      <point x="318.0" y="391" type="curve" smooth="yes"/>
      <point x="318.0" y="348" type="line" smooth="yes"/>
      <point x="318.0" y="333"/>
      <point x="312.0" y="322"/>
      <point x="269.0" y="322" type="curve" smooth="yes"/>
      <point x="227.0" y="322"/>
      <point x="220.0" y="333"/>
      <point x="220.0" y="348" type="curve" smooth="yes"/>
    </contour>
  </outline>
</glyph>
<glyph name="seven.sups" format="1">
  <advance width="477.0"/>
  <unicode hex="2077"/>
  <outline>
    <contour>
      <point x="399.0" y="720" type="curve"/>
      <point x="64.0" y="720" type="line" smooth="yes"/>
      <point x="46.0" y="720"/>
      <point x="38.0" y="712"/>
      <point x="38.0" y="694" type="curve" smooth="yes"/>
      <point x="38.0" y="607" type="line" smooth="yes"/>
      <point x="38.0" y="589"/>
      <point x="46.0" y="581"/>
      <point x="64.0" y="581" type="curve" smooth="yes"/>
      <point x="262.0" y="581" type="line"/>
      <point x="262.0" y="517" type="line"/>
      <point x="203.0" y="501" type="line" smooth="yes"/>
      <point x="126.0" y="478"/>
      <point x="91.0" y="450"/>
      <point x="91.0" y="358" type="curve" smooth="yes"/>
      <point x="91.0" y="228" type="line" smooth="yes"/>
      <point x="91.0" y="210"/>
      <point x="99.0" y="202"/>
      <point x="117.0" y="202" type="curve" smooth="yes"/>
      <point x="233.0" y="202" type="line" smooth="yes"/>
      <point x="251.0" y="202"/>
      <point x="259.0" y="210"/>
      <point x="259.0" y="228" type="curve" smooth="yes"/>
      <point x="259.0" y="354" type="line"/>
      <point x="313.0" y="370" type="line" smooth="yes"/>
      <point x="390.0" y="393"/>
      <point x="425.0" y="421"/>
      <point x="425.0" y="512" type="curve" smooth="yes"/>
      <point x="425.0" y="694" type="line" smooth="yes"/>
      <point x="425.0" y="712"/>
      <point x="417.0" y="720"/>
    </contour>
  </outline>
</glyph>
<glyph name="lira" format="1">
  <advance width="695"/>
  <unicode hex="20A4"/>
  <outline>
    <contour>
      <point x="650.0" y="36" type="curve" smooth="yes"/>
      <point x="650.0" y="291" type="line" smooth="yes"/>
      <point x="650.0" y="316"/>
      <point x="639.0" y="327"/>
      <point x="614.0" y="327" type="curve" smooth="yes"/>
      <point x="469.0" y="327" type="line" smooth="yes"/>
      <point x="444.0" y="327"/>
      <point x="433.0" y="316"/>
      <point x="433.0" y="291" type="curve" smooth="yes"/>
      <point x="433.0" y="189" type="line"/>
      <point x="296.0" y="189" type="line"/>
      <point x="296.0" y="235" type="line"/>
      <point x="344.0" y="235" type="line" smooth="yes"/>
      <point x="369.0" y="235"/>
      <point x="380.0" y="245"/>
      <point x="380.0" y="271" type="curve" smooth="yes"/>
      <point x="380.0" y="298" type="line" smooth="yes"/>
      <point x="380.0" y="324"/>
      <point x="369.0" y="334"/>
      <point x="344.0" y="334" type="curve" smooth="yes"/>
      <point x="296.0" y="334" type="line"/>
      <point x="296.0" y="375" type="line"/>
      <point x="344.0" y="375" type="line" smooth="yes"/>
      <point x="369.0" y="375"/>
      <point x="380.0" y="385"/>
      <point x="380.0" y="411" type="curve" smooth="yes"/>
      <point x="380.0" y="438" type="line" smooth="yes"/>
      <point x="380.0" y="464"/>
      <point x="369.0" y="474"/>
      <point x="344.0" y="474" type="curve" smooth="yes"/>
      <point x="296.0" y="474" type="line"/>
      <point x="296.0" y="477" type="line" smooth="yes"/>
      <point x="296.0" y="503"/>
      <point x="305.0" y="527"/>
      <point x="357.0" y="527" type="curve" smooth="yes"/>
      <point x="505.0" y="527" type="line" smooth="yes"/>
      <point x="530.0" y="527"/>
      <point x="541.0" y="538"/>
      <point x="541.0" y="563" type="curve" smooth="yes"/>
      <point x="541.0" y="684" type="line" smooth="yes"/>
      <point x="541.0" y="709"/>
      <point x="530.0" y="720"/>
      <point x="505.0" y="720" type="curve" smooth="yes"/>
      <point x="315.0" y="720" type="line" smooth="yes"/>
      <point x="126.0" y="720"/>
      <point x="69.0" y="637"/>
      <point x="69.0" y="516" type="curve"/>
      <point x="69.0" y="474" type="line"/>
      <point x="56.0" y="474" type="line" smooth="yes"/>
      <point x="31.0" y="474"/>
      <point x="20.0" y="463"/>
      <point x="20.0" y="438" type="curve" smooth="yes"/>
      <point x="20.0" y="411" type="line" smooth="yes"/>
      <point x="20.0" y="385"/>
      <point x="31.0" y="375"/>
      <point x="56.0" y="375" type="curve"/>
      <point x="69.0" y="375" type="line"/>
      <point x="69.0" y="334" type="line"/>
      <point x="56.0" y="334" type="line" smooth="yes"/>
      <point x="31.0" y="334"/>
      <point x="20.0" y="323"/>
      <point x="20.0" y="298" type="curve" smooth="yes"/>
      <point x="20.0" y="271" type="line" smooth="yes"/>
      <point x="20.0" y="245"/>
      <point x="31.0" y="235"/>
      <point x="56.0" y="235" type="curve"/>
      <point x="69.0" y="235" type="line"/>
      <point x="69.0" y="36" type="line"/>
      <point x="69.0" y="11"/>
      <point x="80.0" y="0"/>
      <point x="105.0" y="0" type="curve" smooth="yes"/>
      <point x="614.0" y="0" type="line" smooth="yes"/>
      <point x="639.0" y="0"/>
      <point x="650.0" y="11"/>
    </contour>
  </outline>
</glyph>
<glyph name="indianrupee" format="1">
  <advance width="613"/>
  <unicode hex="20B9"/>
  <outline>
    <contour>
      <point x="570.0" y="36" type="curve" smooth="yes"/>
      <point x="570.0" y="187" type="line" smooth="yes"/>
      <point x="570.0" y="271"/>
      <point x="514.0" y="323"/>
      <point x="429.0" y="332" type="curve"/>
      <point x="459.0" y="345"/>
      <point x="474.0" y="368"/>
      <point x="481.0" y="401" type="curve"/>
      <point x="534.0" y="401" type="line" smooth="yes"/>
      <point x="559.0" y="401"/>
      <point x="570.0" y="411"/>
      <point x="570.0" y="437" type="curve" smooth="yes"/>
      <point x="570.0" y="494" type="line" smooth="yes"/>
      <point x="570.0" y="520"/>
      <point x="559.0" y="530"/>
      <point x="534.0" y="530" type="curve" smooth="yes"/>
      <point x="485.0" y="530" type="line"/>
      <point x="485.0" y="553" type="line" smooth="yes"/>
      <point x="485.0" y="563"/>
      <point x="485.0" y="572"/>
      <point x="484.0" y="581" type="curve"/>
      <point x="534.0" y="581" type="line" smooth="yes"/>
      <point x="559.0" y="581"/>
      <point x="570.0" y="591"/>
      <point x="570.0" y="617" type="curve" smooth="yes"/>
      <point x="570.0" y="684" type="line" smooth="yes"/>
      <point x="570.0" y="710"/>
      <point x="559.0" y="720"/>
      <point x="534.0" y="720" type="curve" smooth="yes"/>
      <point x="86.0" y="720" type="line" smooth="yes"/>
      <point x="61.0" y="720"/>
      <point x="50.0" y="709"/>
      <point x="50.0" y="684" type="curve" smooth="yes"/>
      <point x="50.0" y="616" type="line" smooth="yes"/>
      <point x="50.0" y="591"/>
      <point x="61.0" y="580"/>
      <point x="86.0" y="580" type="curve"/>
      <point x="220.0" y="580" type="line" smooth="yes"/>
      <point x="255.0" y="580"/>
      <point x="264.0" y="560"/>
      <point x="264.0" y="533" type="curve" smooth="yes"/>
      <point x="264.0" y="530" type="line"/>
      <point x="86.0" y="530" type="line" smooth="yes"/>
      <point x="61.0" y="530"/>
      <point x="50.0" y="519"/>
      <point x="50.0" y="494" type="curve" smooth="yes"/>
      <point x="50.0" y="437" type="line" smooth="yes"/>
      <point x="50.0" y="411"/>
      <point x="61.0" y="401"/>
      <point x="86.0" y="401" type="curve"/>
      <point x="264.0" y="401" type="line"/>
      <point x="264.0" y="398" type="line" smooth="yes"/>
      <point x="264.0" y="371"/>
      <point x="255.0" y="351"/>
      <point x="220.0" y="351" type="curve" smooth="yes"/>
      <point x="85.0" y="351" type="line"/>
      <point x="60.0" y="351"/>
      <point x="49.0" y="340"/>
      <point x="49.0" y="314" type="curve" smooth="yes"/>
      <point x="49.0" y="237" type="line" smooth="yes"/>
      <point x="49.0" y="213"/>
      <point x="60.0" y="202"/>
      <point x="85.0" y="201" type="curve"/>
      <point x="305.0" y="201" type="line" smooth="yes"/>
      <point x="333.0" y="201"/>
      <point x="343.0" y="188"/>
      <point x="343.0" y="158" type="curve" smooth="yes"/>
      <point x="343.0" y="36" type="line" smooth="yes"/>
      <point x="343.0" y="11"/>
      <point x="354.0" y="0"/>
      <point x="379.0" y="0" type="curve" smooth="yes"/>
      <point x="534.0" y="0" type="line" smooth="yes"/>
      <point x="559.0" y="0"/>
      <point x="570.0" y="11"/>
    </contour>
  </outline>
</glyph>
<glyph name="uni2117" format="1">
  <advance width="867"/>
  <unicode hex="2117"/>
  <outline>
    <contour>
      <point x="807.0" y="154" type="curve" smooth="yes"/>
      <point x="807.0" y="564" type="line" smooth="yes"/>
      <point x="807.0" y="711"/>
      <point x="735.0" y="811"/>
      <point x="434.0" y="811" type="curve" smooth="yes"/>
      <point x="134.0" y="811"/>
      <point x="60.0" y="711"/>
      <point x="60.0" y="564" type="curve" smooth="yes"/>
      <point x="60.0" y="154" type="line" smooth="yes"/>
      <point x="60.0" y="8"/>
      <point x="134.0" y="-91"/>
      <point x="434.0" y="-91" type="curve" smooth="yes"/>
      <point x="735.0" y="-91"/>
      <point x="807.0" y="8"/>
    </contour>
    <contour>
      <point x="707.0" y="150" type="line"/>
      <point x="707.0" y="64"/>
      <point x="654.0" y="5"/>
      <point x="434.0" y="5" type="curve" smooth="yes"/>
      <point x="214.0" y="5"/>
      <point x="160.0" y="64"/>
      <point x="160.0" y="150" type="curve"/>
      <point x="160.0" y="568" type="line"/>
      <point x="160.0" y="655"/>
      <point x="214.0" y="715"/>
      <point x="434.0" y="715" type="curve" smooth="yes"/>
      <point x="654.0" y="715"/>
      <point x="707.0" y="655"/>
      <point x="707.0" y="568" type="curve"/>
    </contour>
    <contour>
      <point x="370.0" y="110" type="line" smooth="yes"/>
      <point x="388.0" y="110"/>
      <point x="396.0" y="118"/>
      <point x="396.0" y="136" type="curve" smooth="yes"/>
      <point x="396.0" y="255" type="line"/>
      <point x="479.0" y="255" type="line" smooth="yes"/>
      <point x="609.0" y="255"/>
      <point x="648.0" y="311"/>
      <point x="648.0" y="395" type="curve" smooth="yes"/>
      <point x="648.0" y="486" type="line" smooth="yes"/>
      <point x="648.0" y="570"/>
      <point x="609.0" y="626"/>
      <point x="479.0" y="626" type="curve" smooth="yes"/>
      <point x="259.0" y="626" type="line" smooth="yes"/>
      <point x="241.0" y="626"/>
      <point x="233.0" y="618"/>
      <point x="233.0" y="600" type="curve" smooth="yes"/>
      <point x="233.0" y="136" type="line" smooth="yes"/>
      <point x="233.0" y="118"/>
      <point x="241.0" y="110"/>
      <point x="259.0" y="110" type="curve" smooth="yes"/>
    </contour>
    <contour>
      <point x="395.0" y="492" type="line"/>
      <point x="459.0" y="492" type="line" smooth="yes"/>
      <point x="487.0" y="492"/>
      <point x="493.0" y="476"/>
      <point x="493.0" y="457" type="curve" smooth="yes"/>
      <point x="493.0" y="419" type="line" smooth="yes"/>
      <point x="493.0" y="400"/>
      <point x="487.0" y="384"/>
      <point x="459.0" y="384" type="curve" smooth="yes"/>
      <point x="395.0" y="384" type="line"/>
    </contour>
  </outline>
</glyph>
<glyph name="arrowleft" format="1">
  <advance width="1000"/>
  <unicode hex="2190"/>
  <outline>
    <contour>
      <point x="815.0" y="293" type="curve" smooth="yes"/>
      <point x="815.0" y="426" type="line" smooth="yes"/>
      <point x="815.0" y="448"/>
      <point x="806.0" y="460"/>
      <point x="784.0" y="459" type="curve" smooth="yes"/>
      <point x="604.0" y="448" type="line"/>
      <point x="604.0" y="620" type="line" smooth="yes"/>
      <point x="604.0" y="642"/>
      <point x="573.0" y="655"/>
      <point x="551.0" y="640" type="curve" smooth="yes"/>
      <point x="204.0" y="406" type="line" smooth="yes"/>
      <point x="185.0" y="394"/>
      <point x="173.0" y="381"/>
      <point x="173.0" y="359" type="curve"/>
      <point x="173.0" y="338"/>
      <point x="185.0" y="325"/>
      <point x="204.0" y="313" type="curve" smooth="yes"/>
      <point x="551.0" y="79" type="line" smooth="yes"/>
      <point x="573.0" y="64"/>
      <point x="604.0" y="77"/>
      <point x="604.0" y="99" type="curve" smooth="yes"/>
      <point x="604.0" y="271" type="line"/>
      <point x="784.0" y="260" type="line" smooth="yes"/>
      <point x="806.0" y="259"/>
      <point x="815.0" y="271"/>
    </contour>
  </outline>
</glyph>
<glyph name="uni21AB" format="1">
  <advance width="1000"/>
  <unicode hex="21AB"/>
  <outline>
    <contour>
      <point x="512.0" y="-34" type="line" smooth="yes"/>
      <point x="534.0" y="-49"/>
      <point x="566.0" y="-35"/>
      <point x="564.0" y="-15" type="curve" smooth="yes"/>
      <point x="523.0" y="143" type="line"/>
      <point x="625.0" y="143" type="line" smooth="yes"/>
      <point x="793.0" y="143"/>
      <point x="843.0" y="214"/>
      <point x="843.0" y="321" type="curve" smooth="yes"/>
      <point x="843.0" y="582" type="line" smooth="yes"/>
      <point x="843.0" y="689"/>
      <point x="793.0" y="760"/>
      <point x="625.0" y="760" type="curve" smooth="yes"/>
      <point x="286.0" y="760" type="line" smooth="yes"/>
      <point x="266.0" y="760"/>
      <point x="256.0" y="750"/>
      <point x="256.0" y="729" type="curve" smooth="yes"/>
      <point x="256.0" y="624" type="line" smooth="yes"/>
      <point x="256.0" y="601"/>
      <point x="266.0" y="594"/>
      <point x="286.0" y="594" type="curve" smooth="yes"/>
      <point x="609.0" y="594" type="line" smooth="yes"/>
      <point x="654.0" y="594"/>
      <point x="676.0" y="577"/>
      <point x="676.0" y="533" type="curve" smooth="yes"/>
      <point x="676.0" y="370" type="line" smooth="yes"/>
      <point x="676.0" y="326"/>
      <point x="654.0" y="309"/>
      <point x="609.0" y="309" type="curve" smooth="yes"/>
      <point x="523.0" y="309" type="line"/>
      <point x="564.0" y="468" type="line" smooth="yes"/>
      <point x="566.0" y="488"/>
      <point x="534.0" y="501"/>
      <point x="512.0" y="487" type="curve" smooth="yes"/>
      <point x="188.0" y="269" type="line" smooth="yes"/>
      <point x="170.0" y="258"/>
      <point x="158.0" y="246"/>
      <point x="158.0" y="226" type="curve"/>
      <point x="158.0" y="206"/>
      <point x="170.0" y="194"/>
      <point x="188.0" y="184" type="curve" smooth="yes"/>
    </contour>
  </outline>
</glyph>
<glyph name="uni21B0" format="1">
  <advance width="1000"/>
  <unicode hex="21B0"/>
  <outline>
    <contour>
      <point x="595.0" y="517" type="curve" smooth="yes"/>
      <point x="513.0" y="517" type="line"/>
      <point x="554.0" y="675" type="line" smooth="yes"/>
      <point x="556.0" y="695"/>
      <point x="524.0" y="709"/>
      <point x="502.0" y="694" type="curve" smooth="yes"/>
      <point x="178.0" y="476" type="line" smooth="yes"/>
      <point x="160.0" y="466"/>
      <point x="148.0" y="454"/>
      <point x="148.0" y="434" type="curve"/>
      <point x="148.0" y="414"/>
      <point x="160.0" y="402"/>
      <point x="178.0" y="391" type="curve" smooth="yes"/>
      <point x="502.0" y="173" type="line" smooth="yes"/>
      <point x="524.0" y="159"/>
      <point x="556.0" y="172"/>
      <point x="554.0" y="192" type="curve" smooth="yes"/>
      <point x="513.0" y="351" type="line"/>
      <point x="579.0" y="351" type="line" smooth="yes"/>
      <point x="624.0" y="351"/>
      <point x="646.0" y="334"/>
      <point x="646.0" y="290" type="curve" smooth="yes"/>
      <point x="646.0" y="30" type="line" smooth="yes"/>
      <point x="644.0" y="10"/>
      <point x="655.0" y="0"/>
      <point x="677.0" y="0" type="curve" smooth="yes"/>
      <point x="782.0" y="0" type="line" smooth="yes"/>
      <point x="804.0" y="0"/>
      <point x="813.0" y="10"/>
      <point x="813.0" y="30" type="curve" smooth="yes"/>
      <point x="813.0" y="339" type="line" smooth="yes"/>
      <point x="813.0" y="446"/>
      <point x="763.0" y="517"/>
    </contour>
  </outline>
</glyph>
<glyph name="summation" format="1">
  <advance width="650"/>
  <unicode hex="2211"/>
  <outline>
    <contour>
      <point x="336.0" y="527" type="line"/>
      <point x="550.0" y="527" type="line" smooth="yes"/>
      <point x="575.0" y="527"/>
      <point x="586.0" y="538"/>
      <point x="586.0" y="563" type="curve" smooth="yes"/>
      <point x="586.0" y="684" type="line" smooth="yes"/>
      <point x="586.0" y="709"/>
      <point x="575.0" y="720"/>
      <point x="550.0" y="720" type="curve" smooth="yes"/>
      <point x="100.0" y="720" type="line" smooth="yes"/>
      <point x="75.0" y="720"/>
      <point x="64.0" y="709"/>
      <point x="64.0" y="684" type="curve" smooth="yes"/>
      <point x="64.0" y="530" type="line" smooth="yes"/>
      <point x="64.0" y="503"/>
      <point x="71.0" y="486"/>
      <point x="89.0" y="467" type="curve" smooth="yes"/>
      <point x="254.0" y="316" type="line"/>
      <point x="71.0" y="137" type="line" smooth="yes"/>
      <point x="53.0" y="118"/>
      <point x="46.0" y="101"/>
      <point x="46.0" y="75" type="curve" smooth="yes"/>
      <point x="46.0" y="-54" type="line" smooth="yes"/>
      <point x="46.0" y="-79"/>
      <point x="57.0" y="-90"/>
      <point x="82.0" y="-90" type="curve" smooth="yes"/>
      <point x="568.0" y="-90" type="line" smooth="yes"/>
      <point x="593.0" y="-90"/>
      <point x="604.0" y="-79"/>
      <point x="604.0" y="-54" type="curve" smooth="yes"/>
      <point x="604.0" y="65" type="line" smooth="yes"/>
      <point x="604.0" y="90"/>
      <point x="593.0" y="101"/>
      <point x="568.0" y="101" type="curve" smooth="yes"/>
      <point x="319.0" y="101" type="line"/>
      <point x="474.0" y="254" type="line" smooth="yes"/>
      <point x="488.0" y="269"/>
      <point x="491.0" y="278"/>
      <point x="491.0" y="300" type="curve" smooth="yes"/>
      <point x="491.0" y="352" type="line" smooth="yes"/>
      <point x="491.0" y="373"/>
      <point x="489.0" y="382"/>
      <point x="474.0" y="397" type="curve" smooth="yes"/>
    </contour>
  </outline>
</glyph>
<glyph name="lessequal" format="1">
  <advance width="714"/>
  <unicode hex="2264"/>
  <outline>
    <contour>
      <point x="588" y="0" type="line" smooth="yes"/>
      <point x="613" y="0"/>
      <point x="624" y="10"/>
      <point x="624" y="36" type="curve" smooth="yes"/>
      <point x="624" y="292" type="line" smooth="yes"/>
      <point x="624" y="318"/>
      <point x="613" y="329"/>
      <point x="588" y="333" type="curve" smooth="yes"/>
      <point x="301" y="410" type="line" smooth="yes"/>
      <point x="287" y="413"/>
      <point x="284" y="417"/>
      <point x="284" y="429" type="curve" smooth="yes"/>
      <point x="284" y="441"/>
      <point x="287" y="445"/>
      <point x="301" y="448" type="curve" smooth="yes"/>
      <point x="588" y="525" type="line" smooth="yes"/>
      <point x="613" y="529"/>
      <point x="624" y="540"/>
      <point x="624" y="566" type="curve" smooth="yes"/>
      <point x="624" y="698" type="line" smooth="yes"/>
      <point x="624" y="724"/>
      <point x="613" y="734"/>
      <point x="588" y="729" type="curve" smooth="yes"/>
      <point x="207" y="620" type="line" smooth="yes"/>
      <point x="124" y="596"/>
      <point x="80" y="564"/>
      <point x="80" y="465" type="curve" smooth="yes"/>
      <point x="80" y="393" type="line" smooth="yes"/>
      <point x="80" y="294"/>
      <point x="124" y="262"/>
      <point x="207" y="238" type="curve"/>
      <point x="389" y="186" type="line"/>
      <point x="116" y="186" type="line" smooth="yes"/>
      <point x="91" y="186"/>
      <point x="80" y="175"/>
      <point x="80" y="150" type="curve" smooth="yes"/>
      <point x="80" y="36" type="line" smooth="yes"/>
      <point x="80" y="10"/>
      <point x="91" y="0"/>
      <point x="116" y="0" type="curve"/>
    </contour>
  </outline>
</glyph>
<glyph name="greaterequal" format="1">
  <advance width="714"/>
  <unicode hex="2265"/>
  <outline>
    <contour>
      <point x="598" y="0" type="line" smooth="yes"/>
      <point x="623" y="0"/>
      <point x="634" y="10"/>
      <point x="634" y="36" type="curve" smooth="yes"/>
      <point x="634" y="150" type="line" smooth="yes"/>
      <point x="634" y="176"/>
      <point x="623" y="186"/>
      <point x="598" y="186" type="curve" smooth="yes"/>
      <point x="325" y="186" type="line"/>
      <point x="507" y="238" type="line"/>
      <point x="590" y="262"/>
      <point x="634" y="294"/>
      <point x="634" y="393" type="curve" smooth="yes"/>
      <point x="634" y="465" type="line" smooth="yes"/>
      <point x="634" y="564"/>
      <point x="590" y="596"/>
      <point x="507" y="620" type="curve" smooth="yes"/>
      <point x="126" y="729" type="line" smooth="yes"/>
      <point x="101" y="734"/>
      <point x="90" y="724"/>
      <point x="90" y="698" type="curve" smooth="yes"/>
      <point x="90" y="566" type="line" smooth="yes"/>
      <point x="90" y="540"/>
      <point x="101" y="529"/>
      <point x="126" y="525" type="curve" smooth="yes"/>
      <point x="413" y="448" type="line" smooth="yes"/>
      <point x="427" y="445"/>
      <point x="430" y="441"/>
      <point x="430" y="429" type="curve" smooth="yes"/>
      <point x="430" y="417"/>
      <point x="427" y="413"/>
      <point x="413" y="410" type="curve" smooth="yes"/>
      <point x="126" y="333" type="line" smooth="yes"/>
      <point x="101" y="329"/>
      <point x="90" y="318"/>
      <point x="90" y="292" type="curve" smooth="yes"/>
      <point x="90" y="36" type="line" smooth="yes"/>
      <point x="90" y="10"/>
      <point x="101" y="0"/>
      <point x="126" y="0" type="curve"/>
    </contour>
  </outline>
</glyph>
<glyph name="whitedownpointingtriangle" format="1">
  <advance width="1000"/>
  <unicode hex="25BD"/>
  <outline>
    <contour>
      <point x="213.0" y="558" type="curve" smooth="yes"/>
      <point x="213.0" y="549"/>
      <point x="215.0" y="541"/>
      <point x="220.0" y="532" type="curve" smooth="yes"/>
      <point x="444.0" y="165" type="line" smooth="yes"/>
      <point x="459.0" y="142"/>
      <point x="475.0" y="129"/>
      <point x="499.0" y="129" type="curve" smooth="yes"/>
      <point x="525.0" y="129"/>
      <point x="540.0" y="142"/>
      <point x="554.0" y="165" type="curve" smooth="yes"/>
      <point x="779.0" y="532" type="line" smooth="yes"/>
      <point x="784.0" y="541"/>
      <point x="786.0" y="549"/>
      <point x="786.0" y="558" type="curve" smooth="yes"/>
      <point x="786.0" y="582"/>
      <point x="771.0" y="600"/>
      <point x="750.0" y="600" type="curve" smooth="yes"/>
      <point x="249.0" y="600" type="line" smooth="yes"/>
      <point x="229.0" y="600"/>
      <point x="213.0" y="582"/>
    </contour>
    <contour>
      <point x="750.0" y="580" type="line" smooth="yes"/>
      <point x="761.0" y="580"/>
      <point x="766.0" y="568"/>
      <point x="766.0" y="558" type="curve" smooth="yes"/>
      <point x="766.0" y="553"/>
      <point x="764.0" y="547"/>
      <point x="761.0" y="542" type="curve" smooth="yes"/>
      <point x="538.0" y="175" type="line" smooth="yes"/>
      <point x="528.0" y="160"/>
      <point x="517.0" y="149"/>
      <point x="499.0" y="149" type="curve" smooth="yes"/>
      <point x="481.0" y="149"/>
      <point x="471.0" y="160"/>
      <point x="462.0" y="175" type="curve" smooth="yes"/>
      <point x="238.0" y="542" type="line" smooth="yes"/>
      <point x="235.0" y="547"/>
      <point x="233.0" y="553"/>
      <point x="233.0" y="558" type="curve" smooth="yes"/>
      <point x="233.0" y="568"/>
      <point x="239.0" y="580"/>
      <point x="249.0" y="580" type="curve" smooth="yes"/>
    </contour>
  </outline>
</glyph>
<glyph name="uni261D" format="1">
  <advance width="1000"/>
  <unicode hex="261D"/>
  <outline>
    <contour>
      <point x="726.0" y="-9" type="line" smooth="yes"/>
      <point x="752.0" y="-9"/>
      <point x="766.0" y="5"/>
      <point x="766.0" y="30" type="curve" smooth="yes"/>
      <point x="766.0" y="105" type="line" smooth="yes"/>
      <point x="766.0" y="130"/>
      <point x="751.0" y="144"/>
      <point x="728.0" y="144" type="curve" smooth="yes"/>
      <point x="679.0" y="144" type="line"/>
      <point x="692.0" y="169" type="line" smooth="yes"/>
      <point x="697.0" y="179"/>
      <point x="705.0" y="199"/>
      <point x="705.0" y="221" type="curve" smooth="yes"/>
      <point x="695.0" y="454" type="line" smooth="yes"/>
      <point x="694.0" y="477"/>
      <point x="677.0" y="494"/>
      <point x="654.0" y="494" type="curve" smooth="yes"/>
      <point x="614.0" y="494" type="line"/>
      <point x="608.0" y="494"/>
      <point x="600.0" y="493"/>
      <point x="595.0" y="489" type="curve"/>
      <point x="590.0" y="508"/>
      <point x="577.0" y="516"/>
      <point x="556.0" y="516" type="curve" smooth="yes"/>
      <point x="517.0" y="516" type="line"/>
      <point x="509.0" y="516"/>
      <point x="503.0" y="514"/>
      <point x="498.0" y="510" type="curve"/>
      <point x="494.0" y="531"/>
      <point x="480.0" y="541"/>
      <point x="458.0" y="541" type="curve" smooth="yes"/>
      <point x="422.0" y="541" type="line" smooth="yes"/>
      <point x="417.0" y="541"/>
      <point x="412.0" y="540"/>
      <point x="408.0" y="538" type="curve"/>
      <point x="408.0" y="685" type="line" smooth="yes"/>
      <point x="408.0" y="715"/>
      <point x="393.0" y="730"/>
      <point x="367.0" y="730" type="curve" smooth="yes"/>
      <point x="337.0" y="730" type="line" smooth="yes"/>
      <point x="310.0" y="730"/>
      <point x="295.0" y="716"/>
      <point x="294.0" y="691" type="curve" smooth="yes"/>
      <point x="273.0" y="397" type="line" smooth="yes"/>
      <point x="272.0" y="376"/>
      <point x="272.0" y="352"/>
      <point x="275.0" y="336" type="curve" smooth="yes"/>
      <point x="311.0" y="144" type="line"/>
      <point x="272.0" y="144" type="line" smooth="yes"/>
      <point x="249.0" y="144"/>
      <point x="234.0" y="130"/>
      <point x="234.0" y="105" type="curve" smooth="yes"/>
      <point x="234.0" y="30" type="line" smooth="yes"/>
      <point x="234.0" y="5"/>
      <point x="246.0" y="-9"/>
      <point x="274.0" y="-9" type="curve" smooth="yes"/>
    </contour>
    <contour>
      <point x="333" y="144" type="line"/>
      <point x="295" y="340" type="line" smooth="yes"/>
      <point x="293" y="354"/>
      <point x="293" y="376"/>
      <point x="294" y="395" type="curve" smooth="yes"/>
      <point x="315" y="689" type="line" smooth="yes"/>
      <point x="316" y="699"/>
      <point x="323" y="709"/>
      <point x="337" y="709" type="curve" smooth="yes"/>
      <point x="367" y="709" type="line" smooth="yes"/>
      <point x="380" y="709"/>
      <point x="387" y="700"/>
      <point x="387" y="685" type="curve" smooth="yes"/>
      <point x="387" y="417" type="line"/>
      <point x="408" y="417" type="line" smooth="yes"/>
      <point x="408" y="504" type="line"/>
      <point x="407" y="515"/>
      <point x="413" y="520"/>
      <point x="424" y="520" type="curve" smooth="yes"/>
      <point x="458" y="520" type="line" smooth="yes"/>
      <point x="472" y="520"/>
      <point x="477" y="512"/>
      <point x="478" y="498" type="curve" smooth="yes"/>
      <point x="485" y="400" type="line"/>
      <point x="506" y="400" type="line" smooth="yes"/>
      <point x="500" y="480" type="line"/>
      <point x="500" y="490"/>
      <point x="507" y="495"/>
      <point x="520" y="495" type="curve" smooth="yes"/>
      <point x="556" y="495" type="line" smooth="yes"/>
      <point x="569" y="495"/>
      <point x="575" y="488"/>
      <point x="576" y="473" type="curve" smooth="yes"/>
      <point x="583" y="381" type="line"/>
      <point x="604" y="381" type="line" smooth="yes"/>
      <point x="598" y="460" type="line"/>
      <point x="598" y="460" type="line"/>
      <point x="598" y="470"/>
      <point x="606" y="473"/>
      <point x="616" y="473" type="curve" smooth="yes"/>
      <point x="654" y="473" type="line" smooth="yes"/>
      <point x="665" y="473"/>
      <point x="673" y="464"/>
      <point x="673" y="453" type="curve" smooth="yes"/>
      <point x="684" y="221" type="line" smooth="yes"/>
      <point x="684" y="204"/>
      <point x="679" y="188"/>
      <point x="673" y="179" type="curve" smooth="yes"/>
      <point x="654" y="144" type="line"/>
    </contour>
    <contour>
      <point x="745.0" y="105" type="curve"/>
      <point x="745.0" y="72" type="line" smooth="yes"/>
      <point x="745.0" y="62"/>
      <point x="737.0" y="54"/>
      <point x="726.0" y="54" type="curve" smooth="yes"/>
      <point x="274.0" y="54" type="line" smooth="yes"/>
      <point x="262.0" y="54"/>
      <point x="255.0" y="62"/>
      <point x="255.0" y="72" type="curve"/>
      <point x="255.0" y="105" type="line"/>
      <point x="255.0" y="115"/>
      <point x="262.0" y="123"/>
      <point x="274.0" y="123" type="curve" smooth="yes"/>
      <point x="726.0" y="123" type="line" smooth="yes"/>
      <point x="737.0" y="123"/>
      <point x="745.0" y="115"/>
    </contour>
  </outline>
</glyph>
<glyph name="I.salt" format="1">
  <advance width="371.0"/>
  <unicode hex="E114"/>
  <outline>
    <contour>
      <point x="265.0" y="0" type="line" smooth="yes"/>
      <point x="290.0" y="0"/>
      <point x="301.0" y="11"/>
      <point x="301.0" y="36" type="curve" smooth="yes"/>
      <point x="301.0" y="684" type="line" smooth="yes"/>
      <point x="301.0" y="709"/>
      <point x="290.0" y="720"/>
      <point x="265.0" y="720" type="curve" smooth="yes"/>
      <point x="106.0" y="720" type="line" smooth="yes"/>
      <point x="81.0" y="720"/>
      <point x="70.0" y="709"/>
      <point x="70.0" y="684" type="curve"/>
      <point x="70.0" y="36" type="line"/>
      <point x="70.0" y="11"/>
      <point x="81.0" y="0"/>
      <point x="106.0" y="0" type="curve" smooth="yes"/>
    </contour>
    <contour>
      <point x="185.0" y="747.0" type="move" name="top"/>
    </contour>
    <contour>
      <point x="185.0" y="0.0" type="move" name="bottom"/>
    </contour>
  </outline>
</glyph>
<glyph name="Igrave.salt" format="1">
  <advance width="371.0"/>
  <unicode hex="E115"/>
  <outline>
    <contour>
      <point x="345" y="755" type="line" smooth="yes"/>
      <point x="368" y="752"/>
      <point x="379" y="765"/>
      <point x="379" y="788" type="curve" smooth="yes"/>
      <point x="379" y="884" type="line" smooth="yes"/>
      <point x="379" y="909"/>
      <point x="368" y="917"/>
      <point x="343" y="920" type="curve" smooth="yes"/>
      <point x="24" y="959" type="line" smooth="yes"/>
      <point x="1" y="962"/>
      <point x="-10" y="949"/>
      <point x="-10" y="926" type="curve" smooth="yes"/>
      <point x="-10" y="830" type="line" smooth="yes"/>
      <point x="-10" y="805"/>
      <point x="1" y="797"/>
      <point x="26" y="794" type="curve" smooth="yes"/>
    </contour>
    <contour>
      <point x="265" y="0" type="line" smooth="yes"/>
      <point x="290" y="0"/>
      <point x="301" y="11"/>
      <point x="301" y="36" type="curve" smooth="yes"/>
      <point x="301" y="684" type="line" smooth="yes"/>
      <point x="301" y="709"/>
      <point x="290" y="720"/>
      <point x="265" y="720" type="curve" smooth="yes"/>
      <point x="106" y="720" type="line" smooth="yes"/>
      <point x="81" y="720"/>
      <point x="70" y="709"/>
      <point x="70" y="684" type="curve"/>
      <point x="70" y="36" type="line"/>
      <point x="70" y="11"/>
      <point x="81" y="0"/>
      <point x="106" y="0" type="curve" smooth="yes"/>
    </contour>
  </outline>
</glyph>
<glyph name="Iacute.salt" format="1">
  <advance width="371.0"/>
  <unicode hex="E116"/>
  <outline>
    <contour>
      <point x="345" y="796" type="line" smooth="yes"/>
      <point x="370" y="799"/>
      <point x="381" y="807"/>
      <point x="381" y="832" type="curve" smooth="yes"/>
      <point x="381" y="928" type="line" smooth="yes"/>
      <point x="381" y="951"/>
      <point x="370" y="964"/>
      <point x="347" y="961" type="curve"/>
      <point x="28" y="918" type="line" smooth="yes"/>
      <point x="3" y="915"/>
      <point x="-8" y="907"/>
      <point x="-8" y="882" type="curve" smooth="yes"/>
      <point x="-8" y="786" type="line" smooth="yes"/>
      <point x="-8" y="763"/>
      <point x="3" y="750"/>
      <point x="26" y="753" type="curve" smooth="yes"/>
    </contour>
    <contour>
      <point x="265" y="0" type="line" smooth="yes"/>
      <point x="290" y="0"/>
      <point x="301" y="11"/>
      <point x="301" y="36" type="curve" smooth="yes"/>
      <point x="301" y="684" type="line" smooth="yes"/>
      <point x="301" y="709"/>
      <point x="290" y="720"/>
      <point x="265" y="720" type="curve" smooth="yes"/>
      <point x="106" y="720" type="line" smooth="yes"/>
      <point x="81" y="720"/>
      <point x="70" y="709"/>
      <point x="70" y="684" type="curve"/>
      <point x="70" y="36" type="line"/>
      <point x="70" y="11"/>
      <point x="81" y="0"/>
      <point x="106" y="0" type="curve" smooth="yes"/>
    </contour>
  </outline>
</glyph>
<glyph name="L.salt" format="1">
  <advance width="615"/>
  <unicode hex="E11E"/>
  <outline>
    <contour>
      <point x="260" y="720" type="curve" smooth="yes"/>
      <point x="105" y="720" type="line" smooth="yes"/>
      <point x="80" y="720"/>
      <point x="69" y="709"/>
      <point x="69" y="684" type="curve" smooth="yes"/>
      <point x="69" y="36" type="line" smooth="yes"/>
      <point x="69" y="11"/>
      <point x="80" y="0"/>
      <point x="105" y="0" type="curve" smooth="yes"/>
      <point x="551" y="0" type="line" smooth="yes"/>
      <point x="576" y="0"/>
      <point x="587" y="11"/>
      <point x="587" y="36" type="curve" smooth="yes"/>
      <point x="587" y="157" type="line" smooth="yes"/>
      <point x="587" y="182"/>
      <point x="576" y="193"/>
      <point x="551" y="193" type="curve" smooth="yes"/>
      <point x="296" y="193" type="line"/>
      <point x="296" y="684" type="line" smooth="yes"/>
      <point x="296" y="709"/>
      <point x="285" y="720"/>
    </contour>
  </outline>
</glyph>
<glyph name="Lslash.salt" format="1">
  <advance width="625"/>
  <unicode hex="E123"/>
  <outline>
    <contour>
      <point x="561" y="0" type="line" smooth="yes"/>
      <point x="586" y="0"/>
      <point x="597" y="11"/>
      <point x="597" y="36" type="curve" smooth="yes"/>
      <point x="597" y="157" type="line" smooth="yes"/>
      <point x="597" y="182"/>
      <point x="586" y="193"/>
      <point x="561" y="193" type="curve" smooth="yes"/>
      <point x="306" y="193" type="line"/>
      <point x="306" y="326" type="line"/>
      <point x="364" y="335" type="line" smooth="yes"/>
      <point x="389" y="339"/>
      <point x="400" y="345"/>
      <point x="400" y="371" type="curve" smooth="yes"/>
      <point x="400" y="478" type="line" smooth="yes"/>
      <point x="400" y="504"/>
      <point x="389" y="518"/>
      <point x="364" y="514" type="curve" smooth="yes"/>
      <point x="306" y="505" type="line"/>
      <point x="306" y="684" type="line" smooth="yes"/>
      <point x="306" y="709"/>
      <point x="295" y="720"/>
      <point x="270" y="720" type="curve" smooth="yes"/>
      <point x="115" y="720" type="line" smooth="yes"/>
      <point x="90" y="720"/>
      <point x="79" y="709"/>
      <point x="79" y="684" type="curve" smooth="yes"/>
      <point x="79" y="468" type="line"/>
      <point x="56" y="464" type="line" smooth="yes"/>
      <point x="31" y="460"/>
      <point x="20" y="453"/>
      <point x="20" y="428" type="curve" smooth="yes"/>
      <point x="20" y="321" type="line" smooth="yes"/>
      <point x="20" y="295"/>
      <point x="31" y="281"/>
      <point x="56" y="285" type="curve" smooth="yes"/>
      <point x="79" y="289" type="line"/>
      <point x="79" y="36" type="line" smooth="yes"/>
      <point x="79" y="11"/>
      <point x="90" y="0"/>
      <point x="115" y="0" type="curve" smooth="yes"/>
    </contour>
  </outline>
</glyph>
<glyph name="M.salt" format="1">
  <advance width="1070"/>
  <unicode hex="E124"/>
  <outline>
    <contour>
      <point x="288.0" y="36" type="curve" smooth="yes"/>
      <point x="288.0" y="492" type="line" smooth="yes"/>
      <point x="288.0" y="519"/>
      <point x="298.0" y="539"/>
      <point x="356.0" y="539" type="curve" smooth="yes"/>
      <point x="413.0" y="539"/>
      <point x="423.0" y="519"/>
      <point x="423.0" y="492" type="curve" smooth="yes"/>
      <point x="423.0" y="36" type="line" smooth="yes"/>
      <point x="423.0" y="11"/>
      <point x="434.0" y="0"/>
      <point x="459.0" y="0" type="curve" smooth="yes"/>
      <point x="611.0" y="0" type="line" smooth="yes"/>
      <point x="636.0" y="0"/>
      <point x="647.0" y="11"/>
      <point x="647.0" y="36" type="curve" smooth="yes"/>
      <point x="647.0" y="492" type="line" smooth="yes"/>
      <point x="647.0" y="519"/>
      <point x="657.0" y="539"/>
      <point x="714.0" y="539" type="curve" smooth="yes"/>
      <point x="772.0" y="539"/>
      <point x="782.0" y="519"/>
      <point x="782.0" y="492" type="curve" smooth="yes"/>
      <point x="782.0" y="36" type="line" smooth="yes"/>
      <point x="782.0" y="11"/>
      <point x="792.0" y="0"/>
      <point x="818.0" y="0" type="curve" smooth="yes"/>
      <point x="970.0" y="0" type="line" smooth="yes"/>
      <point x="995.0" y="0"/>
      <point x="1006.0" y="11"/>
      <point x="1006.0" y="36" type="curve" smooth="yes"/>
      <point x="1006.0" y="531" type="line"/>
      <point x="1006.0" y="653"/>
      <point x="954.0" y="735"/>
      <point x="742.0" y="735" type="curve" smooth="yes"/>
      <point x="640.0" y="735"/>
      <point x="575.0" y="716"/>
      <point x="535.0" y="683" type="curve"/>
      <point x="495.0" y="716"/>
      <point x="430.0" y="735"/>
      <point x="328.0" y="735" type="curve" smooth="yes"/>
      <point x="116.0" y="735"/>
      <point x="64.0" y="653"/>
      <point x="64.0" y="531" type="curve"/>
      <point x="64.0" y="36" type="line" smooth="yes"/>
      <point x="64.0" y="11"/>
      <point x="75.0" y="0"/>
      <point x="100.0" y="0" type="curve" smooth="yes"/>
      <point x="252.0" y="0" type="line" smooth="yes"/>
      <point x="278.0" y="0"/>
      <point x="288.0" y="11"/>
    </contour>
    <contour>
      <point x="535.0" y="747.0" type="move" name="top"/>
    </contour>
    <contour>
      <point x="535.0" y="0.0" type="move" name="bottom"/>
    </contour>
  </outline>
</glyph>
<glyph name="AE.salt" format="1">
  <advance width="1013"/>
  <unicode hex="E135"/>
  <outline>
    <contour>
      <point x="283.0" y="489" type="line" smooth="yes"/>
      <point x="283.0" y="516"/>
      <point x="295.0" y="536"/>
      <point x="366.0" y="536" type="curve"/>
      <point x="448.0" y="536" type="line"/>
      <point x="448.0" y="368" type="line"/>
      <point x="283.0" y="368" type="line"/>
    </contour>
    <contour>
      <point x="283.0" y="36" type="curve" smooth="yes"/>
      <point x="283.0" y="185" type="line"/>
      <point x="448.0" y="185" type="line"/>
      <point x="448.0" y="36" type="line" smooth="yes"/>
      <point x="448.0" y="11"/>
      <point x="459.0" y="0"/>
      <point x="484.0" y="0" type="curve" smooth="yes"/>
      <point x="928.0" y="0" type="line" smooth="yes"/>
      <point x="953.0" y="0"/>
      <point x="964.0" y="11"/>
      <point x="964.0" y="36" type="curve" smooth="yes"/>
      <point x="964.0" y="153" type="line" smooth="yes"/>
      <point x="964.0" y="178"/>
      <point x="953.0" y="189"/>
      <point x="928.0" y="189" type="curve" smooth="yes"/>
      <point x="675.0" y="189" type="line"/>
      <point x="675.0" y="275" type="line"/>
      <point x="847.0" y="275" type="line" smooth="yes"/>
      <point x="872.0" y="275"/>
      <point x="883.0" y="286"/>
      <point x="883.0" y="311" type="curve" smooth="yes"/>
      <point x="883.0" y="418" type="line" smooth="yes"/>
      <point x="883.0" y="444"/>
      <point x="872.0" y="454"/>
      <point x="847.0" y="454" type="curve" smooth="yes"/>
      <point x="675.0" y="454" type="line"/>
      <point x="675.0" y="531" type="line"/>
      <point x="928.0" y="531" type="line" smooth="yes"/>
      <point x="953.0" y="531"/>
      <point x="964.0" y="542"/>
      <point x="964.0" y="567" type="curve" smooth="yes"/>
      <point x="964.0" y="684" type="line" smooth="yes"/>
      <point x="964.0" y="709"/>
      <point x="953.0" y="720"/>
      <point x="928.0" y="720" type="curve" smooth="yes"/>
      <point x="367.0" y="720" type="line" smooth="yes"/>
      <point x="119.0" y="720"/>
      <point x="64.0" y="637"/>
      <point x="64.0" y="516" type="curve" smooth="yes"/>
      <point x="64.0" y="36" type="line" smooth="yes"/>
      <point x="64.0" y="11"/>
      <point x="75.0" y="0"/>
      <point x="100.0" y="0" type="curve" smooth="yes"/>
      <point x="247.0" y="0" type="line" smooth="yes"/>
      <point x="272.0" y="0"/>
      <point x="283.0" y="11"/>
    </contour>
  </outline>
</glyph>
<glyph name="uni261A.salt" format="1">
  <advance width="1000"/>
  <unicode hex="E146"/>
  <outline>
    <contour>
      <point x="716.0" y="198" type="line" smooth="yes"/>
      <point x="716.0" y="186"/>
      <point x="722.0" y="179"/>
      <point x="733.0" y="179" type="curve"/>
      <point x="829.0" y="179" type="line" smooth="yes"/>
      <point x="840.0" y="179"/>
      <point x="847.0" y="186"/>
      <point x="847.0" y="199" type="curve" smooth="yes"/>
      <point x="847.0" y="586" type="line" smooth="yes"/>
      <point x="847.0" y="598"/>
      <point x="840.0" y="604"/>
      <point x="829.0" y="604" type="curve"/>
      <point x="734.0" y="604" type="line"/>
      <point x="722.0" y="604"/>
      <point x="716.0" y="598"/>
      <point x="716.0" y="586" type="curve" smooth="yes"/>
    </contour>
    <contour>
      <point x="508.0" y="100" type="line" smooth="yes"/>
      <point x="516.0" y="95"/>
      <point x="527.0" y="96"/>
      <point x="533.0" y="105" type="curve" smooth="yes"/>
      <point x="584.0" y="176" type="line" smooth="yes"/>
      <point x="608.0" y="210"/>
      <point x="618.0" y="227"/>
      <point x="641.0" y="246" type="curve" smooth="yes"/>
      <point x="705.0" y="300" type="line"/>
      <point x="705.0" y="521" type="line"/>
      <point x="551.0" y="590" type="line" smooth="yes"/>
      <point x="527.0" y="601"/>
      <point x="505.0" y="601"/>
      <point x="482.0" y="598" type="curve" smooth="yes"/>
      <point x="144.0" y="552" type="line" smooth="yes"/>
      <point x="135.0" y="551"/>
      <point x="130.0" y="544"/>
      <point x="130.0" y="534" type="curve" smooth="yes"/>
      <point x="130.0" y="480" type="line" smooth="yes"/>
      <point x="130.0" y="470"/>
      <point x="137.0" y="462"/>
      <point x="149.0" y="462" type="curve" smooth="yes"/>
      <point x="447.0" y="451" type="line" smooth="yes"/>
      <point x="476.0" y="450"/>
      <point x="483.0" y="432"/>
      <point x="493.0" y="409" type="curve" smooth="yes"/>
      <point x="515.0" y="362" type="line" smooth="yes"/>
      <point x="526.0" y="338"/>
      <point x="525.0" y="316"/>
      <point x="510.0" y="278" type="curve" smooth="yes"/>
      <point x="463.0" y="153" type="line" smooth="yes"/>
      <point x="458.0" y="140"/>
      <point x="460.0" y="130"/>
      <point x="467.0" y="125" type="curve" smooth="yes"/>
    </contour>
    <contour>
      <point x="488.0" y="246" type="line"/>
      <point x="502.0" y="283" type="line" smooth="yes"/>
      <point x="509.0" y="303"/>
      <point x="514.0" y="319"/>
      <point x="513.0" y="334" type="curve"/>
      <point x="502.0" y="347"/>
      <point x="495.0" y="350"/>
      <point x="474.0" y="351" type="curve"/>
      <point x="474.0" y="356" type="line"/>
      <point x="488.0" y="356"/>
      <point x="498.0" y="359"/>
      <point x="503.0" y="364" type="curve"/>
      <point x="481.0" y="411" type="line" smooth="yes"/>
      <point x="472.0" y="430"/>
      <point x="466.0" y="439"/>
      <point x="445.0" y="440" type="curve" smooth="yes"/>
      <point x="385.0" y="442" type="line"/>
      <point x="384.0" y="338" type="line" smooth="yes"/>
      <point x="384.0" y="306"/>
      <point x="402.0" y="286"/>
      <point x="424.0" y="277" type="curve" smooth="yes"/>
    </contour>
  </outline>
</glyph>
<glyph name="indexdown.salt" format="1">
  <advance width="1000"/>
  <unicode hex="E148"/>
  <outline>
    <contour>
      <point x="347.0" y="588" type="curve" smooth="yes"/>
      <point x="735.0" y="588" type="line" smooth="yes"/>
      <point x="747.0" y="588"/>
      <point x="753.0" y="594"/>
      <point x="753.0" y="606" type="curve"/>
      <point x="753.0" y="701" type="line"/>
      <point x="753.0" y="712"/>
      <point x="747.0" y="719"/>
      <point x="735.0" y="719" type="curve" smooth="yes"/>
      <point x="348.0" y="719" type="line" smooth="yes"/>
      <point x="335.0" y="719"/>
      <point x="328.0" y="712"/>
      <point x="328.0" y="701" type="curve" smooth="yes"/>
      <point x="328.0" y="605" type="line"/>
      <point x="328.0" y="594"/>
      <point x="335.0" y="588"/>
    </contour>
    <contour>
      <point x="249.0" y="380" type="curve" smooth="yes"/>
      <point x="274.0" y="339" type="line" smooth="yes"/>
      <point x="278.0" y="332"/>
      <point x="289.0" y="330"/>
      <point x="302.0" y="335" type="curve" smooth="yes"/>
      <point x="426.0" y="382" type="line" smooth="yes"/>
      <point x="465.0" y="397"/>
      <point x="487.0" y="398"/>
      <point x="510.0" y="387" type="curve" smooth="yes"/>
      <point x="558.0" y="365" type="line" smooth="yes"/>
      <point x="581.0" y="355"/>
      <point x="599.0" y="348"/>
      <point x="600.0" y="319" type="curve" smooth="yes"/>
      <point x="611.0" y="21" type="line" smooth="yes"/>
      <point x="611.0" y="9"/>
      <point x="619.0" y="2"/>
      <point x="629.0" y="2" type="curve" smooth="yes"/>
      <point x="683.0" y="2" type="line" smooth="yes"/>
      <point x="693.0" y="2"/>
      <point x="699.0" y="7"/>
      <point x="701.0" y="16" type="curve" smooth="yes"/>
      <point x="747.0" y="354" type="line" smooth="yes"/>
      <point x="750.0" y="377"/>
      <point x="750.0" y="399"/>
      <point x="739.0" y="423" type="curve" smooth="yes"/>
      <point x="670.0" y="577" type="line"/>
      <point x="449.0" y="577" type="line"/>
      <point x="395.0" y="513" type="line" smooth="yes"/>
      <point x="376.0" y="490"/>
      <point x="359.0" y="480"/>
      <point x="325.0" y="456" type="curve" smooth="yes"/>
      <point x="254.0" y="405" type="line" smooth="yes"/>
      <point x="245.0" y="399"/>
      <point x="244.0" y="388"/>
    </contour>
    <contour>
      <point x="395.0" y="360" type="line"/>
      <point x="425.0" y="296" type="line" smooth="yes"/>
      <point x="435.0" y="274"/>
      <point x="455.0" y="256"/>
      <point x="487.0" y="256" type="curve" smooth="yes"/>
      <point x="591.0" y="257" type="line"/>
      <point x="589.0" y="317" type="line" smooth="yes"/>
      <point x="588.0" y="338"/>
      <point x="579.0" y="344"/>
      <point x="560.0" y="353" type="curve" smooth="yes"/>
      <point x="513.0" y="375" type="line"/>
      <point x="508.0" y="370"/>
      <point x="505.0" y="360"/>
      <point x="505.0" y="346" type="curve"/>
      <point x="500.0" y="346" type="line"/>
      <point x="499.0" y="367"/>
      <point x="496.0" y="374"/>
      <point x="483.0" y="385" type="curve"/>
      <point x="467.0" y="386"/>
      <point x="452.0" y="381"/>
      <point x="432.0" y="374" type="curve" smooth="yes"/>
    </contour>
  </outline>
</glyph>
<glyph name="uni25D7.v" format="1">
  <advance width="1335"/>
  <unicode hex="E159"/>
  <outline>
    <contour>
      <point x="668" y="67" type="curve" smooth="yes"/>
      <point x="985" y="67"/>
      <point x="1208" y="290"/>
      <point x="1208" y="607" type="curve" smooth="yes"/>
      <point x="1208" y="653" type="line"/>
      <point x="128" y="653" type="line"/>
      <point x="128" y="607" type="line" smooth="yes"/>
      <point x="128" y="290"/>
      <point x="351" y="67"/>
    </contour>
  </outline>
</glyph>
<glyph name="uni25D7.v_square" format="1">
  <advance width="1280"/>
  <unicode hex="E174"/>
  <outline>
    <contour>
      <point x="100" y="279" type="line"/>
      <point x="100" y="236"/>
      <point x="121" y="215"/>
      <point x="164" y="215" type="curve" smooth="yes"/>
      <point x="1116" y="215" type="line" smooth="yes"/>
      <point x="1159" y="215"/>
      <point x="1180" y="236"/>
      <point x="1180" y="279" type="curve" smooth="yes"/>
      <point x="1180" y="505" type="line"/>
      <point x="100" y="505" type="line"/>
    </contour>
  </outline>
</glyph>
<glyph name="uni25D6.v_rounded" format="1">
  <advance width="1280"/>
  <unicode hex="E177"/>
  <outline>
    <contour>
      <point x="1180" y="200" type="line"/>
      <point x="1180" y="265" type="line" smooth="yes"/>
      <point x="1180" y="418"/>
      <point x="1074" y="520"/>
      <point x="640" y="520" type="curve" smooth="yes"/>
      <point x="206" y="520"/>
      <point x="100" y="418"/>
      <point x="100" y="265" type="curve" smooth="yes"/>
      <point x="100" y="200" type="line"/>
    </contour>
  </outline>
</glyph>
<glyph name="uni25D6.v_wings" format="1">
  <advance width="1280"/>
  <unicode hex="E17F"/>
  <outline>
    <contour>
      <point x="1370" y="132" type="curve" smooth="yes"/>
      <point x="1370" y="608" type="line" smooth="yes"/>
      <point x="1370" y="634"/>
      <point x="1359" y="644"/>
      <point x="1334" y="644" type="curve" smooth="yes"/>
      <point x="1180" y="644" type="line"/>
      <point x="1180" y="784" type="line" smooth="yes"/>
      <point x="1180" y="810"/>
      <point x="1169" y="820"/>
      <point x="1144" y="820" type="curve" smooth="yes"/>
      <point x="136" y="820" type="line" smooth="yes"/>
      <point x="111" y="820"/>
      <point x="100" y="810"/>
      <point x="100" y="784" type="curve" smooth="yes"/>
      <point x="100" y="644" type="line"/>
      <point x="-54" y="644" type="line" smooth="yes"/>
      <point x="-79" y="644"/>
      <point x="-90" y="634"/>
      <point x="-90" y="608" type="curve" smooth="yes"/>
      <point x="-90" y="132" type="line" smooth="yes"/>
      <point x="-90" y="106"/>
      <point x="-79" y="96"/>
      <point x="-54" y="96" type="curve"/>
      <point x="50" y="96"/>
      <point x="100" y="40"/>
      <point x="100" y="-57" type="curve" smooth="yes"/>
      <point x="100" y="-100" type="line" smooth="yes"/>
      <point x="1180" y="-100" type="line" smooth="yes"/>
      <point x="1180" y="-64" type="line" smooth="yes"/>
      <point x="1180" y="37"/>
      <point x="1229" y="96"/>
      <point x="1334" y="96" type="curve"/>
      <point x="1359" y="96"/>
      <point x="1370" y="106"/>
    </contour>
  </outline>
</glyph>
<glyph name="Ccedilla.v" format="1">
  <advance width="1000"/>
  <unicode hex="E193"/>
  <outline>
    <contour>
      <point x="580" y="-56" type="curve" smooth="yes"/>
      <point x="614" y="40" type="line"/>
      <point x="755" y="40" type="line" smooth="yes"/>
      <point x="780" y="40"/>
      <point x="791" y="51"/>
      <point x="791" y="76" type="curve" smooth="yes"/>
      <point x="791" y="195" type="line" smooth="yes"/>
      <point x="791" y="220"/>
      <point x="780" y="231"/>
      <point x="755" y="231" type="curve" smooth="yes"/>
      <point x="485" y="231" type="line" smooth="yes"/>
      <point x="433" y="231"/>
      <point x="424" y="251"/>
      <point x="424" y="279" type="curve" smooth="yes"/>
      <point x="424" y="477" type="line" smooth="yes"/>
      <point x="424" y="503"/>
      <point x="433" y="527"/>
      <point x="485" y="527" type="curve" smooth="yes"/>
      <point x="755" y="527" type="line" smooth="yes"/>
      <point x="780" y="527"/>
      <point x="791" y="538"/>
      <point x="791" y="563" type="curve" smooth="yes"/>
      <point x="791" y="684" type="line" smooth="yes"/>
      <point x="791" y="709"/>
      <point x="780" y="720"/>
      <point x="755" y="720" type="curve" smooth="yes"/>
      <point x="442" y="720" type="line" smooth="yes"/>
      <point x="253" y="720"/>
      <point x="196" y="637"/>
      <point x="196" y="515" type="curve" smooth="yes"/>
      <point x="196" y="244" type="line" smooth="yes"/>
      <point x="196" y="130"/>
      <point x="247" y="50"/>
      <point x="410" y="41" type="curve"/>
      <point x="378" y="-46" type="line" smooth="yes"/>
      <point x="369" y="-70"/>
      <point x="374" y="-86"/>
      <point x="408" y="-86" type="curve" smooth="yes"/>
      <point x="534" y="-86" type="line"/>
      <point x="560" y="-86"/>
      <point x="573" y="-77"/>
    </contour>
  </outline>
</glyph>
<glyph name="Scedilla.v" format="1">
  <advance width="1000"/>
  <unicode hex="E1C6"/>
  <outline>
    <contour>
      <point x="544" y="-56" type="curve" smooth="yes"/>
      <point x="578" y="40" type="line"/>
      <point x="594" y="40" type="line" smooth="yes"/>
      <point x="723" y="40"/>
      <point x="801" y="102"/>
      <point x="801" y="216" type="curve" smooth="yes"/>
      <point x="801" y="311" type="line" smooth="yes"/>
      <point x="801" y="423"/>
      <point x="739" y="458"/>
      <point x="645" y="472" type="curve" smooth="yes"/>
      <point x="454" y="482" type="line" smooth="yes"/>
      <point x="437" y="484"/>
      <point x="427" y="491"/>
      <point x="427" y="509" type="curve" smooth="yes"/>
      <point x="427" y="527"/>
      <point x="437" y="539"/>
      <point x="454" y="539" type="curve" smooth="yes"/>
      <point x="739" y="539" type="line" smooth="yes"/>
      <point x="764" y="539"/>
      <point x="775" y="550"/>
      <point x="775" y="575" type="curve" smooth="yes"/>
      <point x="775" y="684" type="line" smooth="yes"/>
      <point x="775" y="709"/>
      <point x="764" y="720"/>
      <point x="739" y="720" type="curve" smooth="yes"/>
      <point x="407" y="720" type="line" smooth="yes"/>
      <point x="277" y="720"/>
      <point x="200" y="658"/>
      <point x="200" y="544" type="curve" smooth="yes"/>
      <point x="200" y="449" type="line" smooth="yes"/>
      <point x="200" y="337"/>
      <point x="261" y="302"/>
      <point x="355" y="288" type="curve" smooth="yes"/>
      <point x="547" y="277" type="line" smooth="yes"/>
      <point x="564" y="275"/>
      <point x="573" y="271"/>
      <point x="573" y="248" type="curve" smooth="yes"/>
      <point x="573" y="232"/>
      <point x="564" y="219"/>
      <point x="547" y="219" type="curve" smooth="yes"/>
      <point x="236" y="219" type="line" smooth="yes"/>
      <point x="211" y="219"/>
      <point x="200" y="208"/>
      <point x="200" y="183" type="curve" smooth="yes"/>
      <point x="200" y="76" type="line" smooth="yes"/>
      <point x="200" y="51"/>
      <point x="211" y="40"/>
      <point x="236" y="40" type="curve" smooth="yes"/>
      <point x="374" y="40" type="line"/>
      <point x="342" y="-46" type="line" smooth="yes"/>
      <point x="333" y="-70"/>
      <point x="338" y="-86"/>
      <point x="372" y="-86" type="curve" smooth="yes"/>
      <point x="498" y="-86" type="line"/>
      <point x="524" y="-86"/>
      <point x="537" y="-77"/>
    </contour>
  </outline>
</glyph>
<glyph name="Eth.v" format="1">
  <advance width="1000"/>
  <unicode hex="E1E1"/>
  <outline>
    <contour>
      <point x="554.0" y="0" type="line" smooth="yes"/>
      <point x="743.0" y="0"/>
      <point x="800.0" y="83"/>
      <point x="800.0" y="204" type="curve" smooth="yes"/>
      <point x="800.0" y="516" type="line" smooth="yes"/>
      <point x="800.0" y="637"/>
      <point x="743.0" y="720"/>
      <point x="554.0" y="720" type="curve" smooth="yes"/>
      <point x="236.0" y="720" type="line" smooth="yes"/>
      <point x="211.0" y="720"/>
      <point x="200.0" y="709"/>
      <point x="200.0" y="684" type="curve"/>
      <point x="200.0" y="444" type="line"/>
      <point x="177.0" y="444" type="line" smooth="yes"/>
      <point x="152.0" y="444"/>
      <point x="141.0" y="433"/>
      <point x="141.0" y="408" type="curve" smooth="yes"/>
      <point x="141.0" y="301" type="line" smooth="yes"/>
      <point x="141.0" y="275"/>
      <point x="152.0" y="265"/>
      <point x="177.0" y="265" type="curve"/>
      <point x="200.0" y="265" type="line"/>
      <point x="200.0" y="36" type="line"/>
      <point x="200.0" y="11"/>
      <point x="211.0" y="0"/>
      <point x="236.0" y="0" type="curve" smooth="yes"/>
    </contour>
    <contour>
      <point x="424.0" y="189" type="line"/>
      <point x="424.0" y="265" type="line"/>
      <point x="466.0" y="265" type="line" smooth="yes"/>
      <point x="491.0" y="265"/>
      <point x="502.0" y="275"/>
      <point x="502.0" y="301" type="curve" smooth="yes"/>
      <point x="502.0" y="408" type="line" smooth="yes"/>
      <point x="502.0" y="434"/>
      <point x="491.0" y="444"/>
      <point x="466.0" y="444" type="curve" smooth="yes"/>
      <point x="424.0" y="444" type="line"/>
      <point x="424.0" y="529" type="line"/>
      <point x="527.0" y="529" type="line" smooth="yes"/>
      <point x="567.0" y="529"/>
      <point x="574.0" y="507"/>
      <point x="574.0" y="481" type="curve" smooth="yes"/>
      <point x="574.0" y="238" type="line" smooth="yes"/>
      <point x="574.0" y="211"/>
      <point x="567.0" y="189"/>
      <point x="527.0" y="189" type="curve" smooth="yes"/>
    </contour>
  </outline>
</glyph>
<glyph name="Ldot.v" format="1">
  <advance width="1000"/>
  <unicode hex="E1E7"/>
  <outline>
    <contour>
      <point x="764" y="40" type="line" smooth="yes"/>
      <point x="789" y="40"/>
      <point x="800" y="51"/>
      <point x="800" y="76" type="curve" smooth="yes"/>
      <point x="800" y="381" type="line" smooth="yes"/>
      <point x="800" y="406"/>
      <point x="789" y="417"/>
      <point x="764" y="417" type="curve" smooth="yes"/>
      <point x="619" y="417" type="line" smooth="yes"/>
      <point x="594" y="417"/>
      <point x="583" y="406"/>
      <point x="583" y="381" type="curve" smooth="yes"/>
      <point x="583" y="229" type="line"/>
      <point x="427" y="229" type="line"/>
      <point x="427" y="684" type="line" smooth="yes"/>
      <point x="427" y="709"/>
      <point x="416" y="720"/>
      <point x="391" y="720" type="curve" smooth="yes"/>
      <point x="236" y="720" type="line" smooth="yes"/>
      <point x="211" y="720"/>
      <point x="200" y="709"/>
      <point x="200" y="684" type="curve" smooth="yes"/>
      <point x="200" y="76" type="line" smooth="yes"/>
      <point x="200" y="51"/>
      <point x="211" y="40"/>
      <point x="236" y="40" type="curve" smooth="yes"/>
    </contour>
    <contour>
      <point x="596" y="-220" type="line" smooth="yes"/>
      <point x="621" y="-220"/>
      <point x="632" y="-209"/>
      <point x="632" y="-184" type="curve" smooth="yes"/>
      <point x="632" y="-57" type="line" smooth="yes"/>
      <point x="632" y="-32"/>
      <point x="621" y="-21"/>
      <point x="596" y="-21" type="curve" smooth="yes"/>
      <point x="438" y="-21" type="line" smooth="yes"/>
      <point x="413" y="-21"/>
      <point x="402" y="-32"/>
      <point x="402" y="-57" type="curve" smooth="yes"/>
      <point x="402" y="-184" type="line" smooth="yes"/>
      <point x="402" y="-209"/>
      <point x="413" y="-220"/>
      <point x="438" y="-220" type="curve" smooth="yes"/>
    </contour>
  </outline>
</glyph>
<glyph name="Iogonek.salt_v" format="1">
  <advance width="1000"/>
  <unicode hex="E20A"/>
  <outline>
    <contour>
      <point x="611" y="-152" type="curve" smooth="yes"/>
      <point x="611" y="-80" type="line" smooth="yes"/>
      <point x="611" y="-54"/>
      <point x="603" y="-46"/>
      <point x="575" y="-46" type="curve" smooth="yes"/>
      <point x="534" y="-46" type="line"/>
      <point x="541" y="0" type="line"/>
      <point x="579" y="0" type="line" smooth="yes"/>
      <point x="604" y="0"/>
      <point x="615" y="11"/>
      <point x="615" y="36" type="curve" smooth="yes"/>
      <point x="615" y="644" type="line" smooth="yes"/>
      <point x="615" y="669"/>
      <point x="604" y="680"/>
      <point x="579" y="680" type="curve" smooth="yes"/>
      <point x="420" y="680" type="line" smooth="yes"/>
      <point x="395" y="680"/>
      <point x="384" y="669"/>
      <point x="384" y="644" type="curve"/>
      <point x="384" y="50" type="line"/>
      <point x="366" y="-51" type="line" smooth="yes"/>
      <point x="352" y="-144"/>
      <point x="381" y="-186"/>
      <point x="467" y="-186" type="curve" smooth="yes"/>
      <point x="578" y="-186" type="line" smooth="yes"/>
      <point x="604" y="-186"/>
      <point x="611" y="-178"/>
    </contour>
  </outline>
</glyph>
<glyph name="Lslash.salt_v" format="1">
  <advance width="1000"/>
  <unicode hex="E211"/>
  <outline>
    <contour>
      <point x="755" y="0" type="line" smooth="yes"/>
      <point x="780" y="0"/>
      <point x="791" y="11"/>
      <point x="791" y="36" type="curve" smooth="yes"/>
      <point x="791" y="157" type="line" smooth="yes"/>
      <point x="791" y="182"/>
      <point x="780" y="193"/>
      <point x="755" y="193" type="curve" smooth="yes"/>
      <point x="428" y="193" type="line"/>
      <point x="428" y="324" type="line"/>
      <point x="486" y="333" type="line" smooth="yes"/>
      <point x="511" y="337"/>
      <point x="522" y="343"/>
      <point x="522" y="369" type="curve" smooth="yes"/>
      <point x="522" y="476" type="line" smooth="yes"/>
      <point x="522" y="502"/>
      <point x="511" y="516"/>
      <point x="486" y="512" type="curve" smooth="yes"/>
      <point x="428" y="503" type="line"/>
      <point x="428" y="684" type="line" smooth="yes"/>
      <point x="428" y="709"/>
      <point x="417" y="720"/>
      <point x="392" y="720" type="curve" smooth="yes"/>
      <point x="237" y="720" type="line" smooth="yes"/>
      <point x="212" y="720"/>
      <point x="201" y="709"/>
      <point x="201" y="684" type="curve" smooth="yes"/>
      <point x="201" y="466" type="line"/>
      <point x="178" y="462" type="line" smooth="yes"/>
      <point x="153" y="458"/>
      <point x="142" y="451"/>
      <point x="142" y="426" type="curve" smooth="yes"/>
      <point x="142" y="319" type="line" smooth="yes"/>
      <point x="142" y="293"/>
      <point x="153" y="279"/>
      <point x="178" y="283" type="curve" smooth="yes"/>
      <point x="201" y="287" type="line"/>
      <point x="201" y="36" type="line" smooth="yes"/>
      <point x="201" y="11"/>
      <point x="212" y="0"/>
      <point x="237" y="0" type="curve" smooth="yes"/>
    </contour>
  </outline>
</glyph>
<glyph name="ampersand.salt_v" format="1">
  <advance width="1000"/>
  <unicode hex="E243"/>
  <outline>
    <contour>
      <point x="648.0" y="-54" type="curve" smooth="yes"/>
      <point x="648.0" y="0" type="line"/>
      <point x="765.0" y="0" type="line"/>
      <point x="790.0" y="0"/>
      <point x="801.0" y="11"/>
      <point x="801.0" y="36" type="curve" smooth="yes"/>
      <point x="801.0" y="153" type="line" smooth="yes"/>
      <point x="801.0" y="178"/>
      <point x="790.0" y="189"/>
      <point x="765.0" y="189" type="curve" smooth="yes"/>
      <point x="455.0" y="189" type="line"/>
      <point x="423.0" y="189"/>
      <point x="417.0" y="203"/>
      <point x="417.0" y="219" type="curve" smooth="yes"/>
      <point x="417.0" y="246" type="line" smooth="yes"/>
      <point x="417.0" y="262"/>
      <point x="423.0" y="275"/>
      <point x="455.0" y="275" type="curve" smooth="yes"/>
      <point x="684.0" y="275" type="line"/>
      <point x="709.0" y="275"/>
      <point x="720.0" y="286"/>
      <point x="720.0" y="311" type="curve" smooth="yes"/>
      <point x="720.0" y="418" type="line" smooth="yes"/>
      <point x="720.0" y="443"/>
      <point x="709.0" y="454"/>
      <point x="684.0" y="454" type="curve"/>
      <point x="520.0" y="454" type="line" smooth="yes"/>
      <point x="488.0" y="454"/>
      <point x="482.0" y="468"/>
      <point x="482.0" y="484" type="curve" smooth="yes"/>
      <point x="482.0" y="501" type="line" smooth="yes"/>
      <point x="482.0" y="517"/>
      <point x="488.0" y="531"/>
      <point x="520.0" y="531" type="curve" smooth="yes"/>
      <point x="765.0" y="531" type="line"/>
      <point x="790.0" y="531"/>
      <point x="801.0" y="542"/>
      <point x="801.0" y="567" type="curve" smooth="yes"/>
      <point x="801.0" y="684" type="line" smooth="yes"/>
      <point x="801.0" y="709"/>
      <point x="790.0" y="720"/>
      <point x="765.0" y="720" type="curve"/>
      <point x="648.0" y="720" type="line"/>
      <point x="648.0" y="774" type="line" smooth="yes"/>
      <point x="648.0" y="799"/>
      <point x="637.0" y="810"/>
      <point x="612.0" y="810" type="curve" smooth="yes"/>
      <point x="467.0" y="810" type="line" smooth="yes"/>
      <point x="442.0" y="810"/>
      <point x="431.0" y="799"/>
      <point x="431.0" y="774" type="curve" smooth="yes"/>
      <point x="431.0" y="719" type="line"/>
      <point x="312.0" y="712"/>
      <point x="263.0" y="650"/>
      <point x="263.0" y="567" type="curve" smooth="yes"/>
      <point x="263.0" y="519" type="line" smooth="yes"/>
      <point x="263.0" y="468"/>
      <point x="278.0" y="430"/>
      <point x="322.0" y="411" type="curve"/>
      <point x="250.0" y="404"/>
      <point x="196.0" y="350"/>
      <point x="196.0" y="256" type="curve" smooth="yes"/>
      <point x="196.0" y="148" type="line" smooth="yes"/>
      <point x="196.0" y="63"/>
      <point x="262.0" y="0"/>
      <point x="390.0" y="0" type="curve" smooth="yes"/>
      <point x="431.0" y="0" type="line"/>
      <point x="431.0" y="-54" type="line" smooth="yes"/>
      <point x="431.0" y="-79"/>
      <point x="442.0" y="-90"/>
      <point x="467.0" y="-90" type="curve" smooth="yes"/>
      <point x="612.0" y="-90" type="line" smooth="yes"/>
      <point x="637.0" y="-90"/>
      <point x="648.0" y="-79"/>
    </contour>
  </outline>
</glyph>
<glyph name="G.s_v" format="1">
  <advance width="1000"/>
  <unicode hex="E24A"/>
  <outline>
    <contour>
      <point x="764.0" y="0" type="line" smooth="yes"/>
      <point x="789.0" y="0"/>
      <point x="800.0" y="11"/>
      <point x="800.0" y="36" type="curve" smooth="yes"/>
      <point x="800.0" y="325" type="line" smooth="yes"/>
      <point x="800.0" y="350"/>
      <point x="789.0" y="361"/>
      <point x="764.0" y="361" type="curve" smooth="yes"/>
      <point x="609.0" y="361" type="line" smooth="yes"/>
      <point x="584.0" y="361"/>
      <point x="573.0" y="350"/>
      <point x="573.0" y="325" type="curve" smooth="yes"/>
      <point x="573.0" y="189" type="line"/>
      <point x="468.0" y="189" type="line" smooth="yes"/>
      <point x="428.0" y="189"/>
      <point x="422.0" y="211"/>
      <point x="422.0" y="238" type="curve" smooth="yes"/>
      <point x="422.0" y="437" type="line" smooth="yes"/>
      <point x="422.0" y="463"/>
      <point x="431.0" y="487"/>
      <point x="483.0" y="487" type="curve" smooth="yes"/>
      <point x="699.0" y="487" type="line" smooth="yes"/>
      <point x="724.0" y="487"/>
      <point x="735.0" y="498"/>
      <point x="735.0" y="523" type="curve" smooth="yes"/>
      <point x="735.0" y="644" type="line" smooth="yes"/>
      <point x="735.0" y="669"/>
      <point x="724.0" y="680"/>
      <point x="699.0" y="680" type="curve" smooth="yes"/>
      <point x="441.0" y="680" type="line" smooth="yes"/>
      <point x="252.0" y="680"/>
      <point x="195.0" y="597"/>
      <point x="195.0" y="476" type="curve" smooth="yes"/>
      <point x="195.0" y="204" type="line" smooth="yes"/>
      <point x="195.0" y="83"/>
      <point x="252.0" y="0"/>
      <point x="441.0" y="0" type="curve" smooth="yes"/>
    </contour>
  </outline>
</glyph>
<glyph name="I.s_v" format="1">
  <advance width="1000"/>
  <unicode hex="E24C"/>
  <outline>
    <contour>
      <point x="245.0" y="0" type="curve" smooth="yes"/>
      <point x="755.0" y="0" type="line" smooth="yes"/>
      <point x="780.0" y="0"/>
      <point x="791.0" y="11"/>
      <point x="791.0" y="36" type="curve" smooth="yes"/>
      <point x="791.0" y="155" type="line" smooth="yes"/>
      <point x="791.0" y="180"/>
      <point x="780.0" y="191"/>
      <point x="755.0" y="191" type="curve" smooth="yes"/>
      <point x="621.0" y="191" type="line"/>
      <point x="621.0" y="487" type="line"/>
      <point x="755.0" y="487" type="line" smooth="yes"/>
      <point x="780.0" y="487"/>
      <point x="791.0" y="498"/>
      <point x="791.0" y="523" type="curve" smooth="yes"/>
      <point x="791.0" y="644" type="line" smooth="yes"/>
      <point x="791.0" y="669"/>
      <point x="780.0" y="680"/>
      <point x="755.0" y="680" type="curve" smooth="yes"/>
      <point x="245.0" y="680" type="line" smooth="yes"/>
      <point x="220.0" y="680"/>
      <point x="209.0" y="669"/>
      <point x="209.0" y="644" type="curve" smooth="yes"/>
      <point x="209.0" y="523" type="line" smooth="yes"/>
      <point x="209.0" y="498"/>
      <point x="220.0" y="487"/>
      <point x="245.0" y="487" type="curve" smooth="yes"/>
      <point x="379.0" y="487" type="line"/>
      <point x="379.0" y="191" type="line"/>
      <point x="245.0" y="191" type="line" smooth="yes"/>
      <point x="220.0" y="191"/>
      <point x="209.0" y="180"/>
      <point x="209.0" y="155" type="curve" smooth="yes"/>
      <point x="209.0" y="36" type="line" smooth="yes"/>
      <point x="209.0" y="11"/>
      <point x="220.0" y="0"/>
    </contour>
  </outline>
</glyph>
<glyph name="T.s_v" format="1">
  <advance width="1000"/>
  <unicode hex="E254"/>
  <outline>
    <contour>
      <point x="584.0" y="0" type="line" smooth="yes"/>
      <point x="609.0" y="0"/>
      <point x="620.0" y="11"/>
      <point x="620.0" y="36" type="curve" smooth="yes"/>
      <point x="620.0" y="487" type="line"/>
      <point x="764.0" y="487" type="line" smooth="yes"/>
      <point x="789.0" y="487"/>
      <point x="800.0" y="498"/>
      <point x="800.0" y="523" type="curve" smooth="yes"/>
      <point x="800.0" y="644" type="line" smooth="yes"/>
      <point x="800.0" y="669"/>
      <point x="789.0" y="680"/>
      <point x="764.0" y="680" type="curve" smooth="yes"/>
      <point x="236.0" y="680" type="line" smooth="yes"/>
      <point x="211.0" y="680"/>
      <point x="200.0" y="669"/>
      <point x="200.0" y="644" type="curve" smooth="yes"/>
      <point x="200.0" y="523" type="line" smooth="yes"/>
      <point x="200.0" y="498"/>
      <point x="211.0" y="487"/>
      <point x="236.0" y="487" type="curve" smooth="yes"/>
      <point x="380.0" y="487" type="line"/>
      <point x="380.0" y="36" type="line" smooth="yes"/>
      <point x="380.0" y="11"/>
      <point x="391.0" y="0"/>
      <point x="416.0" y="0" type="curve" smooth="yes"/>
    </contour>
  </outline>
</glyph>
<glyph name="W.s_v" format="1">
  <advance width="1000"/>
  <unicode hex="E256"/>
  <outline>
    <contour>
      <point x="653.0" y="680" type="line" smooth="yes"/>
      <point x="628.0" y="680"/>
      <point x="622.0" y="669"/>
      <point x="622.0" y="644" type="curve" smooth="yes"/>
      <point x="619.0" y="372" type="line"/>
      <point x="619.0" y="341" type="line"/>
      <point x="579.0" y="459" type="line"/>
      <point x="566.0" y="481"/>
      <point x="552.0" y="490"/>
      <point x="526.0" y="490" type="curve" smooth="yes"/>
      <point x="495.0" y="490" type="line" smooth="yes"/>
      <point x="469.0" y="490"/>
      <point x="455.0" y="481"/>
      <point x="442.0" y="459" type="curve"/>
      <point x="402.0" y="341" type="line"/>
      <point x="402.0" y="372" type="line"/>
      <point x="398.0" y="644" type="line" smooth="yes"/>
      <point x="398.0" y="669"/>
      <point x="387.0" y="680"/>
      <point x="362.0" y="680" type="curve" smooth="yes"/>
      <point x="214.0" y="680" type="line" smooth="yes"/>
      <point x="189.0" y="680"/>
      <point x="178.0" y="669"/>
      <point x="178.0" y="644" type="curve" smooth="yes"/>
      <point x="182.0" y="318" type="line"/>
      <point x="182.0" y="256"/>
      <point x="182.0" y="242"/>
      <point x="200.0" y="174" type="curve" smooth="yes"/>
      <point x="236.0" y="36" type="line" smooth="yes"/>
      <point x="242.0" y="12"/>
      <point x="257.0" y="0"/>
      <point x="282.0" y="0" type="curve" smooth="yes"/>
      <point x="390.0" y="0" type="line" smooth="yes"/>
      <point x="421.0" y="0"/>
      <point x="434.0" y="10"/>
      <point x="440.0" y="30" type="curve" smooth="yes"/>
      <point x="493.0" y="206" type="line"/>
      <point x="517.0" y="206" type="line"/>
      <point x="570.0" y="30" type="line" smooth="yes"/>
      <point x="576.0" y="9"/>
      <point x="589.0" y="0"/>
      <point x="620.0" y="0" type="curve" smooth="yes"/>
      <point x="720.0" y="0" type="line" smooth="yes"/>
      <point x="745.0" y="0"/>
      <point x="758.0" y="12"/>
      <point x="764.0" y="36" type="curve" smooth="yes"/>
      <point x="800.0" y="172" type="line" smooth="yes"/>
      <point x="818.0" y="240"/>
      <point x="818.0" y="255"/>
      <point x="818.0" y="316" type="curve"/>
      <point x="822.0" y="644" type="line" smooth="yes"/>
      <point x="822.0" y="669"/>
      <point x="812.0" y="680"/>
      <point x="786.0" y="680" type="curve" smooth="yes"/>
    </contour>
  </outline>
</glyph>
<glyph name="Y.s_v" format="1">
  <advance width="1000"/>
  <unicode hex="E257"/>
  <outline>
    <contour>
      <point x="581.0" y="0" type="line" smooth="yes"/>
      <point x="606.0" y="0"/>
      <point x="617.0" y="11"/>
      <point x="617.0" y="36" type="curve" smooth="yes"/>
      <point x="617.0" y="154" type="line"/>
      <point x="763.0" y="359" type="line" smooth="yes"/>
      <point x="793.0" y="400"/>
      <point x="801.0" y="430"/>
      <point x="801.0" y="482" type="curve" smooth="yes"/>
      <point x="801.0" y="644" type="line" smooth="yes"/>
      <point x="801.0" y="669"/>
      <point x="790.0" y="680"/>
      <point x="765.0" y="680" type="curve" smooth="yes"/>
      <point x="616.0" y="680" type="line" smooth="yes"/>
      <point x="591.0" y="680"/>
      <point x="580.0" y="669"/>
      <point x="580.0" y="644" type="curve" smooth="yes"/>
      <point x="580.0" y="510" type="line" smooth="yes"/>
      <point x="580.0" y="496"/>
      <point x="580.0" y="482"/>
      <point x="571.0" y="468" type="curve"/>
      <point x="531.0" y="396" type="line" smooth="yes"/>
      <point x="524.0" y="384"/>
      <point x="518.0" y="379"/>
      <point x="507.0" y="379" type="curve" smooth="yes"/>
      <point x="497.0" y="379" type="line" smooth="yes"/>
      <point x="486.0" y="379"/>
      <point x="480.0" y="384"/>
      <point x="473.0" y="396" type="curve" smooth="yes"/>
      <point x="434.0" y="468" type="line"/>
      <point x="425.0" y="482"/>
      <point x="425.0" y="496"/>
      <point x="425.0" y="510" type="curve" smooth="yes"/>
      <point x="425.0" y="644" type="line" smooth="yes"/>
      <point x="425.0" y="669"/>
      <point x="414.0" y="680"/>
      <point x="389.0" y="680" type="curve" smooth="yes"/>
      <point x="235.0" y="680" type="line" smooth="yes"/>
      <point x="210.0" y="680"/>
      <point x="199.0" y="669"/>
      <point x="199.0" y="644" type="curve" smooth="yes"/>
      <point x="199.0" y="482" type="line" smooth="yes"/>
      <point x="199.0" y="430"/>
      <point x="206.0" y="400"/>
      <point x="237.0" y="359" type="curve" smooth="yes"/>
      <point x="383.0" y="155" type="line"/>
      <point x="383.0" y="36" type="line" smooth="yes"/>
      <point x="383.0" y="11"/>
      <point x="393.0" y="0"/>
      <point x="419.0" y="0" type="curve" smooth="yes"/>
    </contour>
  </outline>
</glyph>
<glyph name="A.salt_s_v" format="1">
  <advance width="1000"/>
  <unicode hex="E259"/>
  <outline>
    <contour>
      <point x="418.0" y="457" type="line" smooth="yes"/>
      <point x="418.0" y="484"/>
      <point x="427.0" y="504"/>
      <point x="498.0" y="504" type="curve" smooth="yes"/>
      <point x="568.0" y="504"/>
      <point x="577.0" y="484"/>
      <point x="577.0" y="457" type="curve"/>
      <point x="577.0" y="348" type="line"/>
      <point x="418.0" y="348" type="line"/>
    </contour>
    <contour>
      <point x="418.0" y="36" type="curve" smooth="yes"/>
      <point x="418.0" y="165" type="line"/>
      <point x="577.0" y="165" type="line"/>
      <point x="577.0" y="36" type="line" smooth="yes"/>
      <point x="577.0" y="11"/>
      <point x="588.0" y="0"/>
      <point x="613.0" y="0" type="curve" smooth="yes"/>
      <point x="765.0" y="0" type="line" smooth="yes"/>
      <point x="790.0" y="0"/>
      <point x="801.0" y="11"/>
      <point x="801.0" y="36" type="curve" smooth="yes"/>
      <point x="801.0" y="491" type="line" smooth="yes"/>
      <point x="801.0" y="612"/>
      <point x="748.0" y="695"/>
      <point x="499.0" y="695" type="curve" smooth="yes"/>
      <point x="251.0" y="695"/>
      <point x="199.0" y="612"/>
      <point x="199.0" y="491" type="curve" smooth="yes"/>
      <point x="199.0" y="36" type="line"/>
      <point x="199.0" y="11"/>
      <point x="210.0" y="0"/>
      <point x="235.0" y="0" type="curve" smooth="yes"/>
      <point x="382.0" y="0" type="line" smooth="yes"/>
      <point x="407.0" y="0"/>
      <point x="418.0" y="11"/>
    </contour>
  </outline>
</glyph>
<glyph name="N.salt_s_v" format="1">
  <advance width="1000"/>
  <unicode hex="E25C"/>
  <outline>
    <contour>
      <point x="200.0" y="491" type="curve" smooth="yes"/>
      <point x="200.0" y="36" type="line" smooth="yes"/>
      <point x="200.0" y="11"/>
      <point x="211.0" y="0"/>
      <point x="236.0" y="0" type="curve" smooth="yes"/>
      <point x="388.0" y="0" type="line" smooth="yes"/>
      <point x="414.0" y="0"/>
      <point x="424.0" y="11"/>
      <point x="424.0" y="36" type="curve" smooth="yes"/>
      <point x="424.0" y="452" type="line" smooth="yes"/>
      <point x="424.0" y="479"/>
      <point x="436.0" y="499"/>
      <point x="498.0" y="499" type="curve" smooth="yes"/>
      <point x="559.0" y="499"/>
      <point x="571.0" y="479"/>
      <point x="571.0" y="452" type="curve" smooth="yes"/>
      <point x="571.0" y="36" type="line" smooth="yes"/>
      <point x="571.0" y="11"/>
      <point x="582.0" y="0"/>
      <point x="607.0" y="0" type="curve" smooth="yes"/>
      <point x="764.0" y="0" type="line" smooth="yes"/>
      <point x="789.0" y="0"/>
      <point x="800.0" y="11"/>
      <point x="800.0" y="36" type="curve"/>
      <point x="800.0" y="491" type="line" smooth="yes"/>
      <point x="800.0" y="613"/>
      <point x="748.0" y="695"/>
      <point x="500.0" y="695" type="curve" smooth="yes"/>
      <point x="252.0" y="695"/>
      <point x="200.0" y="613"/>
    </contour>
  </outline>
</glyph>
<glyph name="ampersand.v" format="1">
  <advance width="1000"/>
  <unicode hex="FF06"/>
  <outline>
    <contour>
      <point x="443.0" y="187" type="line" smooth="yes"/>
      <point x="411.0" y="187"/>
      <point x="405.0" y="201"/>
      <point x="405.0" y="217" type="curve" smooth="yes"/>
      <point x="405.0" y="248" type="line" smooth="yes"/>
      <point x="405.0" y="264"/>
      <point x="411.0" y="277"/>
      <point x="443.0" y="277" type="curve" smooth="yes"/>
      <point x="518.0" y="277" type="line" smooth="yes"/>
      <point x="543.0" y="277"/>
      <point x="554.0" y="288"/>
      <point x="554.0" y="313" type="curve" smooth="yes"/>
      <point x="554.0" y="416" type="line" smooth="yes"/>
      <point x="554.0" y="441"/>
      <point x="543.0" y="452"/>
      <point x="518.0" y="452" type="curve" smooth="yes"/>
      <point x="508.0" y="452" type="line" smooth="yes"/>
      <point x="476.0" y="452"/>
      <point x="470.0" y="466"/>
      <point x="470.0" y="482" type="curve" smooth="yes"/>
      <point x="470.0" y="503" type="line" smooth="yes"/>
      <point x="470.0" y="519"/>
      <point x="476.0" y="533"/>
      <point x="508.0" y="533" type="curve" smooth="yes"/>
      <point x="624.0" y="533" type="line" smooth="yes"/>
      <point x="649.0" y="533"/>
      <point x="660.0" y="544"/>
      <point x="660.0" y="569" type="curve" smooth="yes"/>
      <point x="660.0" y="684" type="line" smooth="yes"/>
      <point x="660.0" y="709"/>
      <point x="649.0" y="720"/>
      <point x="624.0" y="720" type="curve" smooth="yes"/>
      <point x="443.0" y="720" type="line" smooth="yes"/>
      <point x="307.0" y="720"/>
      <point x="251.0" y="655"/>
      <point x="251.0" y="567" type="curve" smooth="yes"/>
      <point x="251.0" y="519" type="line" smooth="yes"/>
      <point x="251.0" y="468"/>
      <point x="266.0" y="430"/>
      <point x="310.0" y="411" type="curve"/>
      <point x="238.0" y="404"/>
      <point x="184.0" y="350"/>
      <point x="184.0" y="256" type="curve" smooth="yes"/>
      <point x="184.0" y="176" type="line" smooth="yes"/>
      <point x="184.0" y="69"/>
      <point x="250.0" y="0"/>
      <point x="373.0" y="0" type="curve" smooth="yes"/>
      <point x="621.0" y="0" type="line" smooth="yes"/>
      <point x="737.0" y="0"/>
      <point x="800.0" y="69"/>
      <point x="800.0" y="176" type="curve" smooth="yes"/>
      <point x="800.0" y="221" type="line"/>
      <point x="823.0" y="221" type="line" smooth="yes"/>
      <point x="848.0" y="221"/>
      <point x="859.0" y="232"/>
      <point x="859.0" y="257" type="curve" smooth="yes"/>
      <point x="859.0" y="365" type="line" smooth="yes"/>
      <point x="859.0" y="391"/>
      <point x="848.0" y="401"/>
      <point x="823.0" y="401" type="curve" smooth="yes"/>
      <point x="639.0" y="401" type="line" smooth="yes"/>
      <point x="614.0" y="401"/>
      <point x="603.0" y="390"/>
      <point x="603.0" y="365" type="curve" smooth="yes"/>
      <point x="603.0" y="227" type="line" smooth="yes"/>
      <point x="603.0" y="200"/>
      <point x="594.0" y="187"/>
      <point x="565.0" y="187" type="curve" smooth="yes"/>
    </contour>
  </outline>
</glyph>
<glyph name="six.v" format="1">
  <advance width="1000"/>
  <unicode hex="FF16"/>
  <outline>
    <contour>
      <point x="502.0" y="-15" type="curve" smooth="yes"/>
      <point x="732.0" y="-15"/>
      <point x="805.0" y="65"/>
      <point x="805.0" y="187" type="curve" smooth="yes"/>
      <point x="805.0" y="283" type="line" smooth="yes"/>
      <point x="805.0" y="402"/>
      <point x="752.0" y="463"/>
      <point x="571.0" y="463" type="curve" smooth="yes"/>
      <point x="508.0" y="463"/>
      <point x="459.0" y="456"/>
      <point x="421.0" y="442" type="curve"/>
      <point x="421.0" y="470" type="line" smooth="yes"/>
      <point x="421.0" y="519"/>
      <point x="435.0" y="530"/>
      <point x="484.0" y="530" type="curve" smooth="yes"/>
      <point x="693.0" y="530" type="line" smooth="yes"/>
      <point x="718.0" y="530"/>
      <point x="729.0" y="541"/>
      <point x="729.0" y="566" type="curve" smooth="yes"/>
      <point x="729.0" y="684" type="line" smooth="yes"/>
      <point x="729.0" y="709"/>
      <point x="719.0" y="720"/>
      <point x="693.0" y="720" type="curve" smooth="yes"/>
      <point x="441.0" y="720" type="line" smooth="yes"/>
      <point x="252.0" y="720"/>
      <point x="195.0" y="637"/>
      <point x="195.0" y="515" type="curve" smooth="yes"/>
      <point x="195.0" y="187" type="line" smooth="yes"/>
      <point x="195.0" y="65"/>
      <point x="256.0" y="-15"/>
    </contour>
    <contour>
      <point x="421.0" y="255" type="line" smooth="yes"/>
      <point x="421.0" y="282"/>
      <point x="437.0" y="298"/>
      <point x="495.0" y="298" type="curve" smooth="yes"/>
      <point x="555.0" y="298"/>
      <point x="579.0" y="282"/>
      <point x="579.0" y="255" type="curve" smooth="yes"/>
      <point x="579.0" y="208" type="line" smooth="yes"/>
      <point x="579.0" y="182"/>
      <point x="555.0" y="166"/>
      <point x="495.0" y="166" type="curve" smooth="yes"/>
      <point x="437.0" y="166"/>
      <point x="421.0" y="182"/>
      <point x="421.0" y="207" type="curve" smooth="yes"/>
    </contour>
  </outline>
</glyph>
<glyph name="C.v" format="1">
  <advance width="1000"/>
  <unicode hex="FF23"/>
  <outline>
    <contour>
      <point x="755.0" y="0" type="line" smooth="yes"/>
      <point x="780.0" y="0"/>
      <point x="791.0" y="11"/>
      <point x="791.0" y="36" type="curve" smooth="yes"/>
      <point x="791.0" y="155" type="line" smooth="yes"/>
      <point x="791.0" y="180"/>
      <point x="780.0" y="191"/>
      <point x="755.0" y="191" type="curve" smooth="yes"/>
      <point x="485.0" y="191" type="line" smooth="yes"/>
      <point x="433.0" y="191"/>
      <point x="424.0" y="211"/>
      <point x="424.0" y="239" type="curve" smooth="yes"/>
      <point x="424.0" y="477" type="line" smooth="yes"/>
      <point x="424.0" y="503"/>
      <point x="433.0" y="527"/>
      <point x="485.0" y="527" type="curve" smooth="yes"/>
      <point x="755.0" y="527" type="line" smooth="yes"/>
      <point x="780.0" y="527"/>
      <point x="791.0" y="538"/>
      <point x="791.0" y="563" type="curve" smooth="yes"/>
      <point x="791.0" y="684" type="line" smooth="yes"/>
      <point x="791.0" y="709"/>
      <point x="780.0" y="720"/>
      <point x="755.0" y="720" type="curve" smooth="yes"/>
      <point x="442.0" y="720" type="line" smooth="yes"/>
      <point x="253.0" y="720"/>
      <point x="196.0" y="637"/>
      <point x="196.0" y="515" type="curve" smooth="yes"/>
      <point x="196.0" y="204" type="line" smooth="yes"/>
      <point x="196.0" y="83"/>
      <point x="253.0" y="0"/>
      <point x="442.0" y="0" type="curve" smooth="yes"/>
    </contour>
  </outline>
</glyph>
<glyph name="R.v" format="1">
  <advance width="1000"/>
  <unicode hex="FF32"/>
  <outline>
    <contour>
      <point x="426.0" y="540" type="line"/>
      <point x="490.0" y="540" type="line" smooth="yes"/>
      <point x="525.0" y="540"/>
      <point x="534.0" y="520"/>
      <point x="534.0" y="493" type="curve" smooth="yes"/>
      <point x="534.0" y="459" type="line" smooth="yes"/>
      <point x="534.0" y="432"/>
      <point x="525.0" y="412"/>
      <point x="490.0" y="412" type="curve" smooth="yes"/>
      <point x="426.0" y="412" type="line"/>
    </contour>
    <contour>
      <point x="390.0" y="0" type="line" smooth="yes"/>
      <point x="415.0" y="0"/>
      <point x="426.0" y="11"/>
      <point x="426.0" y="36" type="curve" smooth="yes"/>
      <point x="426.0" y="232" type="line"/>
      <point x="545.0" y="232" type="line" smooth="yes"/>
      <point x="573.0" y="232"/>
      <point x="583.0" y="219"/>
      <point x="583.0" y="189" type="curve" smooth="yes"/>
      <point x="583.0" y="36" type="line" smooth="yes"/>
      <point x="583.0" y="11"/>
      <point x="594.0" y="0"/>
      <point x="619.0" y="0" type="curve" smooth="yes"/>
      <point x="774.0" y="0" type="line" smooth="yes"/>
      <point x="799.0" y="0"/>
      <point x="810.0" y="11"/>
      <point x="810.0" y="36" type="curve" smooth="yes"/>
      <point x="810.0" y="248" type="line" smooth="yes"/>
      <point x="810.0" y="332"/>
      <point x="760.0" y="385"/>
      <point x="699.0" y="393" type="curve"/>
      <point x="741.0" y="411"/>
      <point x="755.0" y="451"/>
      <point x="755.0" y="507" type="curve" smooth="yes"/>
      <point x="755.0" y="553" type="line" smooth="yes"/>
      <point x="755.0" y="652"/>
      <point x="708.0" y="720"/>
      <point x="558.0" y="720" type="curve" smooth="yes"/>
      <point x="236.0" y="720" type="line" smooth="yes"/>
      <point x="211.0" y="720"/>
      <point x="200.0" y="709"/>
      <point x="200.0" y="684" type="curve" smooth="yes"/>
      <point x="200.0" y="36" type="line" smooth="yes"/>
      <point x="200.0" y="11"/>
      <point x="211.0" y="0"/>
      <point x="236.0" y="0" type="curve" smooth="yes"/>
    </contour>
  </outline>
</glyph>
<glyph name="U.v" format="1">
  <advance width="1000"/>
  <unicode hex="FF35"/>
  <outline>
    <contour>
      <point x="800.0" y="189" type="curve" smooth="yes"/>
      <point x="800.0" y="684" type="line" smooth="yes"/>
      <point x="800.0" y="709"/>
      <point x="789.0" y="720"/>
      <point x="764.0" y="720" type="curve" smooth="yes"/>
      <point x="612.0" y="720" type="line" smooth="yes"/>
      <point x="586.0" y="720"/>
      <point x="576.0" y="709"/>
      <point x="576.0" y="684" type="curve" smooth="yes"/>
      <point x="576.0" y="228" type="line" smooth="yes"/>
      <point x="576.0" y="201"/>
      <point x="564.0" y="181"/>
      <point x="502.0" y="181" type="curve" smooth="yes"/>
      <point x="441.0" y="181"/>
      <point x="429.0" y="201"/>
      <point x="429.0" y="228" type="curve" smooth="yes"/>
      <point x="429.0" y="684" type="line" smooth="yes"/>
      <point x="429.0" y="709"/>
      <point x="418.0" y="720"/>
      <point x="393.0" y="720" type="curve" smooth="yes"/>
      <point x="236.0" y="720" type="line" smooth="yes"/>
      <point x="211.0" y="720"/>
      <point x="200.0" y="709"/>
      <point x="200.0" y="684" type="curve"/>
      <point x="200.0" y="189" type="line" smooth="yes"/>
      <point x="200.0" y="67"/>
      <point x="260.0" y="-15"/>
      <point x="500.0" y="-15" type="curve" smooth="yes"/>
      <point x="740.0" y="-15"/>
      <point x="800.0" y="67"/>
    </contour>
  </outline>
</glyph>
<glyph name="Y.v" format="1">
  <advance width="1000"/>
  <unicode hex="FF39"/>
  <outline>
    <contour>
      <point x="581.0" y="0" type="line" smooth="yes"/>
      <point x="606.0" y="0"/>
      <point x="617.0" y="11"/>
      <point x="617.0" y="36" type="curve" smooth="yes"/>
      <point x="617.0" y="164" type="line"/>
      <point x="763.0" y="369" type="line" smooth="yes"/>
      <point x="793.0" y="410"/>
      <point x="801.0" y="440"/>
      <point x="801.0" y="492" type="curve" smooth="yes"/>
      <point x="801.0" y="684" type="line" smooth="yes"/>
      <point x="801.0" y="709"/>
      <point x="790.0" y="720"/>
      <point x="765.0" y="720" type="curve" smooth="yes"/>
      <point x="616.0" y="720" type="line" smooth="yes"/>
      <point x="591.0" y="720"/>
      <point x="580.0" y="709"/>
      <point x="580.0" y="684" type="curve" smooth="yes"/>
      <point x="580.0" y="520" type="line" smooth="yes"/>
      <point x="580.0" y="506"/>
      <point x="580.0" y="492"/>
      <point x="571.0" y="478" type="curve" smooth="yes"/>
      <point x="531.0" y="406" type="line" smooth="yes"/>
      <point x="524.0" y="394"/>
      <point x="518.0" y="389"/>
      <point x="507.0" y="389" type="curve"/>
      <point x="497.0" y="389" type="line" smooth="yes"/>
      <point x="486.0" y="389"/>
      <point x="480.0" y="394"/>
      <point x="473.0" y="406" type="curve" smooth="yes"/>
      <point x="434.0" y="478" type="line" smooth="yes"/>
      <point x="425.0" y="492"/>
      <point x="425.0" y="506"/>
      <point x="425.0" y="520" type="curve" smooth="yes"/>
      <point x="425.0" y="684" type="line" smooth="yes"/>
      <point x="425.0" y="709"/>
      <point x="414.0" y="720"/>
      <point x="389.0" y="720" type="curve" smooth="yes"/>
      <point x="235.0" y="720" type="line" smooth="yes"/>
      <point x="210.0" y="720"/>
      <point x="199.0" y="709"/>
      <point x="199.0" y="684" type="curve" smooth="yes"/>
      <point x="199.0" y="492" type="line" smooth="yes"/>
      <point x="199.0" y="440"/>
      <point x="206.0" y="410"/>
      <point x="237.0" y="369" type="curve" smooth="yes"/>
      <point x="383.0" y="165" type="line"/>
      <point x="383.0" y="36" type="line" smooth="yes"/>
      <point x="383.0" y="11"/>
      <point x="393.0" y="0"/>
      <point x="419.0" y="0" type="curve" smooth="yes"/>
    </contour>
    <contour>
      <point x="352.0" y="747.0" type="move" name="top"/>
    </contour>
    <contour>
      <point x="352.0" y="747.0" type="move" name="top"/>
    </contour>
    <contour>
      <point x="352.0" y="0.0" type="move" name="bottom"/>
    </contour>
    <contour>
      <point x="352.0" y="0.0" type="move" name="bottom"/>
    </contour>
  </outline>
</glyph>
<glyph name="Z.v" format="1">
  <advance width="1000"/>
  <unicode hex="FF3A"/>
  <outline>
    <contour>
      <point x="764.0" y="0" type="line" smooth="yes"/>
      <point x="789.0" y="0"/>
      <point x="800.0" y="11"/>
      <point x="800.0" y="36" type="curve" smooth="yes"/>
      <point x="800.0" y="155" type="line" smooth="yes"/>
      <point x="800.0" y="180"/>
      <point x="789.0" y="191"/>
      <point x="764.0" y="191" type="curve" smooth="yes"/>
      <point x="493.0" y="191" type="line"/>
      <point x="767.0" y="472" type="line" smooth="yes"/>
      <point x="785.0" y="491"/>
      <point x="792.0" y="508"/>
      <point x="792.0" y="535" type="curve" smooth="yes"/>
      <point x="792.0" y="684" type="line" smooth="yes"/>
      <point x="792.0" y="709"/>
      <point x="781.0" y="720"/>
      <point x="756.0" y="720" type="curve" smooth="yes"/>
      <point x="244.0" y="720" type="line" smooth="yes"/>
      <point x="219.0" y="720"/>
      <point x="208.0" y="709"/>
      <point x="208.0" y="684" type="curve"/>
      <point x="208.0" y="563" type="line"/>
      <point x="208.0" y="538"/>
      <point x="219.0" y="527"/>
      <point x="244.0" y="527" type="curve" smooth="yes"/>
      <point x="510.0" y="527" type="line"/>
      <point x="225.0" y="232" type="line" smooth="yes"/>
      <point x="207.0" y="213"/>
      <point x="200.0" y="196"/>
      <point x="200.0" y="170" type="curve"/>
      <point x="200.0" y="36" type="line"/>
      <point x="200.0" y="11"/>
      <point x="211.0" y="0"/>
      <point x="236.0" y="0" type="curve" smooth="yes"/>
    </contour>
  </outline>
</glyph>
<glyph name="A.salt" format="1">
  <advance width="736"/>
  <outline>
    <contour>
      <point x="283.0" y="497" type="line" smooth="yes"/>
      <point x="283.0" y="524"/>
      <point x="295.0" y="544"/>
      <point x="366.0" y="544" type="curve" smooth="yes"/>
      <point x="436.0" y="544"/>
      <point x="448.0" y="524"/>
      <point x="448.0" y="497" type="curve"/>
      <point x="448.0" y="368" type="line"/>
      <point x="283.0" y="368" type="line"/>
    </contour>
    <contour>
      <point x="283.0" y="36" type="curve" smooth="yes"/>
      <point x="283.0" y="185" type="line"/>
      <point x="448.0" y="185" type="line"/>
      <point x="448.0" y="36" type="line" smooth="yes"/>
      <point x="448.0" y="11"/>
      <point x="459.0" y="0"/>
      <point x="484.0" y="0" type="curve" smooth="yes"/>
      <point x="636.0" y="0" type="line" smooth="yes"/>
      <point x="661.0" y="0"/>
      <point x="672.0" y="11"/>
      <point x="672.0" y="36" type="curve" smooth="yes"/>
      <point x="672.0" y="531" type="line" smooth="yes"/>
      <point x="672.0" y="652"/>
      <point x="616.0" y="735"/>
      <point x="367.0" y="735" type="curve" smooth="yes"/>
      <point x="119.0" y="735"/>
      <point x="64.0" y="652"/>
      <point x="64.0" y="531" type="curve" smooth="yes"/>
      <point x="64.0" y="36" type="line"/>
      <point x="64.0" y="11"/>
      <point x="75.0" y="0"/>
      <point x="100.0" y="0" type="curve" smooth="yes"/>
      <point x="247.0" y="0" type="line" smooth="yes"/>
      <point x="272.0" y="0"/>
      <point x="283.0" y="11"/>
    </contour>
    <contour>
      <point x="368.0" y="747.0" type="move" name="top"/>
    </contour>
    <contour>
      <point x="368.0" y="0.0" type="move" name="bottom"/>
    </contour>
  </outline>
</glyph>
<glyph name="E.salt_s_v" format="1">
  <advance width="1000"/>
  <outline>
    <contour>
      <point x="790.0" y="36" type="curve" smooth="yes"/>
      <point x="790.0" y="149" type="line" smooth="yes"/>
      <point x="790.0" y="174"/>
      <point x="779.0" y="185"/>
      <point x="754.0" y="185" type="curve" smooth="yes"/>
      <point x="481.0" y="185" type="line"/>
      <point x="429.0" y="185"/>
      <point x="420.0" y="205"/>
      <point x="420.0" y="233" type="curve" smooth="yes"/>
      <point x="420.0" y="261" type="line"/>
      <point x="673.0" y="261" type="line" smooth="yes"/>
      <point x="698.0" y="261"/>
      <point x="709.0" y="272"/>
      <point x="709.0" y="297" type="curve" smooth="yes"/>
      <point x="709.0" y="392" type="line" smooth="yes"/>
      <point x="709.0" y="418"/>
      <point x="698.0" y="428"/>
      <point x="673.0" y="428" type="curve" smooth="yes"/>
      <point x="420.0" y="428" type="line"/>
      <point x="420.0" y="445" type="line" smooth="yes"/>
      <point x="420.0" y="471"/>
      <point x="429.0" y="495"/>
      <point x="481.0" y="495" type="curve"/>
      <point x="754.0" y="495" type="line" smooth="yes"/>
      <point x="779.0" y="495"/>
      <point x="790.0" y="506"/>
      <point x="790.0" y="531" type="curve" smooth="yes"/>
      <point x="790.0" y="644" type="line" smooth="yes"/>
      <point x="790.0" y="669"/>
      <point x="779.0" y="680"/>
      <point x="754.0" y="680" type="curve" smooth="yes"/>
      <point x="442.0" y="680" type="line"/>
      <point x="253.0" y="680"/>
      <point x="196.0" y="597"/>
      <point x="196.0" y="475" type="curve" smooth="yes"/>
      <point x="196.0" y="204" type="line" smooth="yes"/>
      <point x="196.0" y="83"/>
      <point x="253.0" y="0"/>
      <point x="442.0" y="0" type="curve"/>
      <point x="754.0" y="0" type="line" smooth="yes"/>
      <point x="779.0" y="0"/>
      <point x="790.0" y="11"/>
    </contour>
  </outline>
</glyph>
<glyph name="J.s_v" format="1">
  <advance width="1000"/>
  <outline>
    <contour>
      <point x="800.0" y="189" type="curve" smooth="yes"/>
      <point x="800.0" y="644" type="line" smooth="yes"/>
      <point x="800.0" y="669"/>
      <point x="789.0" y="680"/>
      <point x="764.0" y="680" type="curve" smooth="yes"/>
      <point x="607.0" y="680" type="line" smooth="yes"/>
      <point x="582.0" y="680"/>
      <point x="571.0" y="669"/>
      <point x="571.0" y="644" type="curve" smooth="yes"/>
      <point x="571.0" y="229" type="line" smooth="yes"/>
      <point x="571.0" y="202"/>
      <point x="562.0" y="182"/>
      <point x="495.0" y="182" type="curve" smooth="yes"/>
      <point x="424.0" y="182"/>
      <point x="417.0" y="202"/>
      <point x="417.0" y="229" type="curve" smooth="yes"/>
      <point x="417.0" y="351" type="line" smooth="yes"/>
      <point x="417.0" y="377"/>
      <point x="406.0" y="387"/>
      <point x="381.0" y="387" type="curve" smooth="yes"/>
      <point x="236.0" y="387" type="line" smooth="yes"/>
      <point x="211.0" y="387"/>
      <point x="200.0" y="377"/>
      <point x="200.0" y="351" type="curve" smooth="yes"/>
      <point x="200.0" y="189" type="line" smooth="yes"/>
      <point x="200.0" y="67"/>
      <point x="256.0" y="-15"/>
      <point x="497.0" y="-15" type="curve" smooth="yes"/>
      <point x="740.0" y="-15"/>
      <point x="800.0" y="67"/>
    </contour>
  </outline>
</glyph>
<glyph name="Lslash.v" format="1">
  <advance width="1000"/>
  <outline>
    <contour>
      <point x="142.0" y="426" type="curve" smooth="yes"/>
      <point x="142.0" y="319" type="line" smooth="yes"/>
      <point x="142.0" y="293"/>
      <point x="153.0" y="279"/>
      <point x="178.0" y="283" type="curve" smooth="yes"/>
      <point x="486.0" y="333" type="line" smooth="yes"/>
      <point x="511.0" y="337"/>
      <point x="522.0" y="343"/>
      <point x="522.0" y="369" type="curve" smooth="yes"/>
      <point x="522.0" y="476" type="line" smooth="yes"/>
      <point x="522.0" y="502"/>
      <point x="511.0" y="516"/>
      <point x="486.0" y="512" type="curve" smooth="yes"/>
      <point x="178.0" y="462" type="line" smooth="yes"/>
      <point x="153.0" y="458"/>
      <point x="142.0" y="451"/>
    </contour>
    <component base="L.v"/>
  </outline>
</glyph>
<glyph name="M.salt_v" format="1">
  <advance width="1000"/>
  <outline>
    <contour>
      <point x="340.0" y="36" type="curve" smooth="yes"/>
      <point x="340.0" y="499" type="line" smooth="yes"/>
      <point x="340.0" y="526"/>
      <point x="347.0" y="539"/>
      <point x="373.0" y="539" type="curve" smooth="yes"/>
      <point x="399.0" y="539"/>
      <point x="405.0" y="526"/>
      <point x="405.0" y="499" type="curve" smooth="yes"/>
      <point x="405.0" y="36" type="line" smooth="yes"/>
      <point x="405.0" y="11"/>
      <point x="416.0" y="0"/>
      <point x="441.0" y="0" type="curve"/>
      <point x="558.0" y="0" type="line" smooth="yes"/>
      <point x="583.0" y="0"/>
      <point x="594.0" y="11"/>
      <point x="594.0" y="36" type="curve" smooth="yes"/>
      <point x="594.0" y="499" type="line" smooth="yes"/>
      <point x="594.0" y="526"/>
      <point x="600.0" y="539"/>
      <point x="626.0" y="539" type="curve" smooth="yes"/>
      <point x="652.0" y="539"/>
      <point x="659.0" y="526"/>
      <point x="659.0" y="499" type="curve" smooth="yes"/>
      <point x="659.0" y="36" type="line" smooth="yes"/>
      <point x="659.0" y="11"/>
      <point x="669.0" y="0"/>
      <point x="695.0" y="0" type="curve" smooth="yes"/>
      <point x="812.0" y="0" type="line" smooth="yes"/>
      <point x="837.0" y="0"/>
      <point x="848.0" y="11"/>
      <point x="848.0" y="36" type="curve" smooth="yes"/>
      <point x="848.0" y="531" type="line"/>
      <point x="848.0" y="653"/>
      <point x="800.0" y="735"/>
      <point x="649.0" y="735" type="curve" smooth="yes"/>
      <point x="574.0" y="735"/>
      <point x="527.0" y="717"/>
      <point x="499.0" y="685" type="curve"/>
      <point x="472.0" y="717"/>
      <point x="425.0" y="735"/>
      <point x="350.0" y="735" type="curve" smooth="yes"/>
      <point x="199.0" y="735"/>
      <point x="151.0" y="653"/>
      <point x="151.0" y="531" type="curve"/>
      <point x="151.0" y="36" type="line" smooth="yes"/>
      <point x="151.0" y="11"/>
      <point x="162.0" y="0"/>
      <point x="187.0" y="0" type="curve" smooth="yes"/>
      <point x="304.0" y="0" type="line" smooth="yes"/>
      <point x="330.0" y="0"/>
      <point x="340.0" y="11"/>
    </contour>
  </outline>
</glyph>
<glyph name="N.salt_v" format="1">
  <advance width="1000"/>
  <outline>
    <contour>
      <point x="200.0" y="532" type="curve" smooth="yes"/>
      <point x="200.0" y="37" type="line" smooth="yes"/>
      <point x="200.0" y="12"/>
      <point x="211.0" y="0"/>
      <point x="236.0" y="0" type="curve" smooth="yes"/>
      <point x="388.0" y="0" type="line" smooth="yes"/>
      <point x="414.0" y="0"/>
      <point x="424.0" y="12"/>
      <point x="424.0" y="37" type="curve" smooth="yes"/>
      <point x="424.0" y="493" type="line" smooth="yes"/>
      <point x="424.0" y="520"/>
      <point x="436.0" y="540"/>
      <point x="498.0" y="540" type="curve" smooth="yes"/>
      <point x="559.0" y="540"/>
      <point x="571.0" y="520"/>
      <point x="571.0" y="493" type="curve" smooth="yes"/>
      <point x="571.0" y="37" type="line" smooth="yes"/>
      <point x="571.0" y="12"/>
      <point x="582.0" y="0"/>
      <point x="607.0" y="0" type="curve" smooth="yes"/>
      <point x="764.0" y="0" type="line" smooth="yes"/>
      <point x="789.0" y="0"/>
      <point x="800.0" y="12"/>
      <point x="800.0" y="37" type="curve"/>
      <point x="800.0" y="532" type="line" smooth="yes"/>
      <point x="800.0" y="654"/>
      <point x="748.0" y="736"/>
      <point x="500.0" y="736" type="curve" smooth="yes"/>
      <point x="252.0" y="736"/>
      <point x="200.0" y="654"/>
    </contour>
    <contour>
      <point x="509.0" y="747.0" type="move" name="top"/>
    </contour>
    <contour>
      <point x="509.0" y="0.0" type="move" name="bottom"/>
    </contour>
  </outline>
</glyph>
<glyph name="Oslash.v" format="1">
  <advance width="1000"/>
  <outline>
    <contour>
      <point x="406.0" y="494" type="line" smooth="yes"/>
      <point x="406.0" y="526"/>
      <point x="420.0" y="550"/>
      <point x="500.0" y="550" type="curve" smooth="yes"/>
      <point x="504.0" y="550"/>
      <point x="508.0" y="550"/>
      <point x="512.0" y="550" type="curve"/>
      <point x="406.0" y="300" type="line"/>
    </contour>
    <contour>
      <point x="500.0" y="168" type="curve" smooth="yes"/>
      <point x="495.0" y="168"/>
      <point x="490.0" y="168"/>
      <point x="486.0" y="168" type="curve"/>
      <point x="594.0" y="423" type="line"/>
      <point x="594.0" y="225" type="line" smooth="yes"/>
      <point x="594.0" y="192"/>
      <point x="581.0" y="168"/>
    </contour>
    <contour>
      <point x="426.0" y="-34" type="curve"/>
      <point x="435.0" y="-13" type="line"/>
      <point x="455.0" y="-14"/>
      <point x="477.0" y="-15"/>
      <point x="500.0" y="-15" type="curve" smooth="yes"/>
      <point x="740.0" y="-15"/>
      <point x="800.0" y="67"/>
      <point x="800.0" y="189" type="curve"/>
      <point x="800.0" y="530" type="line" smooth="yes"/>
      <point x="800.0" y="595"/>
      <point x="783.0" y="649"/>
      <point x="731.0" y="685" type="curve"/>
      <point x="760.0" y="754" type="line"/>
      <point x="772.0" y="776"/>
      <point x="759.0" y="790"/>
      <point x="734.0" y="790" type="curve" smooth="yes"/>
      <point x="619.0" y="790" type="line" smooth="yes"/>
      <point x="594.0" y="790"/>
      <point x="585.0" y="776"/>
      <point x="573.0" y="754" type="curve"/>
      <point x="564.0" y="733" type="line"/>
      <point x="544.0" y="734"/>
      <point x="523.0" y="735"/>
      <point x="500.0" y="735" type="curve" smooth="yes"/>
      <point x="260.0" y="735"/>
      <point x="199.0" y="652"/>
      <point x="199.0" y="530" type="curve" smooth="yes"/>
      <point x="199.0" y="189" type="line" smooth="yes"/>
      <point x="199.0" y="124"/>
      <point x="216.0" y="71"/>
      <point x="268.0" y="35" type="curve"/>
      <point x="239.0" y="-34" type="line"/>
      <point x="227.0" y="-56"/>
      <point x="240.0" y="-70"/>
      <point x="265.0" y="-70" type="curve" smooth="yes"/>
      <point x="380.0" y="-70" type="line" smooth="yes"/>
      <point x="405.0" y="-70"/>
      <point x="414.0" y="-56"/>
    </contour>
  </outline>
</glyph>
<glyph name="R.s_v" format="1">
  <advance width="1000"/>
  <outline>
    <contour>
      <point x="426.0" y="500" type="line"/>
      <point x="490.0" y="500" type="line" smooth="yes"/>
      <point x="525.0" y="500"/>
      <point x="534.0" y="480"/>
      <point x="534.0" y="453" type="curve" smooth="yes"/>
      <point x="534.0" y="429" type="line" smooth="yes"/>
      <point x="534.0" y="402"/>
      <point x="525.0" y="382"/>
      <point x="490.0" y="382" type="curve" smooth="yes"/>
      <point x="426.0" y="382" type="line"/>
    </contour>
    <contour>
      <point x="390.0" y="0" type="line" smooth="yes"/>
      <point x="415.0" y="0"/>
      <point x="426.0" y="11"/>
      <point x="426.0" y="36" type="curve" smooth="yes"/>
      <point x="426.0" y="202" type="line"/>
      <point x="545.0" y="202" type="line" smooth="yes"/>
      <point x="573.0" y="202"/>
      <point x="583.0" y="189"/>
      <point x="583.0" y="159" type="curve" smooth="yes"/>
      <point x="583.0" y="36" type="line" smooth="yes"/>
      <point x="583.0" y="11"/>
      <point x="594.0" y="0"/>
      <point x="619.0" y="0" type="curve" smooth="yes"/>
      <point x="774.0" y="0" type="line" smooth="yes"/>
      <point x="799.0" y="0"/>
      <point x="810.0" y="11"/>
      <point x="810.0" y="36" type="curve" smooth="yes"/>
      <point x="810.0" y="218" type="line" smooth="yes"/>
      <point x="810.0" y="302"/>
      <point x="760.0" y="355"/>
      <point x="699.0" y="363" type="curve"/>
      <point x="741.0" y="381"/>
      <point x="755.0" y="421"/>
      <point x="755.0" y="477" type="curve" smooth="yes"/>
      <point x="755.0" y="513" type="line" smooth="yes"/>
      <point x="755.0" y="612"/>
      <point x="708.0" y="680"/>
      <point x="558.0" y="680" type="curve" smooth="yes"/>
      <point x="236.0" y="680" type="line" smooth="yes"/>
      <point x="211.0" y="680"/>
      <point x="200.0" y="669"/>
      <point x="200.0" y="644" type="curve" smooth="yes"/>
      <point x="200.0" y="36" type="line" smooth="yes"/>
      <point x="200.0" y="11"/>
      <point x="211.0" y="0"/>
      <point x="236.0" y="0" type="curve" smooth="yes"/>
    </contour>
  </outline>
</glyph>
<glyph name="Thorn.v" format="1">
  <advance width="1000"/>
  <outline>
    <contour>
      <point x="392.0" y="0" type="line" smooth="yes"/>
      <point x="417.0" y="0"/>
      <point x="428.0" y="11"/>
      <point x="428.0" y="36" type="curve" smooth="yes"/>
      <point x="428.0" y="105" type="line"/>
      <point x="567.0" y="105" type="line" smooth="yes"/>
      <point x="749.0" y="105"/>
      <point x="803.0" y="184"/>
      <point x="803.0" y="300" type="curve" smooth="yes"/>
      <point x="803.0" y="422" type="line" smooth="yes"/>
      <point x="803.0" y="538"/>
      <point x="749.0" y="617"/>
      <point x="567.0" y="617" type="curve" smooth="yes"/>
      <point x="428.0" y="617" type="line"/>
      <point x="428.0" y="684" type="line" smooth="yes"/>
      <point x="428.0" y="709"/>
      <point x="417.0" y="720"/>
      <point x="392.0" y="720" type="curve" smooth="yes"/>
      <point x="237.0" y="720" type="line" smooth="yes"/>
      <point x="212.0" y="720"/>
      <point x="201.0" y="709"/>
      <point x="201.0" y="684" type="curve" smooth="yes"/>
      <point x="201.0" y="36" type="line" smooth="yes"/>
      <point x="201.0" y="11"/>
      <point x="212.0" y="0"/>
      <point x="237.0" y="0" type="curve" smooth="yes"/>
    </contour>
    <contour>
      <point x="426.0" y="430" type="line"/>
      <point x="540.0" y="430" type="line" smooth="yes"/>
      <point x="579.0" y="430"/>
      <point x="587.0" y="407"/>
      <point x="587.0" y="381" type="curve" smooth="yes"/>
      <point x="587.0" y="334" type="line" smooth="yes"/>
      <point x="587.0" y="308"/>
      <point x="579.0" y="285"/>
      <point x="540.0" y="285" type="curve" smooth="yes"/>
      <point x="426.0" y="285" type="line"/>
    </contour>
  </outline>
</glyph>
<glyph name="X.salt" format="1">
  <advance width="737"/>
  <outline>
    <contour>
      <point x="251.0" y="0" type="line" smooth="yes"/>
      <point x="276.0" y="0"/>
      <point x="287.0" y="11"/>
      <point x="287.0" y="36" type="curve" smooth="yes"/>
      <point x="287.0" y="230" type="line" smooth="yes"/>
      <point x="287.0" y="252"/>
      <point x="298.0" y="265"/>
      <point x="319.0" y="265" type="curve" smooth="yes"/>
      <point x="419.0" y="265" type="line" smooth="yes"/>
      <point x="440.0" y="265"/>
      <point x="451.0" y="252"/>
      <point x="451.0" y="230" type="curve" smooth="yes"/>
      <point x="451.0" y="36" type="line" smooth="yes"/>
      <point x="451.0" y="11"/>
      <point x="462.0" y="0"/>
      <point x="487.0" y="0" type="curve" smooth="yes"/>
      <point x="641.0" y="0" type="line" smooth="yes"/>
      <point x="666.0" y="0"/>
      <point x="677.0" y="11"/>
      <point x="677.0" y="36" type="curve" smooth="yes"/>
      <point x="677.0" y="317" type="line" smooth="yes"/>
      <point x="677.0" y="382"/>
      <point x="645.0" y="430"/>
      <point x="591.0" y="446" type="curve"/>
      <point x="656.0" y="685" type="line" smooth="yes"/>
      <point x="662.0" y="708"/>
      <point x="654.0" y="720"/>
      <point x="629.0" y="720" type="curve" smooth="yes"/>
      <point x="477.0" y="720" type="line" smooth="yes"/>
      <point x="451.0" y="720"/>
      <point x="440.0" y="710"/>
      <point x="434.0" y="685" type="curve" smooth="yes"/>
      <point x="386.0" y="454" type="line"/>
      <point x="353.0" y="454" type="line"/>
      <point x="305.0" y="685" type="line" smooth="yes"/>
      <point x="299.0" y="710"/>
      <point x="287.0" y="720"/>
      <point x="261.0" y="720" type="curve" smooth="yes"/>
      <point x="110.0" y="720" type="line" smooth="yes"/>
      <point x="86.0" y="720"/>
      <point x="78.0" y="708"/>
      <point x="84.0" y="685" type="curve" smooth="yes"/>
      <point x="149.0" y="446" type="line"/>
      <point x="93.0" y="431"/>
      <point x="60.0" y="383"/>
      <point x="60.0" y="317" type="curve" smooth="yes"/>
      <point x="60.0" y="36" type="line"/>
      <point x="60.0" y="11"/>
      <point x="71.0" y="0"/>
      <point x="96.0" y="0" type="curve" smooth="yes"/>
    </contour>
    <contour>
      <point x="368.0" y="747.0" type="move" name="top"/>
    </contour>
    <contour>
      <point x="368.0" y="0.0" type="move" name="bottom"/>
    </contour>
  </outline>
</glyph>
<glyph name="acute.vert" format="1">
  <advance width="0"/>
  <outline>
    <contour>
      <point x="70.0" y="1217" type="curve" smooth="yes"/>
      <point x="-67.0" y="1184" type="line" smooth="yes"/>
      <point x="-91.0" y="1178"/>
      <point x="-103.0" y="1173"/>
      <point x="-103.0" y="1148" type="curve" smooth="yes"/>
      <point x="-103.0" y="1042" type="line" smooth="yes"/>
      <point x="-103.0" y="1019"/>
      <point x="-91.0" y="1004"/>
      <point x="-69.0" y="1009" type="curve" smooth="yes"/>
      <point x="68.0" y="1042" type="line" smooth="yes"/>
      <point x="92.0" y="1048"/>
      <point x="104.0" y="1053"/>
      <point x="104.0" y="1078" type="curve" smooth="yes"/>
      <point x="104.0" y="1184" type="line" smooth="yes"/>
      <point x="104.0" y="1207"/>
      <point x="92.0" y="1222"/>
    </contour>
  </outline>
</glyph>
<glyph name="arrowdown.chevron" format="1">
  <advance width="1280.0"/>
  <outline>
    <contour>
      <point x="1323.0" y="273" type="curve" smooth="yes"/>
      <point x="1180.0" y="273" type="line"/>
      <point x="1180.0" y="1026" type="line" smooth="yes"/>
      <point x="1180.0" y="1051"/>
      <point x="1164.0" y="1070"/>
      <point x="1140.0" y="1060" type="curve" smooth="yes"/>
      <point x="640.0" y="862" type="line"/>
      <point x="140.0" y="1060" type="line" smooth="yes"/>
      <point x="116.0" y="1070"/>
      <point x="100.0" y="1051"/>
      <point x="100.0" y="1026" type="curve" smooth="yes"/>
      <point x="100.0" y="273" type="line"/>
      <point x="-37.0" y="273" type="line" smooth="yes"/>
      <point x="-77.0" y="273"/>
      <point x="-91.0" y="230"/>
      <point x="-47.0" y="193" type="curve" smooth="yes"/>
      <point x="579.0" y="-323" type="line" smooth="yes"/>
      <point x="624.0" y="-360"/>
      <point x="653.0" y="-360"/>
      <point x="699.0" y="-323" type="curve" smooth="yes"/>
      <point x="1333.0" y="193" type="line" smooth="yes"/>
      <point x="1369.0" y="223"/>
      <point x="1354.0" y="273"/>
    </contour>
  </outline>
</glyph>
<glyph name="arrowleft.chevron" format="1">
  <advance width="1330"/>
  <outline>
    <contour>
      <point x="631.0" y="-319" type="curve" smooth="yes"/>
      <point x="631.0" y="-180" type="line"/>
      <point x="1292.0" y="-180" type="line" smooth="yes"/>
      <point x="1317.0" y="-180"/>
      <point x="1336.0" y="-164"/>
      <point x="1326.0" y="-140" type="curve" smooth="yes"/>
      <point x="1128.0" y="360" type="line"/>
      <point x="1326.0" y="860" type="line" smooth="yes"/>
      <point x="1336.0" y="884"/>
      <point x="1317.0" y="900"/>
      <point x="1292.0" y="900" type="curve" smooth="yes"/>
      <point x="631.0" y="900" type="line"/>
      <point x="631.0" y="1041" type="line" smooth="yes"/>
      <point x="631.0" y="1081"/>
      <point x="587.0" y="1095"/>
      <point x="551.0" y="1051" type="curve" smooth="yes"/>
      <point x="35.0" y="421" type="line" smooth="yes"/>
      <point x="-2.0" y="375"/>
      <point x="-2.0" y="347"/>
      <point x="35.0" y="301" type="curve" smooth="yes"/>
      <point x="551.0" y="-329" type="line" smooth="yes"/>
      <point x="581.0" y="-365"/>
      <point x="631.0" y="-350"/>
    </contour>
  </outline>
</glyph>
<glyph name="arrowright.chevron" format="1">
  <advance width="1330"/>
  <outline>
    <contour>
      <point x="699.0" y="-319" type="line" smooth="yes"/>
      <point x="699.0" y="-350"/>
      <point x="749.0" y="-365"/>
      <point x="779.0" y="-329" type="curve" smooth="yes"/>
      <point x="1295.0" y="301" type="line" smooth="yes"/>
      <point x="1332.0" y="347"/>
      <point x="1332.0" y="375"/>
      <point x="1295.0" y="421" type="curve" smooth="yes"/>
      <point x="779.0" y="1051" type="line" smooth="yes"/>
      <point x="743.0" y="1095"/>
      <point x="699.0" y="1081"/>
      <point x="699.0" y="1041" type="curve" smooth="yes"/>
      <point x="699.0" y="900" type="line"/>
      <point x="38.0" y="900" type="line" smooth="yes"/>
      <point x="13.0" y="900"/>
      <point x="-6.0" y="884"/>
      <point x="4.0" y="860" type="curve" smooth="yes"/>
      <point x="202.0" y="360" type="line"/>
      <point x="4.0" y="-140" type="line" smooth="yes"/>
      <point x="-6.0" y="-164"/>
      <point x="13.0" y="-180"/>
      <point x="38.0" y="-180" type="curve" smooth="yes"/>
      <point x="699.0" y="-180" type="line"/>
    </contour>
  </outline>
</glyph>
<glyph name="commaaccent.v" format="1">
  <advance width="1000"/>
  <outline>
    <contour>
      <point x="492.0" y="-330" type="line" smooth="yes"/>
      <point x="568.0" y="-330"/>
      <point x="617.0" y="-288"/>
      <point x="617.0" y="-202" type="curve" smooth="yes"/>
      <point x="617.0" y="-90" type="line" smooth="yes"/>
      <point x="617.0" y="-59"/>
      <point x="608.0" y="-50"/>
      <point x="580.0" y="-50" type="curve" smooth="yes"/>
      <point x="422.0" y="-50" type="line" smooth="yes"/>
      <point x="394.0" y="-50"/>
      <point x="385.0" y="-59"/>
      <point x="385.0" y="-90" type="curve" smooth="yes"/>
      <point x="385.0" y="-169" type="line" smooth="yes"/>
      <point x="385.0" y="-199"/>
      <point x="394.0" y="-208"/>
      <point x="422.0" y="-208" type="curve" smooth="yes"/>
      <point x="508.0" y="-208" type="line"/>
      <point x="508.0" y="-221" type="line" smooth="yes"/>
      <point x="508.0" y="-236"/>
      <point x="500.0" y="-245"/>
      <point x="485.0" y="-245" type="curve" smooth="yes"/>
      <point x="426.0" y="-245" type="line" smooth="yes"/>
      <point x="405.0" y="-245"/>
      <point x="396.0" y="-254"/>
      <point x="396.0" y="-275" type="curve" smooth="yes"/>
      <point x="396.0" y="-299" type="line" smooth="yes"/>
      <point x="396.0" y="-321"/>
      <point x="405.0" y="-330"/>
      <point x="426.0" y="-330" type="curve" smooth="yes"/>
    </contour>
  </outline>
</glyph>
<glyph name="emdash.v" format="1">
  <advance width="1000"/>
  <outline>
    <contour>
      <point x="603.0" y="-101" type="curve"/>
      <point x="603.0" y="821" type="line" smooth="yes"/>
      <point x="603.0" y="846"/>
      <point x="593.0" y="857"/>
      <point x="567.0" y="857" type="curve" smooth="yes"/>
      <point x="433.0" y="857" type="line" smooth="yes"/>
      <point x="407.0" y="857"/>
      <point x="397.0" y="846"/>
      <point x="397.0" y="821" type="curve" smooth="yes"/>
      <point x="397.0" y="-101" type="line" smooth="yes"/>
      <point x="397.0" y="-126"/>
      <point x="408.0" y="-137"/>
      <point x="433.0" y="-137" type="curve" smooth="yes"/>
      <point x="567.0" y="-137" type="line" smooth="yes"/>
      <point x="593.0" y="-137"/>
      <point x="603.0" y="-126"/>
    </contour>
  </outline>
</glyph>
<glyph name="indexdownright.outline" format="1">
  <advance width="1000"/>
  <outline>
    <contour>
      <point x="168.0" y="258" type="curve"/>
      <point x="145.0" y="281" type="line" smooth="yes"/>
      <point x="138.0" y="289"/>
      <point x="138.0" y="299"/>
      <point x="146.0" y="308" type="curve" smooth="yes"/>
      <point x="465.0" y="627" type="line" smooth="yes"/>
      <point x="474.0" y="635"/>
      <point x="483.0" y="634"/>
      <point x="491.0" y="627" type="curve"/>
      <point x="514.0" y="605" type="line"/>
      <point x="521.0" y="596"/>
      <point x="522.0" y="587"/>
      <point x="514.0" y="578" type="curve" smooth="yes"/>
      <point x="193.0" y="259" type="line" smooth="yes"/>
      <point x="186.0" y="251"/>
      <point x="176.0" y="251"/>
    </contour>
    <contour>
      <point x="465.0" y="62" type="curve" smooth="yes"/>
      <point x="293.0" y="219" type="line" smooth="yes"/>
      <point x="281.0" y="232"/>
      <point x="273.0" y="247"/>
      <point x="271.0" y="256" type="curve" smooth="yes"/>
      <point x="260.0" y="295" type="line"/>
      <point x="486.0" y="522" type="line"/>
      <point x="652.0" y="409" type="line" smooth="yes"/>
      <point x="663.0" y="401"/>
      <point x="679.0" y="386"/>
      <point x="691.0" y="372" type="curve" smooth="yes"/>
      <point x="884.0" y="149" type="line" smooth="yes"/>
      <point x="891.0" y="141"/>
      <point x="894.0" y="130"/>
      <point x="883.0" y="120" type="curve" smooth="yes"/>
      <point x="862.0" y="99" type="line" smooth="yes"/>
      <point x="853.0" y="89"/>
      <point x="842.0" y="90"/>
      <point x="832.0" y="101" type="curve" smooth="yes"/>
      <point x="642.0" y="291" type="line"/>
      <point x="627.0" y="276" type="line" smooth="yes"/>
      <point x="689.0" y="214" type="line"/>
      <point x="688.0" y="214" type="line"/>
      <point x="697.0" y="207"/>
      <point x="695.0" y="199"/>
      <point x="688.0" y="191" type="curve" smooth="yes"/>
      <point x="664.0" y="168" type="line" smooth="yes"/>
      <point x="654.0" y="158"/>
      <point x="645.0" y="159"/>
      <point x="634.0" y="169" type="curve" smooth="yes"/>
      <point x="560.0" y="233" type="line"/>
      <point x="545.0" y="218" type="line" smooth="yes"/>
      <point x="607.0" y="165" type="line"/>
      <point x="613.0" y="158"/>
      <point x="612.0" y="150"/>
      <point x="603.0" y="141" type="curve" smooth="yes"/>
      <point x="578.0" y="115" type="line" smooth="yes"/>
      <point x="568.0" y="106"/>
      <point x="559.0" y="107"/>
      <point x="548.0" y="117" type="curve" smooth="yes"/>
      <point x="478.0" y="177" type="line"/>
      <point x="462.0" y="163" type="line" smooth="yes"/>
      <point x="525.0" y="110" type="line"/>
      <point x="523.0" y="111" type="line"/>
      <point x="530.0" y="104"/>
      <point x="526.0" y="95"/>
      <point x="520.0" y="89" type="curve" smooth="yes"/>
      <point x="493.0" y="62" type="line" smooth="yes"/>
      <point x="485.0" y="54"/>
      <point x="473.0" y="54"/>
    </contour>
    <contour>
      <point x="507.0" y="46" type="curve" smooth="yes"/>
      <point x="536.0" y="74" type="line"/>
      <point x="540.0" y="79"/>
      <point x="545.0" y="86"/>
      <point x="546.0" y="94" type="curve"/>
      <point x="562.0" y="83"/>
      <point x="578.0" y="86"/>
      <point x="592.0" y="101" type="curve" smooth="yes"/>
      <point x="620.0" y="128" type="line"/>
      <point x="625.0" y="133"/>
      <point x="628.0" y="140"/>
      <point x="629.0" y="147" type="curve"/>
      <point x="647.0" y="134"/>
      <point x="664.0" y="137"/>
      <point x="679.0" y="153" type="curve" smooth="yes"/>
      <point x="704.0" y="178" type="line" smooth="yes"/>
      <point x="708.0" y="182"/>
      <point x="711.0" y="186"/>
      <point x="712.0" y="191" type="curve"/>
      <point x="817.0" y="86" type="line" smooth="yes"/>
      <point x="838.0" y="65"/>
      <point x="858.0" y="65"/>
      <point x="877.0" y="84" type="curve" smooth="yes"/>
      <point x="898.0" y="105" type="line" smooth="yes"/>
      <point x="917.0" y="124"/>
      <point x="918.0" y="144"/>
      <point x="901.0" y="163" type="curve" smooth="yes"/>
      <point x="708.0" y="385" type="line" smooth="yes"/>
      <point x="693.0" y="401"/>
      <point x="676.0" y="418"/>
      <point x="663.0" y="427" type="curve" smooth="yes"/>
      <point x="502.0" y="537" type="line"/>
      <point x="529.0" y="565" type="line" smooth="yes"/>
      <point x="546.0" y="582"/>
      <point x="546.0" y="602"/>
      <point x="528.0" y="619" type="curve" smooth="yes"/>
      <point x="476.0" y="672" type="line" smooth="yes"/>
      <point x="458.0" y="690"/>
      <point x="440.0" y="691"/>
      <point x="420.0" y="671" type="curve" smooth="yes"/>
      <point x="101.0" y="352" type="line" smooth="yes"/>
      <point x="82.0" y="333"/>
      <point x="82.0" y="314"/>
      <point x="100.0" y="296" type="curve" smooth="yes"/>
      <point x="154.0" y="243" type="line" smooth="yes"/>
      <point x="171.0" y="226"/>
      <point x="191.0" y="227"/>
      <point x="207.0" y="242" type="curve" smooth="yes"/>
      <point x="242.0" y="277" type="line"/>
      <point x="250.0" y="250" type="line" smooth="yes"/>
      <point x="254.0" y="239"/>
      <point x="263.0" y="219"/>
      <point x="278.0" y="204" type="curve" smooth="yes"/>
      <point x="450.0" y="46" type="line" smooth="yes"/>
      <point x="466.0" y="31"/>
      <point x="491.0" y="30"/>
    </contour>
  </outline>
</glyph>
<glyph name="indexdownright.salt_outline" format="1">
  <advance width="1000"/>
  <outline>
    <contour>
      <point x="196.0" y="302" type="curve"/>
      <point x="171.0" y="326" type="line" smooth="yes"/>
      <point x="164.0" y="334"/>
      <point x="164.0" y="344"/>
      <point x="172.0" y="353" type="curve" smooth="yes"/>
      <point x="432.0" y="612" type="line" smooth="yes"/>
      <point x="440.0" y="620"/>
      <point x="450.0" y="619"/>
      <point x="457.0" y="612" type="curve"/>
      <point x="480.0" y="589" type="line"/>
      <point x="488.0" y="581"/>
      <point x="488.0" y="572"/>
      <point x="480.0" y="564" type="curve" smooth="yes"/>
      <point x="221.0" y="303" type="line" smooth="yes"/>
      <point x="212.0" y="296"/>
      <point x="203.0" y="295"/>
    </contour>
    <contour>
      <point x="338.0" y="71" type="curve" smooth="yes"/>
      <point x="299.0" y="82" type="line" smooth="yes"/>
      <point x="294.0" y="83"/>
      <point x="289.0" y="89"/>
      <point x="291.0" y="96" type="curve" smooth="yes"/>
      <point x="306.0" y="187" type="line" smooth="yes"/>
      <point x="311.0" y="219"/>
      <point x="317.0" y="248"/>
      <point x="314.0" y="278" type="curve" smooth="yes"/>
      <point x="308.0" y="362" type="line"/>
      <point x="450.0" y="503" type="line"/>
      <point x="607.0" y="443" type="line" smooth="yes"/>
      <point x="631.0" y="432"/>
      <point x="647.0" y="418"/>
      <point x="662.0" y="399" type="curve" smooth="yes"/>
      <point x="860.0" y="134" type="line" smooth="yes"/>
      <point x="865.0" y="128"/>
      <point x="864.0" y="120"/>
      <point x="857.0" y="112" type="curve" smooth="yes"/>
      <point x="834.0" y="89" type="line" smooth="yes"/>
      <point x="827.0" y="82"/>
      <point x="816.0" y="82"/>
      <point x="809.0" y="90" type="curve" smooth="yes"/>
      <point x="597.0" y="285" type="line" smooth="yes"/>
      <point x="576.0" y="305"/>
      <point x="550.0" y="306"/>
      <point x="527.0" y="296" type="curve" smooth="yes"/>
      <point x="471.0" y="271" type="line" smooth="yes"/>
      <point x="441.0" y="257"/>
      <point x="429.0" y="239"/>
      <point x="415.0" y="208" type="curve" smooth="yes"/>
      <point x="360.0" y="88" type="line" smooth="yes"/>
      <point x="355.0" y="74"/>
      <point x="348.0" y="69"/>
    </contour>
    <contour>
      <point x="490.0" y="146" type="curve" smooth="yes"/>
      <point x="420.0" y="170" type="line"/>
      <point x="434.0" y="199" type="line" smooth="yes"/>
      <point x="442.0" y="219"/>
      <point x="449.0" y="232"/>
      <point x="462.0" y="242" type="curve"/>
      <point x="474.0" y="243"/>
      <point x="487.0" y="238"/>
      <point x="500.0" y="227" type="curve"/>
      <point x="503.0" y="230" type="line"/>
      <point x="493.0" y="241"/>
      <point x="487.0" y="250"/>
      <point x="489.0" y="256" type="curve"/>
      <point x="535.0" y="276" type="line" smooth="yes"/>
      <point x="553.0" y="284"/>
      <point x="568.0" y="282"/>
      <point x="584.0" y="269" type="curve" smooth="yes"/>
      <point x="621.0" y="235" type="line"/>
      <point x="547.0" y="162" type="line" smooth="yes"/>
      <point x="532.0" y="146"/>
      <point x="513.0" y="137"/>
    </contour>
    <contour>
      <point x="379.0" y="80" type="curve" smooth="yes"/>
      <point x="411.0" y="150" type="line"/>
      <point x="482.0" y="126" type="line" smooth="yes"/>
      <point x="518.0" y="113"/>
      <point x="542.0" y="126"/>
      <point x="564.0" y="149" type="curve" smooth="yes"/>
      <point x="636.0" y="221" type="line"/>
      <point x="803.0" y="68" type="line" smooth="yes"/>
      <point x="816.0" y="57"/>
      <point x="834.0" y="59"/>
      <point x="845.0" y="70" type="curve" smooth="yes"/>
      <point x="873.0" y="99" type="line" smooth="yes"/>
      <point x="886.0" y="111"/>
      <point x="893.0" y="126"/>
      <point x="879.0" y="144" type="curve" smooth="yes"/>
      <point x="680.0" y="409" type="line" smooth="yes"/>
      <point x="663.0" y="431"/>
      <point x="644.0" y="450"/>
      <point x="613.0" y="463" type="curve" smooth="yes"/>
      <point x="466.0" y="519" type="line"/>
      <point x="496.0" y="549" type="line" smooth="yes"/>
      <point x="513.0" y="567"/>
      <point x="513.0" y="586"/>
      <point x="495.0" y="604" type="curve" smooth="yes"/>
      <point x="442.0" y="656" type="line" smooth="yes"/>
      <point x="424.0" y="674"/>
      <point x="407.0" y="676"/>
      <point x="387.0" y="656" type="curve" smooth="yes"/>
      <point x="127.0" y="397" type="line" smooth="yes"/>
      <point x="109.0" y="378"/>
      <point x="109.0" y="359"/>
      <point x="127.0" y="341" type="curve" smooth="yes"/>
      <point x="180.0" y="288" type="line" smooth="yes"/>
      <point x="198.0" y="270"/>
      <point x="219.0" y="272"/>
      <point x="233.0" y="288" type="curve" smooth="yes"/>
      <point x="288.0" y="342" type="line"/>
      <point x="293.0" y="274" type="line" smooth="yes"/>
      <point x="295.0" y="246"/>
      <point x="289.0" y="219"/>
      <point x="285.0" y="190" type="curve" smooth="yes"/>
      <point x="270.0" y="99" type="line" smooth="yes"/>
      <point x="267.0" y="78"/>
      <point x="276.0" y="65"/>
      <point x="294.0" y="61" type="curve" smooth="yes"/>
      <point x="338.0" y="50" type="line" smooth="yes"/>
      <point x="357.0" y="46"/>
      <point x="370.0" y="60"/>
    </contour>
  </outline>
</glyph>
